<svg width="176" height="156" fill="none" xmlns="http://www.w3.org/2000/svg"><path d="M11.57 112.773h5.39V114h-6.898v-11.375h1.508v10.148zm6.492-3.078c0-.828.162-1.573.485-2.234.328-.662.781-1.172 1.36-1.531.583-.36 1.247-.539 1.991-.539 1.151 0 2.081.398 2.79 1.195.713.797 1.07 1.857 1.07 3.18v.101c0 .823-.159 1.563-.477 2.219a3.555 3.555 0 01-1.351 1.523c-.584.365-1.256.547-2.016.547-1.146 0-2.076-.398-2.789-1.195-.708-.797-1.063-1.852-1.063-3.164v-.102zm1.454.172c0 .938.216 1.69.648 2.258.438.568 1.02.852 1.75.852.734 0 1.318-.287 1.75-.86.432-.578.648-1.385.648-2.422 0-.927-.22-1.677-.664-2.25-.437-.578-1.02-.867-1.75-.867-.713 0-1.289.284-1.726.852-.438.567-.656 1.38-.656 2.437zm12.14-3.023a4.27 4.27 0 00-.71-.055c-.949 0-1.592.404-1.93 1.211v6H27.57v-8.453h1.407l.023.976c.474-.755 1.146-1.132 2.016-1.132.28 0 .494.036.64.109v1.344zm4.688 7.312c-1.146 0-2.078-.375-2.797-1.125-.719-.755-1.078-1.763-1.078-3.023v-.266c0-.838.159-1.586.476-2.242.323-.661.771-1.177 1.344-1.547a3.38 3.38 0 011.875-.562c1.099 0 1.953.362 2.563 1.086.609.724.914 1.76.914 3.109v.602h-5.727c.02.833.263 1.507.727 2.023.468.51 1.062.766 1.78.766.511 0 .944-.105 1.298-.313a3.25 3.25 0 00.93-.828l.882.687c-.708 1.089-1.77 1.633-3.187 1.633zm-.18-7.578c-.583 0-1.073.214-1.469.641-.395.422-.64 1.015-.734 1.781h4.234v-.109c-.041-.735-.24-1.302-.593-1.703-.355-.407-.834-.61-1.438-.61zm6.516-1.031l.039.937c.62-.729 1.456-1.093 2.508-1.093 1.182 0 1.987.453 2.414 1.359a3.215 3.215 0 011.093-.984c.453-.25.987-.375 1.602-.375 1.854 0 2.797.981 2.828 2.945V114H51.72v-5.578c0-.604-.138-1.055-.414-1.352-.276-.302-.74-.453-1.39-.453-.537 0-.983.162-1.337.485-.354.317-.56.747-.617 1.289V114h-1.453v-5.539c0-1.229-.602-1.844-1.805-1.844-.948 0-1.596.404-1.945 1.211V114h-1.446v-8.453h1.368zM60.89 114h-1.445v-8.453h1.446V114zm-1.562-10.695a.87.87 0 01.211-.594c.146-.162.36-.242.64-.242.282 0 .495.08.641.242a.853.853 0 01.22.594.828.828 0 01-.22.586c-.145.156-.36.234-.64.234-.282 0-.495-.078-.64-.234a.845.845 0 01-.212-.586zm11.024 6.562c0 1.287-.295 2.323-.883 3.11-.589.786-1.386 1.179-2.39 1.179-1.027 0-1.834-.325-2.423-.976v4.07h-1.445v-11.703h1.32l.07.937c.59-.729 1.407-1.093 2.454-1.093 1.015 0 1.817.382 2.406 1.148.594.766.89 1.831.89 3.195v.133zm-1.446-.164c0-.953-.203-1.706-.61-2.258-.405-.552-.963-.828-1.671-.828-.875 0-1.531.388-1.969 1.164v4.039c.432.771 1.094 1.157 1.985 1.157.692 0 1.242-.274 1.648-.821.412-.552.617-1.37.617-2.453zm8.211 2.055c0-.391-.148-.693-.445-.906-.292-.219-.805-.407-1.54-.563-.728-.156-1.31-.344-1.741-.562-.428-.219-.745-.48-.954-.782-.203-.302-.304-.661-.304-1.078 0-.693.291-1.278.875-1.758.588-.479 1.338-.718 2.25-.718.958 0 1.734.247 2.328.742.599.495.898 1.127.898 1.898h-1.453c0-.396-.169-.737-.508-1.023-.333-.287-.755-.43-1.265-.43-.526 0-.938.115-1.235.344a1.082 1.082 0 00-.445.898c0 .349.138.612.414.789.276.177.774.347 1.492.508.724.162 1.31.354 1.758.578.448.224.779.495.992.813.22.312.329.695.329 1.148 0 .755-.303 1.362-.907 1.821-.604.453-1.388.679-2.351.679-.677 0-1.276-.12-1.797-.359-.521-.24-.93-.573-1.227-1a2.454 2.454 0 01-.437-1.399h1.445c.026.485.219.87.578 1.157.365.281.844.422 1.438.422.547 0 .984-.11 1.312-.329.334-.224.5-.52.5-.89zm8.547 1.406c-.562.662-1.388.992-2.477.992-.9 0-1.588-.26-2.062-.781-.469-.526-.706-1.302-.71-2.328v-5.5h1.444v5.461c0 1.281.521 1.922 1.563 1.922 1.104 0 1.838-.412 2.203-1.235v-6.148h1.445V114h-1.375l-.03-.836zm4.969-7.617l.039.937c.62-.729 1.456-1.093 2.508-1.093 1.182 0 1.987.453 2.414 1.359a3.214 3.214 0 011.094-.984c.453-.25.986-.375 1.601-.375 1.854 0 2.797.981 2.828 2.945V114h-1.445v-5.578c0-.604-.138-1.055-.414-1.352-.276-.302-.74-.453-1.39-.453-.537 0-.983.162-1.337.485-.354.317-.56.747-.617 1.289V114h-1.453v-5.539c0-1.229-.602-1.844-1.805-1.844-.948 0-1.596.404-1.945 1.211V114h-1.445v-8.453h1.367zm12.625 10.719l-.82-.563c.489-.682.744-1.385.765-2.109v-1.305h1.414v1.133c0 .526-.13 1.052-.39 1.578-.256.526-.579.948-.969 1.266zm6.804-6.563c0-1.297.308-2.338.922-3.125.615-.792 1.42-1.187 2.414-1.187.99 0 1.774.338 2.352 1.015V102h1.445v12h-1.328l-.07-.906c-.578.708-1.383 1.062-2.414 1.062-.979 0-1.779-.401-2.399-1.203-.614-.802-.922-1.849-.922-3.141v-.109zm1.446.164c0 .959.198 1.709.594 2.25.395.542.942.813 1.64.813.917 0 1.586-.412 2.008-1.235v-3.883c-.432-.796-1.096-1.195-1.992-1.195-.709 0-1.261.274-1.656.821-.396.546-.594 1.356-.594 2.429zm7.554-.172c0-.828.162-1.573.485-2.234.328-.662.781-1.172 1.359-1.531.584-.36 1.248-.539 1.992-.539 1.151 0 2.081.398 2.79 1.195.713.797 1.07 1.857 1.07 3.18v.101c0 .823-.159 1.563-.477 2.219a3.555 3.555 0 01-1.351 1.523c-.584.365-1.256.547-2.016.547-1.146 0-2.075-.398-2.789-1.195-.708-.797-1.063-1.852-1.063-3.164v-.102zm1.454.172c0 .938.216 1.69.648 2.258.438.568 1.021.852 1.75.852.734 0 1.318-.287 1.75-.86.432-.578.648-1.385.648-2.422 0-.927-.221-1.677-.664-2.25-.437-.578-1.02-.867-1.75-.867-.713 0-1.289.284-1.726.852-.438.567-.656 1.38-.656 2.437zm9.625 4.133h-1.446v-12h1.446v12zm1.937-4.305c0-.828.162-1.573.484-2.234.329-.662.782-1.172 1.36-1.531.583-.36 1.247-.539 1.992-.539 1.151 0 2.081.398 2.789 1.195.714.797 1.07 1.857 1.07 3.18v.101c0 .823-.158 1.563-.476 2.219a3.557 3.557 0 01-1.352 1.523c-.583.365-1.255.547-2.015.547-1.146 0-2.076-.398-2.789-1.195-.709-.797-1.063-1.852-1.063-3.164v-.102zm1.453.172c0 .938.216 1.69.649 2.258.437.568 1.021.852 1.75.852.734 0 1.317-.287 1.75-.86.432-.578.648-1.385.648-2.422 0-.927-.221-1.677-.664-2.25-.437-.578-1.021-.867-1.75-.867-.713 0-1.289.284-1.726.852-.438.567-.657 1.38-.657 2.437zm12.141-3.023a4.276 4.276 0 00-.711-.055c-.948 0-1.591.404-1.93 1.211v6h-1.445v-8.453h1.406l.024.976c.474-.755 1.145-1.132 2.015-1.132.281 0 .495.036.641.109v1.344zm10.226 4.914c0-.391-.148-.693-.445-.906-.292-.219-.805-.407-1.539-.563-.729-.156-1.31-.344-1.742-.562-.427-.219-.745-.48-.953-.782-.203-.302-.305-.661-.305-1.078 0-.693.292-1.278.875-1.758.589-.479 1.339-.718 2.25-.718.958 0 1.734.247 2.328.742.599.495.899 1.127.899 1.898h-1.454c0-.396-.169-.737-.507-1.023-.334-.287-.756-.43-1.266-.43-.526 0-.937.115-1.234.344a1.082 1.082 0 00-.446.898c0 .349.138.612.414.789.276.177.774.347 1.493.508.724.162 1.31.354 1.757.578.448.224.779.495.993.813.218.312.328.695.328 1.148 0 .755-.302 1.362-.906 1.821-.605.453-1.389.679-2.352.679-.677 0-1.276-.12-1.797-.359-.521-.24-.93-.573-1.227-1a2.458 2.458 0 01-.437-1.399h1.445c.026.485.219.87.578 1.157.365.281.844.422 1.438.422.547 0 .984-.11 1.312-.329.334-.224.5-.52.5-.89zm4.899 2.242h-1.445v-8.453h1.445V114zm-1.563-10.695c0-.235.071-.433.211-.594.146-.162.36-.242.641-.242s.495.08.641.242a.856.856 0 01.218.594.83.83 0 01-.218.586c-.146.156-.36.234-.641.234s-.495-.078-.641-.234a.848.848 0 01-.211-.586zm5.844.195v2.047h1.578v1.117h-1.578v5.242c0 .339.07.594.211.766.141.167.38.25.719.25.166 0 .396-.031.687-.094V114c-.38.104-.75.156-1.109.156-.646 0-1.133-.195-1.461-.586-.328-.39-.492-.945-.492-1.664v-5.242h-1.539v-1.117h1.539V103.5h1.445zM31.781 133c-.083-.167-.15-.464-.203-.891-.672.698-1.474 1.047-2.406 1.047-.834 0-1.518-.234-2.055-.703-.531-.474-.797-1.073-.797-1.797 0-.88.334-1.562 1-2.047.672-.489 1.615-.734 2.828-.734h1.407v-.664c0-.505-.151-.906-.453-1.203-.303-.302-.748-.453-1.336-.453-.516 0-.948.13-1.297.39-.35.261-.524.576-.524.946h-1.453c0-.422.149-.829.445-1.219.303-.396.709-.708 1.22-.938a4.13 4.13 0 011.695-.343c.974 0 1.736.244 2.289.734.552.484.838 1.154.859 2.008v3.89c0 .776.099 1.394.297 1.852V133H31.78zm-2.398-1.102c.453 0 .883-.117 1.289-.351.406-.235.7-.539.883-.914v-1.735h-1.133c-1.771 0-2.656.519-2.656 1.555 0 .453.15.807.453 1.063.302.255.69.382 1.164.382zm7.242-7.351l.04.937c.619-.729 1.455-1.093 2.507-1.093 1.182 0 1.987.453 2.414 1.359a3.215 3.215 0 011.094-.984c.453-.25.987-.375 1.601-.375 1.854 0 2.797.981 2.828 2.945V133h-1.445v-5.578c0-.604-.138-1.055-.414-1.352-.276-.302-.74-.453-1.39-.453-.537 0-.982.162-1.337.485-.354.317-.56.747-.617 1.289V133h-1.453v-5.539c0-1.229-.601-1.844-1.805-1.844-.948 0-1.596.404-1.945 1.211V133h-1.445v-8.453h1.367zm16.18 8.609c-1.146 0-2.078-.375-2.797-1.125-.719-.755-1.078-1.763-1.078-3.023v-.266c0-.838.159-1.586.476-2.242.323-.661.771-1.177 1.344-1.547a3.38 3.38 0 011.875-.562c1.099 0 1.953.362 2.563 1.086.609.724.914 1.76.914 3.109v.602h-5.727c.02.833.263 1.507.727 2.023.468.51 1.062.766 1.78.766.511 0 .944-.105 1.298-.313.354-.208.664-.484.93-.828l.882.687c-.708 1.089-1.77 1.633-3.187 1.633zm-.18-7.578c-.583 0-1.073.214-1.469.641-.396.422-.64 1.015-.734 1.781h4.234v-.109c-.041-.735-.24-1.302-.593-1.703-.355-.407-.834-.61-1.438-.61zm7.117-3.078v2.047h1.578v1.117h-1.578v5.242c0 .339.07.594.211.766.14.167.38.25.719.25.167 0 .396-.031.687-.094V133c-.38.104-.75.156-1.109.156-.646 0-1.133-.195-1.46-.586-.33-.39-.493-.945-.493-1.664v-5.242h-1.54v-1.117h1.54V122.5h1.445zm10.633 9.477c.516 0 .966-.157 1.352-.469.385-.313.599-.703.64-1.172h1.367a2.625 2.625 0 01-.5 1.383A3.296 3.296 0 0172 132.766a3.53 3.53 0 01-1.625.39c-1.151 0-2.068-.383-2.75-1.148-.677-.771-1.016-1.823-1.016-3.156v-.243c0-.823.151-1.554.454-2.195a3.456 3.456 0 011.296-1.492c.568-.354 1.237-.531 2.008-.531.948 0 1.735.283 2.36.851.63.568.966 1.305 1.007 2.211h-1.367c-.041-.547-.25-.995-.625-1.344-.37-.354-.828-.531-1.375-.531-.734 0-1.305.266-1.71.797-.402.526-.602 1.289-.602 2.289v.274c0 .973.2 1.723.601 2.25.401.526.974.789 1.719.789zm4.602-3.282c0-.828.161-1.573.484-2.234.328-.662.781-1.172 1.36-1.531.583-.36 1.247-.539 1.992-.539 1.15 0 2.08.398 2.789 1.195.713.797 1.07 1.857 1.07 3.18v.101c0 .823-.159 1.563-.477 2.219a3.556 3.556 0 01-1.351 1.523c-.584.365-1.255.547-2.016.547-1.146 0-2.075-.398-2.789-1.195-.708-.797-1.062-1.852-1.062-3.164v-.102zm1.453.172c0 .938.216 1.69.648 2.258.438.568 1.021.852 1.75.852.734 0 1.318-.287 1.75-.86.432-.578.649-1.385.649-2.422 0-.927-.222-1.677-.665-2.25-.437-.578-1.02-.867-1.75-.867-.713 0-1.289.284-1.726.852-.438.567-.656 1.38-.656 2.437zm9.422-4.32l.046 1.062c.646-.812 1.49-1.218 2.532-1.218 1.786 0 2.687 1.007 2.703 3.023V133h-1.445v-5.594c-.006-.609-.146-1.06-.422-1.351-.271-.292-.696-.438-1.274-.438-.469 0-.88.125-1.234.375s-.63.578-.828.985V133h-1.446v-8.453h1.368zm12.382 6.211c0-.391-.148-.693-.445-.906-.292-.219-.805-.407-1.539-.563-.73-.156-1.31-.344-1.742-.562-.427-.219-.745-.48-.953-.782-.203-.302-.305-.661-.305-1.078 0-.693.292-1.278.875-1.758.588-.479 1.338-.718 2.25-.718.958 0 1.734.247 2.328.742.6.495.899 1.127.899 1.898h-1.454c0-.396-.169-.737-.507-1.023-.334-.287-.756-.43-1.266-.43-.526 0-.938.115-1.234.344a1.082 1.082 0 00-.446.898c0 .349.138.612.414.789.276.177.774.347 1.493.508.724.162 1.31.354 1.757.578.448.224.779.495.993.813.218.312.328.695.328 1.148 0 .755-.302 1.362-.907 1.821-.604.453-1.388.679-2.351.679-.677 0-1.276-.12-1.797-.359-.52-.24-.93-.573-1.227-1a2.454 2.454 0 01-.437-1.399h1.445c.026.485.219.87.578 1.157.365.281.844.422 1.438.422.547 0 .984-.11 1.312-.329.334-.224.5-.52.5-.89zm6.836 2.398c-1.146 0-2.078-.375-2.797-1.125-.718-.755-1.078-1.763-1.078-3.023v-.266c0-.838.159-1.586.477-2.242.323-.661.771-1.177 1.344-1.547a3.38 3.38 0 011.875-.562c1.099 0 1.953.362 2.562 1.086.609.724.914 1.76.914 3.109v.602h-5.726c.02.833.263 1.507.726 2.023.469.51 1.063.766 1.781.766.511 0 .943-.105 1.297-.313.354-.208.664-.484.93-.828l.883.687c-.709 1.089-1.771 1.633-3.188 1.633zm-.179-7.578c-.584 0-1.073.214-1.469.641-.396.422-.641 1.015-.734 1.781h4.234v-.109c-.042-.735-.24-1.302-.594-1.703-.354-.407-.833-.61-1.437-.61zm8.547 6.399c.515 0 .966-.157 1.351-.469.385-.313.599-.703.641-1.172h1.367c-.026.484-.193.945-.5 1.383a3.293 3.293 0 01-1.235 1.047c-.51.26-1.052.39-1.624.39-1.152 0-2.068-.383-2.75-1.148-.678-.771-1.016-1.823-1.016-3.156v-.243c0-.823.151-1.554.453-2.195a3.453 3.453 0 011.297-1.492c.568-.354 1.237-.531 2.008-.531.948 0 1.734.283 2.359.851.63.568.966 1.305 1.008 2.211h-1.367c-.042-.547-.25-.995-.625-1.344-.37-.354-.828-.531-1.375-.531-.735 0-1.305.266-1.711.797-.401.526-.602 1.289-.602 2.289v.274c0 .973.201 1.723.602 2.25.401.526.974.789 1.719.789zm6.945-9.477v2.047h1.578v1.117h-1.578v5.242c0 .339.07.594.211.766.14.167.38.25.718.25.167 0 .396-.031.688-.094V133c-.38.104-.75.156-1.109.156-.646 0-1.133-.195-1.461-.586-.328-.39-.492-.945-.492-1.664v-5.242h-1.54v-1.117h1.54V122.5h1.445zm6.781 10.656c-1.146 0-2.078-.375-2.797-1.125-.719-.755-1.078-1.763-1.078-3.023v-.266c0-.838.159-1.586.477-2.242.323-.661.77-1.177 1.343-1.547a3.382 3.382 0 011.875-.562c1.099 0 1.954.362 2.563 1.086.609.724.914 1.76.914 3.109v.602h-5.727c.021.833.263 1.507.727 2.023.469.51 1.062.766 1.781.766.511 0 .943-.105 1.297-.313.354-.208.664-.484.93-.828l.883.687c-.709 1.089-1.771 1.633-3.188 1.633zm-.18-7.578a1.92 1.92 0 00-1.468.641c-.396.422-.641 1.015-.735 1.781h4.235v-.109c-.042-.735-.24-1.302-.594-1.703-.354-.407-.833-.61-1.438-.61zm7.118-3.078v2.047h1.578v1.117h-1.578v5.242c0 .339.07.594.21.766.141.167.381.25.719.25.167 0 .396-.031.688-.094V133c-.38.104-.75.156-1.11.156-.645 0-1.132-.195-1.461-.586-.328-.39-.492-.945-.492-1.664v-5.242h-1.539v-1.117h1.539V122.5h1.446zm8.492 9.664c-.563.662-1.388.992-2.477.992-.901 0-1.588-.26-2.062-.781-.469-.526-.706-1.302-.711-2.328v-5.5h1.445v5.461c0 1.281.521 1.922 1.563 1.922 1.104 0 1.838-.412 2.203-1.235v-6.148H144V133h-1.375l-.031-.836zm7.695-6.32a4.276 4.276 0 00-.711-.055c-.948 0-1.591.404-1.93 1.211v6h-1.445v-8.453h1.406l.024.976c.474-.755 1.146-1.132 2.015-1.132.282 0 .495.036.641.109v1.344zM41.109 152c-.083-.167-.15-.464-.203-.891-.672.698-1.474 1.047-2.406 1.047-.833 0-1.518-.234-2.055-.703-.53-.474-.797-1.073-.797-1.797 0-.88.334-1.562 1-2.047.672-.489 1.615-.734 2.829-.734h1.406v-.664c0-.505-.151-.906-.453-1.203-.302-.302-.748-.453-1.336-.453-.516 0-.948.13-1.297.39-.35.261-.524.576-.524.946H35.82c0-.422.149-.829.446-1.219.302-.396.708-.708 1.218-.938a4.13 4.13 0 011.696-.343c.974 0 1.737.244 2.289.734.552.484.838 1.154.86 2.008v3.89c0 .776.098 1.394.296 1.852V152h-1.516zm-2.398-1.102c.453 0 .883-.117 1.289-.351.406-.235.7-.539.883-.914v-1.735H39.75c-1.77 0-2.656.519-2.656 1.555 0 .453.15.807.453 1.063.302.255.69.382 1.164.382zm5.531-3.195c0-1.297.308-2.338.922-3.125.615-.792 1.42-1.187 2.414-1.187.99 0 1.774.338 2.352 1.015V140h1.445v12h-1.328l-.07-.906c-.579.708-1.383 1.062-2.414 1.062-.98 0-1.78-.401-2.399-1.203-.614-.802-.922-1.849-.922-3.141v-.109zm1.446.164c0 .959.197 1.709.593 2.25.396.542.943.813 1.64.813.918 0 1.587-.412 2.009-1.235v-3.883c-.433-.796-1.097-1.195-1.992-1.195-.709 0-1.26.274-1.657.821-.396.546-.593 1.356-.593 2.429zM55.194 152H53.75v-8.453h1.445V152zm-1.562-10.695a.87.87 0 01.21-.594c.147-.162.36-.242.641-.242.282 0 .495.08.641.242a.853.853 0 01.219.594.828.828 0 01-.219.586c-.146.156-.36.234-.64.234-.282 0-.495-.078-.641-.234a.845.845 0 01-.211-.586zm11.023 6.562c0 1.287-.294 2.323-.883 3.11-.588.786-1.385 1.179-2.39 1.179-1.026 0-1.834-.325-2.422-.976v4.07h-1.445v-11.703h1.32l.07.937c.589-.729 1.407-1.093 2.453-1.093 1.016 0 1.818.382 2.407 1.148.593.766.89 1.831.89 3.195v.133zm-1.445-.164c0-.953-.203-1.706-.61-2.258-.406-.552-.963-.828-1.671-.828-.875 0-1.532.388-1.97 1.164v4.039c.433.771 1.095 1.157 1.985 1.157.693 0 1.242-.274 1.649-.821.411-.552.617-1.37.617-2.453zM68.07 152h-1.446v-8.453h1.445V152zm-1.563-10.695a.87.87 0 01.21-.594c.147-.162.36-.242.641-.242.282 0 .495.08.641.242a.853.853 0 01.219.594.828.828 0 01-.219.586c-.146.156-.36.234-.64.234-.282 0-.495-.078-.641-.234a.845.845 0 01-.211-.586zm8.805 8.453c0-.391-.149-.693-.446-.906-.291-.219-.805-.407-1.539-.563-.729-.156-1.31-.344-1.742-.562-.427-.219-.745-.48-.953-.782-.203-.302-.305-.661-.305-1.078 0-.693.292-1.278.875-1.758.589-.479 1.339-.718 2.25-.718.959 0 1.734.247 2.328.742.6.495.899 1.127.899 1.898h-1.453c0-.396-.17-.737-.508-1.023-.334-.287-.755-.43-1.266-.43-.526 0-.937.115-1.234.344a1.082 1.082 0 00-.446.898c0 .349.139.612.415.789.275.177.773.347 1.492.508.724.162 1.31.354 1.757.578.448.224.78.495.993.813.218.312.328.695.328 1.148 0 .755-.302 1.362-.906 1.821-.605.453-1.389.679-2.352.679-.677 0-1.276-.12-1.797-.359-.52-.24-.93-.573-1.226-1a2.453 2.453 0 01-.438-1.399h1.445c.026.485.22.87.579 1.157.364.281.843.422 1.437.422.547 0 .984-.11 1.313-.329.333-.224.5-.52.5-.89zM80.21 152h-1.445v-8.453h1.445V152zm-1.563-10.695a.87.87 0 01.211-.594c.146-.162.36-.242.641-.242s.495.08.64.242a.852.852 0 01.22.594.827.827 0 01-.22.586c-.145.156-.359.234-.64.234s-.495-.078-.64-.234a.845.845 0 01-.212-.586zm7.274 9.672c.516 0 .966-.157 1.351-.469.386-.313.6-.703.641-1.172h1.367a2.624 2.624 0 01-.5 1.383 3.295 3.295 0 01-1.234 1.047 3.53 3.53 0 01-1.625.39c-1.151 0-2.068-.383-2.75-1.148-.677-.771-1.016-1.823-1.016-3.156v-.243c0-.823.151-1.554.453-2.195a3.457 3.457 0 011.297-1.492c.568-.354 1.237-.531 2.008-.531.948 0 1.734.283 2.36.851.63.568.966 1.305 1.007 2.211h-1.367c-.042-.547-.25-.995-.625-1.344-.37-.354-.828-.531-1.375-.531-.734 0-1.305.266-1.71.797-.402.526-.602 1.289-.602 2.289v.274c0 .973.2 1.723.601 2.25.401.526.974.789 1.719.789zM92.477 152H91.03v-8.453h1.446V152zm-1.563-10.695a.87.87 0 01.211-.594c.146-.162.36-.242.64-.242.282 0 .495.08.641.242a.852.852 0 01.219.594.827.827 0 01-.219.586c-.146.156-.36.234-.64.234-.282 0-.495-.078-.641-.234a.845.845 0 01-.21-.586zm5.25 2.242l.047 1.062c.646-.812 1.49-1.218 2.531-1.218 1.787 0 2.688 1.007 2.703 3.023V152H100v-5.594c-.005-.609-.146-1.06-.422-1.351-.27-.292-.695-.438-1.273-.438-.47 0-.88.125-1.235.375-.354.25-.63.578-.828.985V152h-1.445v-8.453h1.367zm7.117 4.156c0-1.318.305-2.364.914-3.141.61-.781 1.417-1.171 2.422-1.171 1.031 0 1.836.364 2.414 1.093l.071-.937h1.32v8.25c0 1.094-.326 1.956-.977 2.586-.646.63-1.515.945-2.609.945-.609 0-1.206-.13-1.789-.39-.583-.261-1.029-.618-1.336-1.071l.75-.867c.62.766 1.378 1.148 2.273 1.148.704 0 1.25-.197 1.641-.593.396-.396.594-.953.594-1.672v-.727c-.578.667-1.367 1-2.367 1-.99 0-1.792-.398-2.407-1.195-.609-.797-.914-1.883-.914-3.258zm1.453.164c0 .953.196 1.703.586 2.25.391.542.938.813 1.641.813.911 0 1.581-.414 2.008-1.242v-3.86c-.443-.807-1.107-1.211-1.992-1.211-.704 0-1.253.274-1.649.821-.396.546-.594 1.356-.594 2.429zm15.352 4.289c-1.146 0-2.078-.375-2.797-1.125-.719-.755-1.078-1.763-1.078-3.023v-.266c0-.838.159-1.586.477-2.242.322-.661.77-1.177 1.343-1.547a3.38 3.38 0 011.875-.562c1.099 0 1.953.362 2.563 1.086.609.724.914 1.76.914 3.109v.602h-5.727c.021.833.263 1.507.727 2.023.469.51 1.062.766 1.781.766.51 0 .943-.105 1.297-.313.354-.208.664-.484.93-.828l.882.687c-.708 1.089-1.77 1.633-3.187 1.633zm-.18-7.578a1.92 1.92 0 00-1.468.641c-.396.422-.641 1.015-.735 1.781h4.235v-.109c-.042-.735-.24-1.302-.594-1.703-.354-.407-.834-.61-1.438-.61zm6.727 7.422h-1.445v-12h1.445v12zm3.89 0h-1.445v-8.453h1.445V152zm-1.562-10.695a.87.87 0 01.211-.594c.146-.162.359-.242.64-.242.282 0 .495.08.641.242a.852.852 0 01.219.594.827.827 0 01-.219.586c-.146.156-.359.234-.641.234-.281 0-.494-.078-.64-.234a.844.844 0 01-.211-.586zm5.844.195v2.047h1.578v1.117h-1.578v5.242c0 .339.07.594.211.766.14.167.38.25.718.25.167 0 .396-.031.688-.094V152c-.38.104-.75.156-1.11.156-.645 0-1.132-.195-1.46-.586-.329-.39-.493-.945-.493-1.664v-5.242h-1.539v-1.117h1.539V141.5h1.446zm3.304 9.742c0-.25.073-.458.219-.625.151-.166.375-.25.672-.25.297 0 .521.084.672.25a.88.88 0 01.234.625c0 .24-.078.44-.234.602-.151.161-.375.242-.672.242-.297 0-.521-.081-.672-.242a.865.865 0 01-.219-.602z" fill="#2E3A59"/><g filter="url(#filter0_d)" stroke="#2E3A59" stroke-width="2"><path d="M116 43.5V29c0-13.255-10.745-24-24-24h-8C70.745 5 60 15.745 60 29v14.5"/><path d="M65 35c0-12.703 10.297-23 23-23s23 10.297 23 23v8c0 12.703-10.297 23-23 23S65 55.703 65 43v-8z"/><path d="M85.5 74.5H92c13.255 0 24-10.745 24-24V40"/><rect x="57" y="36" width="6" height="14" rx="3"/><rect x="113" y="36" width="6" height="14" rx="3"/></g><defs><filter id="filter0_d" x="52" y="0" width="80" height="87.5" filterUnits="userSpaceOnUse" color-interpolation-filters="sRGB"><feFlood flood-opacity="0" result="BackgroundImageFix"/><feColorMatrix in="SourceAlpha" values="0 0 0 0 0 0 0 0 0 0 0 0 0 0 0 0 0 0 127 0"/><feOffset dx="4" dy="4"/><feGaussianBlur stdDeviation="4"/><feColorMatrix values="0 0 0 0 0.65098 0 0 0 0 0.670588 0 0 0 0 0.741176 0 0 0 1 0"/><feBlend in2="BackgroundImageFix" result="effect1_dropShadow"/><feBlend in="SourceGraphic" in2="effect1_dropShadow" result="shape"/></filter></defs></svg>