<svg width="176" height="156" viewBox="0 0 176 156" fill="none" xmlns="http://www.w3.org/2000/svg">
<path d="M11.5703 112.773H16.9609V114H10.0625V102.625H11.5703V112.773ZM18.0625 109.695C18.0625 108.867 18.224 108.122 18.5469 107.461C18.875 106.799 19.3281 106.289 19.9062 105.93C20.4896 105.57 21.1536 105.391 21.8984 105.391C23.0495 105.391 23.9792 105.789 24.6875 106.586C25.401 107.383 25.7578 108.443 25.7578 109.766V109.867C25.7578 110.69 25.599 111.43 25.2812 112.086C24.9688 112.737 24.5182 113.245 23.9297 113.609C23.3464 113.974 22.6745 114.156 21.9141 114.156C20.7682 114.156 19.8385 113.758 19.125 112.961C18.4167 112.164 18.0625 111.109 18.0625 109.797V109.695ZM19.5156 109.867C19.5156 110.805 19.7318 111.557 20.1641 112.125C20.6016 112.693 21.1849 112.977 21.9141 112.977C22.6484 112.977 23.2318 112.69 23.6641 112.117C24.0964 111.539 24.3125 110.732 24.3125 109.695C24.3125 108.768 24.0911 108.018 23.6484 107.445C23.2109 106.867 22.6276 106.578 21.8984 106.578C21.1849 106.578 20.6094 106.862 20.1719 107.43C19.7344 107.997 19.5156 108.81 19.5156 109.867ZM31.6562 106.844C31.4375 106.807 31.2005 106.789 30.9453 106.789C29.9974 106.789 29.3542 107.193 29.0156 108V114H27.5703V105.547H28.9766L29 106.523C29.474 105.768 30.1458 105.391 31.0156 105.391C31.2969 105.391 31.5104 105.427 31.6562 105.5V106.844ZM36.3438 114.156C35.1979 114.156 34.2656 113.781 33.5469 113.031C32.8281 112.276 32.4688 111.268 32.4688 110.008V109.742C32.4688 108.904 32.6276 108.156 32.9453 107.5C33.2682 106.839 33.7161 106.323 34.2891 105.953C34.8672 105.578 35.4922 105.391 36.1641 105.391C37.263 105.391 38.1172 105.753 38.7266 106.477C39.3359 107.201 39.6406 108.237 39.6406 109.586V110.188H33.9141C33.9349 111.021 34.1771 111.695 34.6406 112.211C35.1094 112.721 35.7031 112.977 36.4219 112.977C36.9323 112.977 37.3646 112.872 37.7188 112.664C38.0729 112.456 38.3828 112.18 38.6484 111.836L39.5312 112.523C38.8229 113.612 37.7604 114.156 36.3438 114.156ZM36.1641 106.578C35.5807 106.578 35.0911 106.792 34.6953 107.219C34.2995 107.641 34.0547 108.234 33.9609 109H38.1953V108.891C38.1536 108.156 37.9557 107.589 37.6016 107.188C37.2474 106.781 36.7682 106.578 36.1641 106.578ZM42.6797 105.547L42.7188 106.484C43.3385 105.755 44.1745 105.391 45.2266 105.391C46.4089 105.391 47.2135 105.844 47.6406 106.75C47.9219 106.344 48.2865 106.016 48.7344 105.766C49.1875 105.516 49.7214 105.391 50.3359 105.391C52.1901 105.391 53.1328 106.372 53.1641 108.336V114H51.7188V108.422C51.7188 107.818 51.5807 107.367 51.3047 107.07C51.0286 106.768 50.5651 106.617 49.9141 106.617C49.3776 106.617 48.9323 106.779 48.5781 107.102C48.224 107.419 48.0182 107.849 47.9609 108.391V114H46.5078V108.461C46.5078 107.232 45.9062 106.617 44.7031 106.617C43.7552 106.617 43.1068 107.021 42.7578 107.828V114H41.3125V105.547H42.6797ZM60.8906 114H59.4453V105.547H60.8906V114ZM59.3281 103.305C59.3281 103.07 59.3984 102.872 59.5391 102.711C59.6849 102.549 59.8984 102.469 60.1797 102.469C60.4609 102.469 60.6745 102.549 60.8203 102.711C60.9661 102.872 61.0391 103.07 61.0391 103.305C61.0391 103.539 60.9661 103.734 60.8203 103.891C60.6745 104.047 60.4609 104.125 60.1797 104.125C59.8984 104.125 59.6849 104.047 59.5391 103.891C59.3984 103.734 59.3281 103.539 59.3281 103.305ZM70.3516 109.867C70.3516 111.154 70.0573 112.19 69.4688 112.977C68.8802 113.763 68.0833 114.156 67.0781 114.156C66.0521 114.156 65.2448 113.831 64.6562 113.18V117.25H63.2109V105.547H64.5312L64.6016 106.484C65.1901 105.755 66.0078 105.391 67.0547 105.391C68.0703 105.391 68.8724 105.773 69.4609 106.539C70.0547 107.305 70.3516 108.37 70.3516 109.734V109.867ZM68.9062 109.703C68.9062 108.75 68.7031 107.997 68.2969 107.445C67.8906 106.893 67.3333 106.617 66.625 106.617C65.75 106.617 65.0938 107.005 64.6562 107.781V111.82C65.0885 112.591 65.75 112.977 66.6406 112.977C67.3333 112.977 67.8828 112.703 68.2891 112.156C68.7005 111.604 68.9062 110.786 68.9062 109.703ZM77.1172 111.758C77.1172 111.367 76.9688 111.065 76.6719 110.852C76.3802 110.633 75.8672 110.445 75.1328 110.289C74.4036 110.133 73.8229 109.945 73.3906 109.727C72.9635 109.508 72.6458 109.247 72.4375 108.945C72.2344 108.643 72.1328 108.284 72.1328 107.867C72.1328 107.174 72.4245 106.589 73.0078 106.109C73.5964 105.63 74.3464 105.391 75.2578 105.391C76.2161 105.391 76.9922 105.638 77.5859 106.133C78.1849 106.628 78.4844 107.26 78.4844 108.031H77.0312C77.0312 107.635 76.862 107.294 76.5234 107.008C76.1901 106.721 75.7682 106.578 75.2578 106.578C74.7318 106.578 74.3203 106.693 74.0234 106.922C73.7266 107.151 73.5781 107.451 73.5781 107.82C73.5781 108.169 73.7161 108.432 73.9922 108.609C74.2682 108.786 74.7656 108.956 75.4844 109.117C76.2083 109.279 76.7943 109.471 77.2422 109.695C77.6901 109.919 78.0208 110.19 78.2344 110.508C78.4531 110.82 78.5625 111.203 78.5625 111.656C78.5625 112.411 78.2604 113.018 77.6562 113.477C77.0521 113.93 76.2682 114.156 75.3047 114.156C74.6276 114.156 74.0286 114.036 73.5078 113.797C72.987 113.557 72.5781 113.224 72.2812 112.797C71.9896 112.365 71.8438 111.898 71.8438 111.398H73.2891C73.3151 111.883 73.5078 112.268 73.8672 112.555C74.2318 112.836 74.7109 112.977 75.3047 112.977C75.8516 112.977 76.2891 112.867 76.6172 112.648C76.9505 112.424 77.1172 112.128 77.1172 111.758ZM85.6641 113.164C85.1016 113.826 84.276 114.156 83.1875 114.156C82.2865 114.156 81.599 113.896 81.125 113.375C80.6562 112.849 80.4193 112.073 80.4141 111.047V105.547H81.8594V111.008C81.8594 112.289 82.3802 112.93 83.4219 112.93C84.526 112.93 85.2604 112.518 85.625 111.695V105.547H87.0703V114H85.6953L85.6641 113.164ZM90.6328 105.547L90.6719 106.484C91.2917 105.755 92.1276 105.391 93.1797 105.391C94.362 105.391 95.1667 105.844 95.5938 106.75C95.875 106.344 96.2396 106.016 96.6875 105.766C97.1406 105.516 97.6745 105.391 98.2891 105.391C100.143 105.391 101.086 106.372 101.117 108.336V114H99.6719V108.422C99.6719 107.818 99.5339 107.367 99.2578 107.07C98.9818 106.768 98.5182 106.617 97.8672 106.617C97.3307 106.617 96.8854 106.779 96.5312 107.102C96.1771 107.419 95.9714 107.849 95.9141 108.391V114H94.4609V108.461C94.4609 107.232 93.8594 106.617 92.6562 106.617C91.7083 106.617 91.0599 107.021 90.7109 107.828V114H89.2656V105.547H90.6328ZM103.258 116.266L102.438 115.703C102.927 115.021 103.182 114.318 103.203 113.594V112.289H104.617V113.422C104.617 113.948 104.487 114.474 104.227 115C103.971 115.526 103.648 115.948 103.258 116.266ZM110.062 109.703C110.062 108.406 110.37 107.365 110.984 106.578C111.599 105.786 112.404 105.391 113.398 105.391C114.388 105.391 115.172 105.729 115.75 106.406V102H117.195V114H115.867L115.797 113.094C115.219 113.802 114.414 114.156 113.383 114.156C112.404 114.156 111.604 113.755 110.984 112.953C110.37 112.151 110.062 111.104 110.062 109.812V109.703ZM111.508 109.867C111.508 110.826 111.706 111.576 112.102 112.117C112.497 112.659 113.044 112.93 113.742 112.93C114.659 112.93 115.328 112.518 115.75 111.695V107.812C115.318 107.016 114.654 106.617 113.758 106.617C113.049 106.617 112.497 106.891 112.102 107.438C111.706 107.984 111.508 108.794 111.508 109.867ZM119.062 109.695C119.062 108.867 119.224 108.122 119.547 107.461C119.875 106.799 120.328 106.289 120.906 105.93C121.49 105.57 122.154 105.391 122.898 105.391C124.049 105.391 124.979 105.789 125.688 106.586C126.401 107.383 126.758 108.443 126.758 109.766V109.867C126.758 110.69 126.599 111.43 126.281 112.086C125.969 112.737 125.518 113.245 124.93 113.609C124.346 113.974 123.674 114.156 122.914 114.156C121.768 114.156 120.839 113.758 120.125 112.961C119.417 112.164 119.062 111.109 119.062 109.797V109.695ZM120.516 109.867C120.516 110.805 120.732 111.557 121.164 112.125C121.602 112.693 122.185 112.977 122.914 112.977C123.648 112.977 124.232 112.69 124.664 112.117C125.096 111.539 125.312 110.732 125.312 109.695C125.312 108.768 125.091 108.018 124.648 107.445C124.211 106.867 123.628 106.578 122.898 106.578C122.185 106.578 121.609 106.862 121.172 107.43C120.734 107.997 120.516 108.81 120.516 109.867ZM130.141 114H128.695V102H130.141V114ZM132.078 109.695C132.078 108.867 132.24 108.122 132.562 107.461C132.891 106.799 133.344 106.289 133.922 105.93C134.505 105.57 135.169 105.391 135.914 105.391C137.065 105.391 137.995 105.789 138.703 106.586C139.417 107.383 139.773 108.443 139.773 109.766V109.867C139.773 110.69 139.615 111.43 139.297 112.086C138.984 112.737 138.534 113.245 137.945 113.609C137.362 113.974 136.69 114.156 135.93 114.156C134.784 114.156 133.854 113.758 133.141 112.961C132.432 112.164 132.078 111.109 132.078 109.797V109.695ZM133.531 109.867C133.531 110.805 133.747 111.557 134.18 112.125C134.617 112.693 135.201 112.977 135.93 112.977C136.664 112.977 137.247 112.69 137.68 112.117C138.112 111.539 138.328 110.732 138.328 109.695C138.328 108.768 138.107 108.018 137.664 107.445C137.227 106.867 136.643 106.578 135.914 106.578C135.201 106.578 134.625 106.862 134.188 107.43C133.75 107.997 133.531 108.81 133.531 109.867ZM145.672 106.844C145.453 106.807 145.216 106.789 144.961 106.789C144.013 106.789 143.37 107.193 143.031 108V114H141.586V105.547H142.992L143.016 106.523C143.49 105.768 144.161 105.391 145.031 105.391C145.312 105.391 145.526 105.427 145.672 105.5V106.844ZM155.898 111.758C155.898 111.367 155.75 111.065 155.453 110.852C155.161 110.633 154.648 110.445 153.914 110.289C153.185 110.133 152.604 109.945 152.172 109.727C151.745 109.508 151.427 109.247 151.219 108.945C151.016 108.643 150.914 108.284 150.914 107.867C150.914 107.174 151.206 106.589 151.789 106.109C152.378 105.63 153.128 105.391 154.039 105.391C154.997 105.391 155.773 105.638 156.367 106.133C156.966 106.628 157.266 107.26 157.266 108.031H155.812C155.812 107.635 155.643 107.294 155.305 107.008C154.971 106.721 154.549 106.578 154.039 106.578C153.513 106.578 153.102 106.693 152.805 106.922C152.508 107.151 152.359 107.451 152.359 107.82C152.359 108.169 152.497 108.432 152.773 108.609C153.049 108.786 153.547 108.956 154.266 109.117C154.99 109.279 155.576 109.471 156.023 109.695C156.471 109.919 156.802 110.19 157.016 110.508C157.234 110.82 157.344 111.203 157.344 111.656C157.344 112.411 157.042 113.018 156.438 113.477C155.833 113.93 155.049 114.156 154.086 114.156C153.409 114.156 152.81 114.036 152.289 113.797C151.768 113.557 151.359 113.224 151.062 112.797C150.771 112.365 150.625 111.898 150.625 111.398H152.07C152.096 111.883 152.289 112.268 152.648 112.555C153.013 112.836 153.492 112.977 154.086 112.977C154.633 112.977 155.07 112.867 155.398 112.648C155.732 112.424 155.898 112.128 155.898 111.758ZM160.797 114H159.352V105.547H160.797V114ZM159.234 103.305C159.234 103.07 159.305 102.872 159.445 102.711C159.591 102.549 159.805 102.469 160.086 102.469C160.367 102.469 160.581 102.549 160.727 102.711C160.872 102.872 160.945 103.07 160.945 103.305C160.945 103.539 160.872 103.734 160.727 103.891C160.581 104.047 160.367 104.125 160.086 104.125C159.805 104.125 159.591 104.047 159.445 103.891C159.305 103.734 159.234 103.539 159.234 103.305ZM165.078 103.5V105.547H166.656V106.664H165.078V111.906C165.078 112.245 165.148 112.5 165.289 112.672C165.43 112.839 165.669 112.922 166.008 112.922C166.174 112.922 166.404 112.891 166.695 112.828V114C166.315 114.104 165.945 114.156 165.586 114.156C164.94 114.156 164.453 113.961 164.125 113.57C163.797 113.18 163.633 112.625 163.633 111.906V106.664H162.094V105.547H163.633V103.5H165.078ZM31.7812 133C31.6979 132.833 31.6302 132.536 31.5781 132.109C30.9062 132.807 30.1042 133.156 29.1719 133.156C28.3385 133.156 27.6536 132.922 27.1172 132.453C26.5859 131.979 26.3203 131.38 26.3203 130.656C26.3203 129.776 26.6536 129.094 27.3203 128.609C27.9922 128.12 28.9349 127.875 30.1484 127.875H31.5547V127.211C31.5547 126.706 31.4036 126.305 31.1016 126.008C30.7995 125.706 30.3542 125.555 29.7656 125.555C29.25 125.555 28.8177 125.685 28.4688 125.945C28.1198 126.206 27.9453 126.521 27.9453 126.891H26.4922C26.4922 126.469 26.6406 126.062 26.9375 125.672C27.2396 125.276 27.6458 124.964 28.1562 124.734C28.6719 124.505 29.237 124.391 29.8516 124.391C30.8255 124.391 31.5885 124.635 32.1406 125.125C32.6927 125.609 32.9792 126.279 33 127.133V131.023C33 131.799 33.099 132.417 33.2969 132.875V133H31.7812ZM29.3828 131.898C29.8359 131.898 30.2656 131.781 30.6719 131.547C31.0781 131.312 31.3724 131.008 31.5547 130.633V128.898H30.4219C28.651 128.898 27.7656 129.417 27.7656 130.453C27.7656 130.906 27.9167 131.26 28.2188 131.516C28.5208 131.771 28.9089 131.898 29.3828 131.898ZM36.625 124.547L36.6641 125.484C37.2839 124.755 38.1198 124.391 39.1719 124.391C40.3542 124.391 41.1589 124.844 41.5859 125.75C41.8672 125.344 42.2318 125.016 42.6797 124.766C43.1328 124.516 43.6667 124.391 44.2812 124.391C46.1354 124.391 47.0781 125.372 47.1094 127.336V133H45.6641V127.422C45.6641 126.818 45.526 126.367 45.25 126.07C44.974 125.768 44.5104 125.617 43.8594 125.617C43.3229 125.617 42.8776 125.779 42.5234 126.102C42.1693 126.419 41.9635 126.849 41.9062 127.391V133H40.4531V127.461C40.4531 126.232 39.8516 125.617 38.6484 125.617C37.7005 125.617 37.0521 126.021 36.7031 126.828V133H35.2578V124.547H36.625ZM52.8047 133.156C51.6589 133.156 50.7266 132.781 50.0078 132.031C49.2891 131.276 48.9297 130.268 48.9297 129.008V128.742C48.9297 127.904 49.0885 127.156 49.4062 126.5C49.7292 125.839 50.1771 125.323 50.75 124.953C51.3281 124.578 51.9531 124.391 52.625 124.391C53.724 124.391 54.5781 124.753 55.1875 125.477C55.7969 126.201 56.1016 127.237 56.1016 128.586V129.188H50.375C50.3958 130.021 50.638 130.695 51.1016 131.211C51.5703 131.721 52.1641 131.977 52.8828 131.977C53.3932 131.977 53.8255 131.872 54.1797 131.664C54.5339 131.456 54.8438 131.18 55.1094 130.836L55.9922 131.523C55.2839 132.612 54.2214 133.156 52.8047 133.156ZM52.625 125.578C52.0417 125.578 51.5521 125.792 51.1562 126.219C50.7604 126.641 50.5156 127.234 50.4219 128H54.6562V127.891C54.6146 127.156 54.4167 126.589 54.0625 126.188C53.7083 125.781 53.2292 125.578 52.625 125.578ZM59.7422 122.5V124.547H61.3203V125.664H59.7422V130.906C59.7422 131.245 59.8125 131.5 59.9531 131.672C60.0938 131.839 60.3333 131.922 60.6719 131.922C60.8385 131.922 61.0677 131.891 61.3594 131.828V133C60.9792 133.104 60.6094 133.156 60.25 133.156C59.6042 133.156 59.1172 132.961 58.7891 132.57C58.4609 132.18 58.2969 131.625 58.2969 130.906V125.664H56.7578V124.547H58.2969V122.5H59.7422ZM70.375 131.977C70.8906 131.977 71.3411 131.82 71.7266 131.508C72.112 131.195 72.3255 130.805 72.3672 130.336H73.7344C73.7083 130.82 73.5417 131.281 73.2344 131.719C72.9271 132.156 72.5156 132.505 72 132.766C71.4896 133.026 70.9479 133.156 70.375 133.156C69.224 133.156 68.3073 132.773 67.625 132.008C66.9479 131.237 66.6094 130.185 66.6094 128.852V128.609C66.6094 127.786 66.7604 127.055 67.0625 126.414C67.3646 125.773 67.7969 125.276 68.3594 124.922C68.9271 124.568 69.5964 124.391 70.3672 124.391C71.3151 124.391 72.1016 124.674 72.7266 125.242C73.3568 125.81 73.6927 126.547 73.7344 127.453H72.3672C72.3255 126.906 72.1172 126.458 71.7422 126.109C71.3724 125.755 70.9141 125.578 70.3672 125.578C69.6328 125.578 69.0625 125.844 68.6562 126.375C68.2552 126.901 68.0547 127.664 68.0547 128.664V128.938C68.0547 129.911 68.2552 130.661 68.6562 131.188C69.0573 131.714 69.6302 131.977 70.375 131.977ZM74.9766 128.695C74.9766 127.867 75.138 127.122 75.4609 126.461C75.7891 125.799 76.2422 125.289 76.8203 124.93C77.4036 124.57 78.0677 124.391 78.8125 124.391C79.9635 124.391 80.8932 124.789 81.6016 125.586C82.3151 126.383 82.6719 127.443 82.6719 128.766V128.867C82.6719 129.69 82.513 130.43 82.1953 131.086C81.8828 131.737 81.4323 132.245 80.8438 132.609C80.2604 132.974 79.5885 133.156 78.8281 133.156C77.6823 133.156 76.7526 132.758 76.0391 131.961C75.3307 131.164 74.9766 130.109 74.9766 128.797V128.695ZM76.4297 128.867C76.4297 129.805 76.6458 130.557 77.0781 131.125C77.5156 131.693 78.099 131.977 78.8281 131.977C79.5625 131.977 80.1458 131.69 80.5781 131.117C81.0104 130.539 81.2266 129.732 81.2266 128.695C81.2266 127.768 81.0052 127.018 80.5625 126.445C80.125 125.867 79.5417 125.578 78.8125 125.578C78.099 125.578 77.5234 125.862 77.0859 126.43C76.6484 126.997 76.4297 127.81 76.4297 128.867ZM85.8516 124.547L85.8984 125.609C86.5443 124.797 87.388 124.391 88.4297 124.391C90.2161 124.391 91.1172 125.398 91.1328 127.414V133H89.6875V127.406C89.6823 126.797 89.5417 126.346 89.2656 126.055C88.9948 125.763 88.5703 125.617 87.9922 125.617C87.5234 125.617 87.112 125.742 86.7578 125.992C86.4036 126.242 86.1276 126.57 85.9297 126.977V133H84.4844V124.547H85.8516ZM98.2344 130.758C98.2344 130.367 98.0859 130.065 97.7891 129.852C97.4974 129.633 96.9844 129.445 96.25 129.289C95.5208 129.133 94.9401 128.945 94.5078 128.727C94.0807 128.508 93.763 128.247 93.5547 127.945C93.3516 127.643 93.25 127.284 93.25 126.867C93.25 126.174 93.5417 125.589 94.125 125.109C94.7135 124.63 95.4635 124.391 96.375 124.391C97.3333 124.391 98.1094 124.638 98.7031 125.133C99.3021 125.628 99.6016 126.26 99.6016 127.031H98.1484C98.1484 126.635 97.9792 126.294 97.6406 126.008C97.3073 125.721 96.8854 125.578 96.375 125.578C95.849 125.578 95.4375 125.693 95.1406 125.922C94.8438 126.151 94.6953 126.451 94.6953 126.82C94.6953 127.169 94.8333 127.432 95.1094 127.609C95.3854 127.786 95.8828 127.956 96.6016 128.117C97.3255 128.279 97.9115 128.471 98.3594 128.695C98.8073 128.919 99.138 129.19 99.3516 129.508C99.5703 129.82 99.6797 130.203 99.6797 130.656C99.6797 131.411 99.3776 132.018 98.7734 132.477C98.1693 132.93 97.3854 133.156 96.4219 133.156C95.7448 133.156 95.1458 133.036 94.625 132.797C94.1042 132.557 93.6953 132.224 93.3984 131.797C93.1068 131.365 92.9609 130.898 92.9609 130.398H94.4062C94.4323 130.883 94.625 131.268 94.9844 131.555C95.349 131.836 95.8281 131.977 96.4219 131.977C96.9688 131.977 97.4062 131.867 97.7344 131.648C98.0677 131.424 98.2344 131.128 98.2344 130.758ZM105.07 133.156C103.924 133.156 102.992 132.781 102.273 132.031C101.555 131.276 101.195 130.268 101.195 129.008V128.742C101.195 127.904 101.354 127.156 101.672 126.5C101.995 125.839 102.443 125.323 103.016 124.953C103.594 124.578 104.219 124.391 104.891 124.391C105.99 124.391 106.844 124.753 107.453 125.477C108.062 126.201 108.367 127.237 108.367 128.586V129.188H102.641C102.661 130.021 102.904 130.695 103.367 131.211C103.836 131.721 104.43 131.977 105.148 131.977C105.659 131.977 106.091 131.872 106.445 131.664C106.799 131.456 107.109 131.18 107.375 130.836L108.258 131.523C107.549 132.612 106.487 133.156 105.07 133.156ZM104.891 125.578C104.307 125.578 103.818 125.792 103.422 126.219C103.026 126.641 102.781 127.234 102.688 128H106.922V127.891C106.88 127.156 106.682 126.589 106.328 126.188C105.974 125.781 105.495 125.578 104.891 125.578ZM113.438 131.977C113.953 131.977 114.404 131.82 114.789 131.508C115.174 131.195 115.388 130.805 115.43 130.336H116.797C116.771 130.82 116.604 131.281 116.297 131.719C115.99 132.156 115.578 132.505 115.062 132.766C114.552 133.026 114.01 133.156 113.438 133.156C112.286 133.156 111.37 132.773 110.688 132.008C110.01 131.237 109.672 130.185 109.672 128.852V128.609C109.672 127.786 109.823 127.055 110.125 126.414C110.427 125.773 110.859 125.276 111.422 124.922C111.99 124.568 112.659 124.391 113.43 124.391C114.378 124.391 115.164 124.674 115.789 125.242C116.419 125.81 116.755 126.547 116.797 127.453H115.43C115.388 126.906 115.18 126.458 114.805 126.109C114.435 125.755 113.977 125.578 113.43 125.578C112.695 125.578 112.125 125.844 111.719 126.375C111.318 126.901 111.117 127.664 111.117 128.664V128.938C111.117 129.911 111.318 130.661 111.719 131.188C112.12 131.714 112.693 131.977 113.438 131.977ZM120.383 122.5V124.547H121.961V125.664H120.383V130.906C120.383 131.245 120.453 131.5 120.594 131.672C120.734 131.839 120.974 131.922 121.312 131.922C121.479 131.922 121.708 131.891 122 131.828V133C121.62 133.104 121.25 133.156 120.891 133.156C120.245 133.156 119.758 132.961 119.43 132.57C119.102 132.18 118.938 131.625 118.938 130.906V125.664H117.398V124.547H118.938V122.5H120.383ZM127.164 133.156C126.018 133.156 125.086 132.781 124.367 132.031C123.648 131.276 123.289 130.268 123.289 129.008V128.742C123.289 127.904 123.448 127.156 123.766 126.5C124.089 125.839 124.536 125.323 125.109 124.953C125.688 124.578 126.312 124.391 126.984 124.391C128.083 124.391 128.938 124.753 129.547 125.477C130.156 126.201 130.461 127.237 130.461 128.586V129.188H124.734C124.755 130.021 124.997 130.695 125.461 131.211C125.93 131.721 126.523 131.977 127.242 131.977C127.753 131.977 128.185 131.872 128.539 131.664C128.893 131.456 129.203 131.18 129.469 130.836L130.352 131.523C129.643 132.612 128.581 133.156 127.164 133.156ZM126.984 125.578C126.401 125.578 125.911 125.792 125.516 126.219C125.12 126.641 124.875 127.234 124.781 128H129.016V127.891C128.974 127.156 128.776 126.589 128.422 126.188C128.068 125.781 127.589 125.578 126.984 125.578ZM134.102 122.5V124.547H135.68V125.664H134.102V130.906C134.102 131.245 134.172 131.5 134.312 131.672C134.453 131.839 134.693 131.922 135.031 131.922C135.198 131.922 135.427 131.891 135.719 131.828V133C135.339 133.104 134.969 133.156 134.609 133.156C133.964 133.156 133.477 132.961 133.148 132.57C132.82 132.18 132.656 131.625 132.656 130.906V125.664H131.117V124.547H132.656V122.5H134.102ZM142.594 132.164C142.031 132.826 141.206 133.156 140.117 133.156C139.216 133.156 138.529 132.896 138.055 132.375C137.586 131.849 137.349 131.073 137.344 130.047V124.547H138.789V130.008C138.789 131.289 139.31 131.93 140.352 131.93C141.456 131.93 142.19 131.518 142.555 130.695V124.547H144V133H142.625L142.594 132.164ZM150.289 125.844C150.07 125.807 149.833 125.789 149.578 125.789C148.63 125.789 147.987 126.193 147.648 127V133H146.203V124.547H147.609L147.633 125.523C148.107 124.768 148.779 124.391 149.648 124.391C149.93 124.391 150.143 124.427 150.289 124.5V125.844ZM41.1094 152C41.026 151.833 40.9583 151.536 40.9062 151.109C40.2344 151.807 39.4323 152.156 38.5 152.156C37.6667 152.156 36.9818 151.922 36.4453 151.453C35.9141 150.979 35.6484 150.38 35.6484 149.656C35.6484 148.776 35.9818 148.094 36.6484 147.609C37.3203 147.12 38.263 146.875 39.4766 146.875H40.8828V146.211C40.8828 145.706 40.7318 145.305 40.4297 145.008C40.1276 144.706 39.6823 144.555 39.0938 144.555C38.5781 144.555 38.1458 144.685 37.7969 144.945C37.4479 145.206 37.2734 145.521 37.2734 145.891H35.8203C35.8203 145.469 35.9688 145.062 36.2656 144.672C36.5677 144.276 36.974 143.964 37.4844 143.734C38 143.505 38.5651 143.391 39.1797 143.391C40.1536 143.391 40.9167 143.635 41.4688 144.125C42.0208 144.609 42.3073 145.279 42.3281 146.133V150.023C42.3281 150.799 42.4271 151.417 42.625 151.875V152H41.1094ZM38.7109 150.898C39.1641 150.898 39.5938 150.781 40 150.547C40.4062 150.312 40.7005 150.008 40.8828 149.633V147.898H39.75C37.9792 147.898 37.0938 148.417 37.0938 149.453C37.0938 149.906 37.2448 150.26 37.5469 150.516C37.849 150.771 38.237 150.898 38.7109 150.898ZM44.2422 147.703C44.2422 146.406 44.5495 145.365 45.1641 144.578C45.7786 143.786 46.5833 143.391 47.5781 143.391C48.5677 143.391 49.3516 143.729 49.9297 144.406V140H51.375V152H50.0469L49.9766 151.094C49.3984 151.802 48.5938 152.156 47.5625 152.156C46.5833 152.156 45.7839 151.755 45.1641 150.953C44.5495 150.151 44.2422 149.104 44.2422 147.812V147.703ZM45.6875 147.867C45.6875 148.826 45.8854 149.576 46.2812 150.117C46.6771 150.659 47.224 150.93 47.9219 150.93C48.8385 150.93 49.5078 150.518 49.9297 149.695V145.812C49.4974 145.016 48.8333 144.617 47.9375 144.617C47.2292 144.617 46.6771 144.891 46.2812 145.438C45.8854 145.984 45.6875 146.794 45.6875 147.867ZM55.1953 152H53.75V143.547H55.1953V152ZM53.6328 141.305C53.6328 141.07 53.7031 140.872 53.8438 140.711C53.9896 140.549 54.2031 140.469 54.4844 140.469C54.7656 140.469 54.9792 140.549 55.125 140.711C55.2708 140.872 55.3438 141.07 55.3438 141.305C55.3438 141.539 55.2708 141.734 55.125 141.891C54.9792 142.047 54.7656 142.125 54.4844 142.125C54.2031 142.125 53.9896 142.047 53.8438 141.891C53.7031 141.734 53.6328 141.539 53.6328 141.305ZM64.6562 147.867C64.6562 149.154 64.362 150.19 63.7734 150.977C63.1849 151.763 62.388 152.156 61.3828 152.156C60.3568 152.156 59.5495 151.831 58.9609 151.18V155.25H57.5156V143.547H58.8359L58.9062 144.484C59.4948 143.755 60.3125 143.391 61.3594 143.391C62.375 143.391 63.1771 143.773 63.7656 144.539C64.3594 145.305 64.6562 146.37 64.6562 147.734V147.867ZM63.2109 147.703C63.2109 146.75 63.0078 145.997 62.6016 145.445C62.1953 144.893 61.638 144.617 60.9297 144.617C60.0547 144.617 59.3984 145.005 58.9609 145.781V149.82C59.3932 150.591 60.0547 150.977 60.9453 150.977C61.638 150.977 62.1875 150.703 62.5938 150.156C63.0052 149.604 63.2109 148.786 63.2109 147.703ZM68.0703 152H66.625V143.547H68.0703V152ZM66.5078 141.305C66.5078 141.07 66.5781 140.872 66.7188 140.711C66.8646 140.549 67.0781 140.469 67.3594 140.469C67.6406 140.469 67.8542 140.549 68 140.711C68.1458 140.872 68.2188 141.07 68.2188 141.305C68.2188 141.539 68.1458 141.734 68 141.891C67.8542 142.047 67.6406 142.125 67.3594 142.125C67.0781 142.125 66.8646 142.047 66.7188 141.891C66.5781 141.734 66.5078 141.539 66.5078 141.305ZM75.3125 149.758C75.3125 149.367 75.1641 149.065 74.8672 148.852C74.5755 148.633 74.0625 148.445 73.3281 148.289C72.599 148.133 72.0182 147.945 71.5859 147.727C71.1589 147.508 70.8411 147.247 70.6328 146.945C70.4297 146.643 70.3281 146.284 70.3281 145.867C70.3281 145.174 70.6198 144.589 71.2031 144.109C71.7917 143.63 72.5417 143.391 73.4531 143.391C74.4115 143.391 75.1875 143.638 75.7812 144.133C76.3802 144.628 76.6797 145.26 76.6797 146.031H75.2266C75.2266 145.635 75.0573 145.294 74.7188 145.008C74.3854 144.721 73.9635 144.578 73.4531 144.578C72.9271 144.578 72.5156 144.693 72.2188 144.922C71.9219 145.151 71.7734 145.451 71.7734 145.82C71.7734 146.169 71.9115 146.432 72.1875 146.609C72.4635 146.786 72.9609 146.956 73.6797 147.117C74.4036 147.279 74.9896 147.471 75.4375 147.695C75.8854 147.919 76.2161 148.19 76.4297 148.508C76.6484 148.82 76.7578 149.203 76.7578 149.656C76.7578 150.411 76.4557 151.018 75.8516 151.477C75.2474 151.93 74.4635 152.156 73.5 152.156C72.8229 152.156 72.224 152.036 71.7031 151.797C71.1823 151.557 70.7734 151.224 70.4766 150.797C70.1849 150.365 70.0391 149.898 70.0391 149.398H71.4844C71.5104 149.883 71.7031 150.268 72.0625 150.555C72.4271 150.836 72.9062 150.977 73.5 150.977C74.0469 150.977 74.4844 150.867 74.8125 150.648C75.1458 150.424 75.3125 150.128 75.3125 149.758ZM80.2109 152H78.7656V143.547H80.2109V152ZM78.6484 141.305C78.6484 141.07 78.7188 140.872 78.8594 140.711C79.0052 140.549 79.2188 140.469 79.5 140.469C79.7812 140.469 79.9948 140.549 80.1406 140.711C80.2865 140.872 80.3594 141.07 80.3594 141.305C80.3594 141.539 80.2865 141.734 80.1406 141.891C79.9948 142.047 79.7812 142.125 79.5 142.125C79.2188 142.125 79.0052 142.047 78.8594 141.891C78.7188 141.734 78.6484 141.539 78.6484 141.305ZM85.9219 150.977C86.4375 150.977 86.888 150.82 87.2734 150.508C87.6589 150.195 87.8724 149.805 87.9141 149.336H89.2812C89.2552 149.82 89.0885 150.281 88.7812 150.719C88.474 151.156 88.0625 151.505 87.5469 151.766C87.0365 152.026 86.4948 152.156 85.9219 152.156C84.7708 152.156 83.8542 151.773 83.1719 151.008C82.4948 150.237 82.1562 149.185 82.1562 147.852V147.609C82.1562 146.786 82.3073 146.055 82.6094 145.414C82.9115 144.773 83.3438 144.276 83.9062 143.922C84.474 143.568 85.1432 143.391 85.9141 143.391C86.862 143.391 87.6484 143.674 88.2734 144.242C88.9036 144.81 89.2396 145.547 89.2812 146.453H87.9141C87.8724 145.906 87.6641 145.458 87.2891 145.109C86.9193 144.755 86.4609 144.578 85.9141 144.578C85.1797 144.578 84.6094 144.844 84.2031 145.375C83.8021 145.901 83.6016 146.664 83.6016 147.664V147.938C83.6016 148.911 83.8021 149.661 84.2031 150.188C84.6042 150.714 85.1771 150.977 85.9219 150.977ZM92.4766 152H91.0312V143.547H92.4766V152ZM90.9141 141.305C90.9141 141.07 90.9844 140.872 91.125 140.711C91.2708 140.549 91.4844 140.469 91.7656 140.469C92.0469 140.469 92.2604 140.549 92.4062 140.711C92.5521 140.872 92.625 141.07 92.625 141.305C92.625 141.539 92.5521 141.734 92.4062 141.891C92.2604 142.047 92.0469 142.125 91.7656 142.125C91.4844 142.125 91.2708 142.047 91.125 141.891C90.9844 141.734 90.9141 141.539 90.9141 141.305ZM96.1641 143.547L96.2109 144.609C96.8568 143.797 97.7005 143.391 98.7422 143.391C100.529 143.391 101.43 144.398 101.445 146.414V152H100V146.406C99.9948 145.797 99.8542 145.346 99.5781 145.055C99.3073 144.763 98.8828 144.617 98.3047 144.617C97.8359 144.617 97.4245 144.742 97.0703 144.992C96.7161 145.242 96.4401 145.57 96.2422 145.977V152H94.7969V143.547H96.1641ZM103.281 147.703C103.281 146.385 103.586 145.339 104.195 144.562C104.805 143.781 105.612 143.391 106.617 143.391C107.648 143.391 108.453 143.755 109.031 144.484L109.102 143.547H110.422V151.797C110.422 152.891 110.096 153.753 109.445 154.383C108.799 155.013 107.93 155.328 106.836 155.328C106.227 155.328 105.63 155.198 105.047 154.938C104.464 154.677 104.018 154.32 103.711 153.867L104.461 153C105.081 153.766 105.839 154.148 106.734 154.148C107.438 154.148 107.984 153.951 108.375 153.555C108.771 153.159 108.969 152.602 108.969 151.883V151.156C108.391 151.823 107.602 152.156 106.602 152.156C105.612 152.156 104.81 151.758 104.195 150.961C103.586 150.164 103.281 149.078 103.281 147.703ZM104.734 147.867C104.734 148.82 104.93 149.57 105.32 150.117C105.711 150.659 106.258 150.93 106.961 150.93C107.872 150.93 108.542 150.516 108.969 149.688V145.828C108.526 145.021 107.862 144.617 106.977 144.617C106.273 144.617 105.724 144.891 105.328 145.438C104.932 145.984 104.734 146.794 104.734 147.867ZM120.086 152.156C118.94 152.156 118.008 151.781 117.289 151.031C116.57 150.276 116.211 149.268 116.211 148.008V147.742C116.211 146.904 116.37 146.156 116.688 145.5C117.01 144.839 117.458 144.323 118.031 143.953C118.609 143.578 119.234 143.391 119.906 143.391C121.005 143.391 121.859 143.753 122.469 144.477C123.078 145.201 123.383 146.237 123.383 147.586V148.188H117.656C117.677 149.021 117.919 149.695 118.383 150.211C118.852 150.721 119.445 150.977 120.164 150.977C120.674 150.977 121.107 150.872 121.461 150.664C121.815 150.456 122.125 150.18 122.391 149.836L123.273 150.523C122.565 151.612 121.503 152.156 120.086 152.156ZM119.906 144.578C119.323 144.578 118.833 144.792 118.438 145.219C118.042 145.641 117.797 146.234 117.703 147H121.938V146.891C121.896 146.156 121.698 145.589 121.344 145.188C120.99 144.781 120.51 144.578 119.906 144.578ZM126.633 152H125.188V140H126.633V152ZM130.523 152H129.078V143.547H130.523V152ZM128.961 141.305C128.961 141.07 129.031 140.872 129.172 140.711C129.318 140.549 129.531 140.469 129.812 140.469C130.094 140.469 130.307 140.549 130.453 140.711C130.599 140.872 130.672 141.07 130.672 141.305C130.672 141.539 130.599 141.734 130.453 141.891C130.307 142.047 130.094 142.125 129.812 142.125C129.531 142.125 129.318 142.047 129.172 141.891C129.031 141.734 128.961 141.539 128.961 141.305ZM134.805 141.5V143.547H136.383V144.664H134.805V149.906C134.805 150.245 134.875 150.5 135.016 150.672C135.156 150.839 135.396 150.922 135.734 150.922C135.901 150.922 136.13 150.891 136.422 150.828V152C136.042 152.104 135.672 152.156 135.312 152.156C134.667 152.156 134.18 151.961 133.852 151.57C133.523 151.18 133.359 150.625 133.359 149.906V144.664H131.82V143.547H133.359V141.5H134.805ZM138.109 151.242C138.109 150.992 138.182 150.784 138.328 150.617C138.479 150.451 138.703 150.367 139 150.367C139.297 150.367 139.521 150.451 139.672 150.617C139.828 150.784 139.906 150.992 139.906 151.242C139.906 151.482 139.828 151.682 139.672 151.844C139.521 152.005 139.297 152.086 139 152.086C138.703 152.086 138.479 152.005 138.328 151.844C138.182 151.682 138.109 151.482 138.109 151.242Z" fill="#2E3A59"/>
<g filter="url(#filter0_d)">
<path d="M116 43.5V29C116 15.7452 105.255 5 92 5H84C70.7452 5 60 15.7452 60 29V43.5" stroke="#2E3A59" stroke-width="2"/>
<path d="M65 35C65 22.2975 75.2975 12 88 12C100.703 12 111 22.2975 111 35V43C111 55.7025 100.703 66 88 66C75.2975 66 65 55.7025 65 43V35Z" stroke="#2E3A59" stroke-width="2"/>
<path d="M85.5 74.5L92 74.5C105.255 74.5 116 63.7548 116 50.5L116 40" stroke="#2E3A59" stroke-width="2"/>
<rect x="57" y="36" width="6" height="14" rx="3" stroke="#2E3A59" stroke-width="2"/>
<rect x="113" y="36" width="6" height="14" rx="3" stroke="#2E3A59" stroke-width="2"/>
</g>
<defs>
<filter id="filter0_d" x="52" y="0" width="80" height="87.5" filterUnits="userSpaceOnUse" color-interpolation-filters="sRGB">
<feFlood flood-opacity="0" result="BackgroundImageFix"/>
<feColorMatrix in="SourceAlpha" type="matrix" values="0 0 0 0 0 0 0 0 0 0 0 0 0 0 0 0 0 0 127 0"/>
<feOffset dx="4" dy="4"/>
<feGaussianBlur stdDeviation="4"/>
<feColorMatrix type="matrix" values="0 0 0 0 0.65098 0 0 0 0 0.670588 0 0 0 0 0.741176 0 0 0 1 0"/>
<feBlend mode="normal" in2="BackgroundImageFix" result="effect1_dropShadow"/>
<feBlend mode="normal" in="SourceGraphic" in2="effect1_dropShadow" result="shape"/>
</filter>
</defs>
</svg>
