<svg width="187" height="155" viewBox="0 0 187 155" fill="none" xmlns="http://www.w3.org/2000/svg">
<path d="M17.0703 111.773H22.4609V113H15.5625V101.625H17.0703V111.773ZM23.5625 108.695C23.5625 107.867 23.724 107.122 24.0469 106.461C24.375 105.799 24.8281 105.289 25.4062 104.93C25.9896 104.57 26.6536 104.391 27.3984 104.391C28.5495 104.391 29.4792 104.789 30.1875 105.586C30.901 106.383 31.2578 107.443 31.2578 108.766V108.867C31.2578 109.69 31.099 110.43 30.7812 111.086C30.4688 111.737 30.0182 112.245 29.4297 112.609C28.8464 112.974 28.1745 113.156 27.4141 113.156C26.2682 113.156 25.3385 112.758 24.625 111.961C23.9167 111.164 23.5625 110.109 23.5625 108.797V108.695ZM25.0156 108.867C25.0156 109.805 25.2318 110.557 25.6641 111.125C26.1016 111.693 26.6849 111.977 27.4141 111.977C28.1484 111.977 28.7318 111.69 29.1641 111.117C29.5964 110.539 29.8125 109.732 29.8125 108.695C29.8125 107.768 29.5911 107.018 29.1484 106.445C28.7109 105.867 28.1276 105.578 27.3984 105.578C26.6849 105.578 26.1094 105.862 25.6719 106.43C25.2344 106.997 25.0156 107.81 25.0156 108.867ZM37.1562 105.844C36.9375 105.807 36.7005 105.789 36.4453 105.789C35.4974 105.789 34.8542 106.193 34.5156 107V113H33.0703V104.547H34.4766L34.5 105.523C34.974 104.768 35.6458 104.391 36.5156 104.391C36.7969 104.391 37.0104 104.427 37.1562 104.5V105.844ZM41.8438 113.156C40.6979 113.156 39.7656 112.781 39.0469 112.031C38.3281 111.276 37.9688 110.268 37.9688 109.008V108.742C37.9688 107.904 38.1276 107.156 38.4453 106.5C38.7682 105.839 39.2161 105.323 39.7891 104.953C40.3672 104.578 40.9922 104.391 41.6641 104.391C42.763 104.391 43.6172 104.753 44.2266 105.477C44.8359 106.201 45.1406 107.237 45.1406 108.586V109.188H39.4141C39.4349 110.021 39.6771 110.695 40.1406 111.211C40.6094 111.721 41.2031 111.977 41.9219 111.977C42.4323 111.977 42.8646 111.872 43.2188 111.664C43.5729 111.456 43.8828 111.18 44.1484 110.836L45.0312 111.523C44.3229 112.612 43.2604 113.156 41.8438 113.156ZM41.6641 105.578C41.0807 105.578 40.5911 105.792 40.1953 106.219C39.7995 106.641 39.5547 107.234 39.4609 108H43.6953V107.891C43.6536 107.156 43.4557 106.589 43.1016 106.188C42.7474 105.781 42.2682 105.578 41.6641 105.578ZM48.1797 104.547L48.2188 105.484C48.8385 104.755 49.6745 104.391 50.7266 104.391C51.9089 104.391 52.7135 104.844 53.1406 105.75C53.4219 105.344 53.7865 105.016 54.2344 104.766C54.6875 104.516 55.2214 104.391 55.8359 104.391C57.6901 104.391 58.6328 105.372 58.6641 107.336V113H57.2188V107.422C57.2188 106.818 57.0807 106.367 56.8047 106.07C56.5286 105.768 56.0651 105.617 55.4141 105.617C54.8776 105.617 54.4323 105.779 54.0781 106.102C53.724 106.419 53.5182 106.849 53.4609 107.391V113H52.0078V107.461C52.0078 106.232 51.4062 105.617 50.2031 105.617C49.2552 105.617 48.6068 106.021 48.2578 106.828V113H46.8125V104.547H48.1797ZM66.3906 113H64.9453V104.547H66.3906V113ZM64.8281 102.305C64.8281 102.07 64.8984 101.872 65.0391 101.711C65.1849 101.549 65.3984 101.469 65.6797 101.469C65.9609 101.469 66.1745 101.549 66.3203 101.711C66.4661 101.872 66.5391 102.07 66.5391 102.305C66.5391 102.539 66.4661 102.734 66.3203 102.891C66.1745 103.047 65.9609 103.125 65.6797 103.125C65.3984 103.125 65.1849 103.047 65.0391 102.891C64.8984 102.734 64.8281 102.539 64.8281 102.305ZM75.8516 108.867C75.8516 110.154 75.5573 111.19 74.9688 111.977C74.3802 112.763 73.5833 113.156 72.5781 113.156C71.5521 113.156 70.7448 112.831 70.1562 112.18V116.25H68.7109V104.547H70.0312L70.1016 105.484C70.6901 104.755 71.5078 104.391 72.5547 104.391C73.5703 104.391 74.3724 104.773 74.9609 105.539C75.5547 106.305 75.8516 107.37 75.8516 108.734V108.867ZM74.4062 108.703C74.4062 107.75 74.2031 106.997 73.7969 106.445C73.3906 105.893 72.8333 105.617 72.125 105.617C71.25 105.617 70.5938 106.005 70.1562 106.781V110.82C70.5885 111.591 71.25 111.977 72.1406 111.977C72.8333 111.977 73.3828 111.703 73.7891 111.156C74.2005 110.604 74.4062 109.786 74.4062 108.703ZM82.6172 110.758C82.6172 110.367 82.4688 110.065 82.1719 109.852C81.8802 109.633 81.3672 109.445 80.6328 109.289C79.9036 109.133 79.3229 108.945 78.8906 108.727C78.4635 108.508 78.1458 108.247 77.9375 107.945C77.7344 107.643 77.6328 107.284 77.6328 106.867C77.6328 106.174 77.9245 105.589 78.5078 105.109C79.0964 104.63 79.8464 104.391 80.7578 104.391C81.7161 104.391 82.4922 104.638 83.0859 105.133C83.6849 105.628 83.9844 106.26 83.9844 107.031H82.5312C82.5312 106.635 82.362 106.294 82.0234 106.008C81.6901 105.721 81.2682 105.578 80.7578 105.578C80.2318 105.578 79.8203 105.693 79.5234 105.922C79.2266 106.151 79.0781 106.451 79.0781 106.82C79.0781 107.169 79.2161 107.432 79.4922 107.609C79.7682 107.786 80.2656 107.956 80.9844 108.117C81.7083 108.279 82.2943 108.471 82.7422 108.695C83.1901 108.919 83.5208 109.19 83.7344 109.508C83.9531 109.82 84.0625 110.203 84.0625 110.656C84.0625 111.411 83.7604 112.018 83.1562 112.477C82.5521 112.93 81.7682 113.156 80.8047 113.156C80.1276 113.156 79.5286 113.036 79.0078 112.797C78.487 112.557 78.0781 112.224 77.7812 111.797C77.4896 111.365 77.3438 110.898 77.3438 110.398H78.7891C78.8151 110.883 79.0078 111.268 79.3672 111.555C79.7318 111.836 80.2109 111.977 80.8047 111.977C81.3516 111.977 81.7891 111.867 82.1172 111.648C82.4505 111.424 82.6172 111.128 82.6172 110.758ZM91.1641 112.164C90.6016 112.826 89.776 113.156 88.6875 113.156C87.7865 113.156 87.099 112.896 86.625 112.375C86.1562 111.849 85.9193 111.073 85.9141 110.047V104.547H87.3594V110.008C87.3594 111.289 87.8802 111.93 88.9219 111.93C90.026 111.93 90.7604 111.518 91.125 110.695V104.547H92.5703V113H91.1953L91.1641 112.164ZM96.1328 104.547L96.1719 105.484C96.7917 104.755 97.6276 104.391 98.6797 104.391C99.862 104.391 100.667 104.844 101.094 105.75C101.375 105.344 101.74 105.016 102.188 104.766C102.641 104.516 103.174 104.391 103.789 104.391C105.643 104.391 106.586 105.372 106.617 107.336V113H105.172V107.422C105.172 106.818 105.034 106.367 104.758 106.07C104.482 105.768 104.018 105.617 103.367 105.617C102.831 105.617 102.385 105.779 102.031 106.102C101.677 106.419 101.471 106.849 101.414 107.391V113H99.9609V107.461C99.9609 106.232 99.3594 105.617 98.1562 105.617C97.2083 105.617 96.5599 106.021 96.2109 106.828V113H94.7656V104.547H96.1328ZM108.758 115.266L107.938 114.703C108.427 114.021 108.682 113.318 108.703 112.594V111.289H110.117V112.422C110.117 112.948 109.987 113.474 109.727 114C109.471 114.526 109.148 114.948 108.758 115.266ZM115.562 108.703C115.562 107.406 115.87 106.365 116.484 105.578C117.099 104.786 117.904 104.391 118.898 104.391C119.888 104.391 120.672 104.729 121.25 105.406V101H122.695V113H121.367L121.297 112.094C120.719 112.802 119.914 113.156 118.883 113.156C117.904 113.156 117.104 112.755 116.484 111.953C115.87 111.151 115.562 110.104 115.562 108.812V108.703ZM117.008 108.867C117.008 109.826 117.206 110.576 117.602 111.117C117.997 111.659 118.544 111.93 119.242 111.93C120.159 111.93 120.828 111.518 121.25 110.695V106.812C120.818 106.016 120.154 105.617 119.258 105.617C118.549 105.617 117.997 105.891 117.602 106.438C117.206 106.984 117.008 107.794 117.008 108.867ZM124.562 108.695C124.562 107.867 124.724 107.122 125.047 106.461C125.375 105.799 125.828 105.289 126.406 104.93C126.99 104.57 127.654 104.391 128.398 104.391C129.549 104.391 130.479 104.789 131.188 105.586C131.901 106.383 132.258 107.443 132.258 108.766V108.867C132.258 109.69 132.099 110.43 131.781 111.086C131.469 111.737 131.018 112.245 130.43 112.609C129.846 112.974 129.174 113.156 128.414 113.156C127.268 113.156 126.339 112.758 125.625 111.961C124.917 111.164 124.562 110.109 124.562 108.797V108.695ZM126.016 108.867C126.016 109.805 126.232 110.557 126.664 111.125C127.102 111.693 127.685 111.977 128.414 111.977C129.148 111.977 129.732 111.69 130.164 111.117C130.596 110.539 130.812 109.732 130.812 108.695C130.812 107.768 130.591 107.018 130.148 106.445C129.711 105.867 129.128 105.578 128.398 105.578C127.685 105.578 127.109 105.862 126.672 106.43C126.234 106.997 126.016 107.81 126.016 108.867ZM135.641 113H134.195V101H135.641V113ZM137.578 108.695C137.578 107.867 137.74 107.122 138.062 106.461C138.391 105.799 138.844 105.289 139.422 104.93C140.005 104.57 140.669 104.391 141.414 104.391C142.565 104.391 143.495 104.789 144.203 105.586C144.917 106.383 145.273 107.443 145.273 108.766V108.867C145.273 109.69 145.115 110.43 144.797 111.086C144.484 111.737 144.034 112.245 143.445 112.609C142.862 112.974 142.19 113.156 141.43 113.156C140.284 113.156 139.354 112.758 138.641 111.961C137.932 111.164 137.578 110.109 137.578 108.797V108.695ZM139.031 108.867C139.031 109.805 139.247 110.557 139.68 111.125C140.117 111.693 140.701 111.977 141.43 111.977C142.164 111.977 142.747 111.69 143.18 111.117C143.612 110.539 143.828 109.732 143.828 108.695C143.828 107.768 143.607 107.018 143.164 106.445C142.727 105.867 142.143 105.578 141.414 105.578C140.701 105.578 140.125 105.862 139.688 106.43C139.25 106.997 139.031 107.81 139.031 108.867ZM151.172 105.844C150.953 105.807 150.716 105.789 150.461 105.789C149.513 105.789 148.87 106.193 148.531 107V113H147.086V104.547H148.492L148.516 105.523C148.99 104.768 149.661 104.391 150.531 104.391C150.812 104.391 151.026 104.427 151.172 104.5V105.844ZM161.398 110.758C161.398 110.367 161.25 110.065 160.953 109.852C160.661 109.633 160.148 109.445 159.414 109.289C158.685 109.133 158.104 108.945 157.672 108.727C157.245 108.508 156.927 108.247 156.719 107.945C156.516 107.643 156.414 107.284 156.414 106.867C156.414 106.174 156.706 105.589 157.289 105.109C157.878 104.63 158.628 104.391 159.539 104.391C160.497 104.391 161.273 104.638 161.867 105.133C162.466 105.628 162.766 106.26 162.766 107.031H161.312C161.312 106.635 161.143 106.294 160.805 106.008C160.471 105.721 160.049 105.578 159.539 105.578C159.013 105.578 158.602 105.693 158.305 105.922C158.008 106.151 157.859 106.451 157.859 106.82C157.859 107.169 157.997 107.432 158.273 107.609C158.549 107.786 159.047 107.956 159.766 108.117C160.49 108.279 161.076 108.471 161.523 108.695C161.971 108.919 162.302 109.19 162.516 109.508C162.734 109.82 162.844 110.203 162.844 110.656C162.844 111.411 162.542 112.018 161.938 112.477C161.333 112.93 160.549 113.156 159.586 113.156C158.909 113.156 158.31 113.036 157.789 112.797C157.268 112.557 156.859 112.224 156.562 111.797C156.271 111.365 156.125 110.898 156.125 110.398H157.57C157.596 110.883 157.789 111.268 158.148 111.555C158.513 111.836 158.992 111.977 159.586 111.977C160.133 111.977 160.57 111.867 160.898 111.648C161.232 111.424 161.398 111.128 161.398 110.758ZM166.297 113H164.852V104.547H166.297V113ZM164.734 102.305C164.734 102.07 164.805 101.872 164.945 101.711C165.091 101.549 165.305 101.469 165.586 101.469C165.867 101.469 166.081 101.549 166.227 101.711C166.372 101.872 166.445 102.07 166.445 102.305C166.445 102.539 166.372 102.734 166.227 102.891C166.081 103.047 165.867 103.125 165.586 103.125C165.305 103.125 165.091 103.047 164.945 102.891C164.805 102.734 164.734 102.539 164.734 102.305ZM170.578 102.5V104.547H172.156V105.664H170.578V110.906C170.578 111.245 170.648 111.5 170.789 111.672C170.93 111.839 171.169 111.922 171.508 111.922C171.674 111.922 171.904 111.891 172.195 111.828V113C171.815 113.104 171.445 113.156 171.086 113.156C170.44 113.156 169.953 112.961 169.625 112.57C169.297 112.18 169.133 111.625 169.133 110.906V105.664H167.594V104.547H169.133V102.5H170.578ZM37.2812 132C37.1979 131.833 37.1302 131.536 37.0781 131.109C36.4062 131.807 35.6042 132.156 34.6719 132.156C33.8385 132.156 33.1536 131.922 32.6172 131.453C32.0859 130.979 31.8203 130.38 31.8203 129.656C31.8203 128.776 32.1536 128.094 32.8203 127.609C33.4922 127.12 34.4349 126.875 35.6484 126.875H37.0547V126.211C37.0547 125.706 36.9036 125.305 36.6016 125.008C36.2995 124.706 35.8542 124.555 35.2656 124.555C34.75 124.555 34.3177 124.685 33.9688 124.945C33.6198 125.206 33.4453 125.521 33.4453 125.891H31.9922C31.9922 125.469 32.1406 125.062 32.4375 124.672C32.7396 124.276 33.1458 123.964 33.6562 123.734C34.1719 123.505 34.737 123.391 35.3516 123.391C36.3255 123.391 37.0885 123.635 37.6406 124.125C38.1927 124.609 38.4792 125.279 38.5 126.133V130.023C38.5 130.799 38.599 131.417 38.7969 131.875V132H37.2812ZM34.8828 130.898C35.3359 130.898 35.7656 130.781 36.1719 130.547C36.5781 130.312 36.8724 130.008 37.0547 129.633V127.898H35.9219C34.151 127.898 33.2656 128.417 33.2656 129.453C33.2656 129.906 33.4167 130.26 33.7188 130.516C34.0208 130.771 34.4089 130.898 34.8828 130.898ZM42.125 123.547L42.1641 124.484C42.7839 123.755 43.6198 123.391 44.6719 123.391C45.8542 123.391 46.6589 123.844 47.0859 124.75C47.3672 124.344 47.7318 124.016 48.1797 123.766C48.6328 123.516 49.1667 123.391 49.7812 123.391C51.6354 123.391 52.5781 124.372 52.6094 126.336V132H51.1641V126.422C51.1641 125.818 51.026 125.367 50.75 125.07C50.474 124.768 50.0104 124.617 49.3594 124.617C48.8229 124.617 48.3776 124.779 48.0234 125.102C47.6693 125.419 47.4635 125.849 47.4062 126.391V132H45.9531V126.461C45.9531 125.232 45.3516 124.617 44.1484 124.617C43.2005 124.617 42.5521 125.021 42.2031 125.828V132H40.7578V123.547H42.125ZM58.3047 132.156C57.1589 132.156 56.2266 131.781 55.5078 131.031C54.7891 130.276 54.4297 129.268 54.4297 128.008V127.742C54.4297 126.904 54.5885 126.156 54.9062 125.5C55.2292 124.839 55.6771 124.323 56.25 123.953C56.8281 123.578 57.4531 123.391 58.125 123.391C59.224 123.391 60.0781 123.753 60.6875 124.477C61.2969 125.201 61.6016 126.237 61.6016 127.586V128.188H55.875C55.8958 129.021 56.138 129.695 56.6016 130.211C57.0703 130.721 57.6641 130.977 58.3828 130.977C58.8932 130.977 59.3255 130.872 59.6797 130.664C60.0339 130.456 60.3438 130.18 60.6094 129.836L61.4922 130.523C60.7839 131.612 59.7214 132.156 58.3047 132.156ZM58.125 124.578C57.5417 124.578 57.0521 124.792 56.6562 125.219C56.2604 125.641 56.0156 126.234 55.9219 127H60.1562V126.891C60.1146 126.156 59.9167 125.589 59.5625 125.188C59.2083 124.781 58.7292 124.578 58.125 124.578ZM65.2422 121.5V123.547H66.8203V124.664H65.2422V129.906C65.2422 130.245 65.3125 130.5 65.4531 130.672C65.5938 130.839 65.8333 130.922 66.1719 130.922C66.3385 130.922 66.5677 130.891 66.8594 130.828V132C66.4792 132.104 66.1094 132.156 65.75 132.156C65.1042 132.156 64.6172 131.961 64.2891 131.57C63.9609 131.18 63.7969 130.625 63.7969 129.906V124.664H62.2578V123.547H63.7969V121.5H65.2422ZM75.875 130.977C76.3906 130.977 76.8411 130.82 77.2266 130.508C77.612 130.195 77.8255 129.805 77.8672 129.336H79.2344C79.2083 129.82 79.0417 130.281 78.7344 130.719C78.4271 131.156 78.0156 131.505 77.5 131.766C76.9896 132.026 76.4479 132.156 75.875 132.156C74.724 132.156 73.8073 131.773 73.125 131.008C72.4479 130.237 72.1094 129.185 72.1094 127.852V127.609C72.1094 126.786 72.2604 126.055 72.5625 125.414C72.8646 124.773 73.2969 124.276 73.8594 123.922C74.4271 123.568 75.0964 123.391 75.8672 123.391C76.8151 123.391 77.6016 123.674 78.2266 124.242C78.8568 124.81 79.1927 125.547 79.2344 126.453H77.8672C77.8255 125.906 77.6172 125.458 77.2422 125.109C76.8724 124.755 76.4141 124.578 75.8672 124.578C75.1328 124.578 74.5625 124.844 74.1562 125.375C73.7552 125.901 73.5547 126.664 73.5547 127.664V127.938C73.5547 128.911 73.7552 129.661 74.1562 130.188C74.5573 130.714 75.1302 130.977 75.875 130.977ZM80.4766 127.695C80.4766 126.867 80.638 126.122 80.9609 125.461C81.2891 124.799 81.7422 124.289 82.3203 123.93C82.9036 123.57 83.5677 123.391 84.3125 123.391C85.4635 123.391 86.3932 123.789 87.1016 124.586C87.8151 125.383 88.1719 126.443 88.1719 127.766V127.867C88.1719 128.69 88.013 129.43 87.6953 130.086C87.3828 130.737 86.9323 131.245 86.3438 131.609C85.7604 131.974 85.0885 132.156 84.3281 132.156C83.1823 132.156 82.2526 131.758 81.5391 130.961C80.8307 130.164 80.4766 129.109 80.4766 127.797V127.695ZM81.9297 127.867C81.9297 128.805 82.1458 129.557 82.5781 130.125C83.0156 130.693 83.599 130.977 84.3281 130.977C85.0625 130.977 85.6458 130.69 86.0781 130.117C86.5104 129.539 86.7266 128.732 86.7266 127.695C86.7266 126.768 86.5052 126.018 86.0625 125.445C85.625 124.867 85.0417 124.578 84.3125 124.578C83.599 124.578 83.0234 124.862 82.5859 125.43C82.1484 125.997 81.9297 126.81 81.9297 127.867ZM91.3516 123.547L91.3984 124.609C92.0443 123.797 92.888 123.391 93.9297 123.391C95.7161 123.391 96.6172 124.398 96.6328 126.414V132H95.1875V126.406C95.1823 125.797 95.0417 125.346 94.7656 125.055C94.4948 124.763 94.0703 124.617 93.4922 124.617C93.0234 124.617 92.612 124.742 92.2578 124.992C91.9036 125.242 91.6276 125.57 91.4297 125.977V132H89.9844V123.547H91.3516ZM103.734 129.758C103.734 129.367 103.586 129.065 103.289 128.852C102.997 128.633 102.484 128.445 101.75 128.289C101.021 128.133 100.44 127.945 100.008 127.727C99.5807 127.508 99.263 127.247 99.0547 126.945C98.8516 126.643 98.75 126.284 98.75 125.867C98.75 125.174 99.0417 124.589 99.625 124.109C100.214 123.63 100.964 123.391 101.875 123.391C102.833 123.391 103.609 123.638 104.203 124.133C104.802 124.628 105.102 125.26 105.102 126.031H103.648C103.648 125.635 103.479 125.294 103.141 125.008C102.807 124.721 102.385 124.578 101.875 124.578C101.349 124.578 100.938 124.693 100.641 124.922C100.344 125.151 100.195 125.451 100.195 125.82C100.195 126.169 100.333 126.432 100.609 126.609C100.885 126.786 101.383 126.956 102.102 127.117C102.826 127.279 103.411 127.471 103.859 127.695C104.307 127.919 104.638 128.19 104.852 128.508C105.07 128.82 105.18 129.203 105.18 129.656C105.18 130.411 104.878 131.018 104.273 131.477C103.669 131.93 102.885 132.156 101.922 132.156C101.245 132.156 100.646 132.036 100.125 131.797C99.6042 131.557 99.1953 131.224 98.8984 130.797C98.6068 130.365 98.4609 129.898 98.4609 129.398H99.9062C99.9323 129.883 100.125 130.268 100.484 130.555C100.849 130.836 101.328 130.977 101.922 130.977C102.469 130.977 102.906 130.867 103.234 130.648C103.568 130.424 103.734 130.128 103.734 129.758ZM110.57 132.156C109.424 132.156 108.492 131.781 107.773 131.031C107.055 130.276 106.695 129.268 106.695 128.008V127.742C106.695 126.904 106.854 126.156 107.172 125.5C107.495 124.839 107.943 124.323 108.516 123.953C109.094 123.578 109.719 123.391 110.391 123.391C111.49 123.391 112.344 123.753 112.953 124.477C113.562 125.201 113.867 126.237 113.867 127.586V128.188H108.141C108.161 129.021 108.404 129.695 108.867 130.211C109.336 130.721 109.93 130.977 110.648 130.977C111.159 130.977 111.591 130.872 111.945 130.664C112.299 130.456 112.609 130.18 112.875 129.836L113.758 130.523C113.049 131.612 111.987 132.156 110.57 132.156ZM110.391 124.578C109.807 124.578 109.318 124.792 108.922 125.219C108.526 125.641 108.281 126.234 108.188 127H112.422V126.891C112.38 126.156 112.182 125.589 111.828 125.188C111.474 124.781 110.995 124.578 110.391 124.578ZM118.938 130.977C119.453 130.977 119.904 130.82 120.289 130.508C120.674 130.195 120.888 129.805 120.93 129.336H122.297C122.271 129.82 122.104 130.281 121.797 130.719C121.49 131.156 121.078 131.505 120.562 131.766C120.052 132.026 119.51 132.156 118.938 132.156C117.786 132.156 116.87 131.773 116.188 131.008C115.51 130.237 115.172 129.185 115.172 127.852V127.609C115.172 126.786 115.323 126.055 115.625 125.414C115.927 124.773 116.359 124.276 116.922 123.922C117.49 123.568 118.159 123.391 118.93 123.391C119.878 123.391 120.664 123.674 121.289 124.242C121.919 124.81 122.255 125.547 122.297 126.453H120.93C120.888 125.906 120.68 125.458 120.305 125.109C119.935 124.755 119.477 124.578 118.93 124.578C118.195 124.578 117.625 124.844 117.219 125.375C116.818 125.901 116.617 126.664 116.617 127.664V127.938C116.617 128.911 116.818 129.661 117.219 130.188C117.62 130.714 118.193 130.977 118.938 130.977ZM125.883 121.5V123.547H127.461V124.664H125.883V129.906C125.883 130.245 125.953 130.5 126.094 130.672C126.234 130.839 126.474 130.922 126.812 130.922C126.979 130.922 127.208 130.891 127.5 130.828V132C127.12 132.104 126.75 132.156 126.391 132.156C125.745 132.156 125.258 131.961 124.93 131.57C124.602 131.18 124.438 130.625 124.438 129.906V124.664H122.898V123.547H124.438V121.5H125.883ZM132.664 132.156C131.518 132.156 130.586 131.781 129.867 131.031C129.148 130.276 128.789 129.268 128.789 128.008V127.742C128.789 126.904 128.948 126.156 129.266 125.5C129.589 124.839 130.036 124.323 130.609 123.953C131.188 123.578 131.812 123.391 132.484 123.391C133.583 123.391 134.438 123.753 135.047 124.477C135.656 125.201 135.961 126.237 135.961 127.586V128.188H130.234C130.255 129.021 130.497 129.695 130.961 130.211C131.43 130.721 132.023 130.977 132.742 130.977C133.253 130.977 133.685 130.872 134.039 130.664C134.393 130.456 134.703 130.18 134.969 129.836L135.852 130.523C135.143 131.612 134.081 132.156 132.664 132.156ZM132.484 124.578C131.901 124.578 131.411 124.792 131.016 125.219C130.62 125.641 130.375 126.234 130.281 127H134.516V126.891C134.474 126.156 134.276 125.589 133.922 125.188C133.568 124.781 133.089 124.578 132.484 124.578ZM139.602 121.5V123.547H141.18V124.664H139.602V129.906C139.602 130.245 139.672 130.5 139.812 130.672C139.953 130.839 140.193 130.922 140.531 130.922C140.698 130.922 140.927 130.891 141.219 130.828V132C140.839 132.104 140.469 132.156 140.109 132.156C139.464 132.156 138.977 131.961 138.648 131.57C138.32 131.18 138.156 130.625 138.156 129.906V124.664H136.617V123.547H138.156V121.5H139.602ZM148.094 131.164C147.531 131.826 146.706 132.156 145.617 132.156C144.716 132.156 144.029 131.896 143.555 131.375C143.086 130.849 142.849 130.073 142.844 129.047V123.547H144.289V129.008C144.289 130.289 144.81 130.93 145.852 130.93C146.956 130.93 147.69 130.518 148.055 129.695V123.547H149.5V132H148.125L148.094 131.164ZM155.789 124.844C155.57 124.807 155.333 124.789 155.078 124.789C154.13 124.789 153.487 125.193 153.148 126V132H151.703V123.547H153.109L153.133 124.523C153.607 123.768 154.279 123.391 155.148 123.391C155.43 123.391 155.643 123.427 155.789 123.5V124.844ZM46.6094 151C46.526 150.833 46.4583 150.536 46.4062 150.109C45.7344 150.807 44.9323 151.156 44 151.156C43.1667 151.156 42.4818 150.922 41.9453 150.453C41.4141 149.979 41.1484 149.38 41.1484 148.656C41.1484 147.776 41.4818 147.094 42.1484 146.609C42.8203 146.12 43.763 145.875 44.9766 145.875H46.3828V145.211C46.3828 144.706 46.2318 144.305 45.9297 144.008C45.6276 143.706 45.1823 143.555 44.5938 143.555C44.0781 143.555 43.6458 143.685 43.2969 143.945C42.9479 144.206 42.7734 144.521 42.7734 144.891H41.3203C41.3203 144.469 41.4688 144.062 41.7656 143.672C42.0677 143.276 42.474 142.964 42.9844 142.734C43.5 142.505 44.0651 142.391 44.6797 142.391C45.6536 142.391 46.4167 142.635 46.9688 143.125C47.5208 143.609 47.8073 144.279 47.8281 145.133V149.023C47.8281 149.799 47.9271 150.417 48.125 150.875V151H46.6094ZM44.2109 149.898C44.6641 149.898 45.0938 149.781 45.5 149.547C45.9062 149.312 46.2005 149.008 46.3828 148.633V146.898H45.25C43.4792 146.898 42.5938 147.417 42.5938 148.453C42.5938 148.906 42.7448 149.26 43.0469 149.516C43.349 149.771 43.737 149.898 44.2109 149.898ZM49.7422 146.703C49.7422 145.406 50.0495 144.365 50.6641 143.578C51.2786 142.786 52.0833 142.391 53.0781 142.391C54.0677 142.391 54.8516 142.729 55.4297 143.406V139H56.875V151H55.5469L55.4766 150.094C54.8984 150.802 54.0938 151.156 53.0625 151.156C52.0833 151.156 51.2839 150.755 50.6641 149.953C50.0495 149.151 49.7422 148.104 49.7422 146.812V146.703ZM51.1875 146.867C51.1875 147.826 51.3854 148.576 51.7812 149.117C52.1771 149.659 52.724 149.93 53.4219 149.93C54.3385 149.93 55.0078 149.518 55.4297 148.695V144.812C54.9974 144.016 54.3333 143.617 53.4375 143.617C52.7292 143.617 52.1771 143.891 51.7812 144.438C51.3854 144.984 51.1875 145.794 51.1875 146.867ZM60.6953 151H59.25V142.547H60.6953V151ZM59.1328 140.305C59.1328 140.07 59.2031 139.872 59.3438 139.711C59.4896 139.549 59.7031 139.469 59.9844 139.469C60.2656 139.469 60.4792 139.549 60.625 139.711C60.7708 139.872 60.8438 140.07 60.8438 140.305C60.8438 140.539 60.7708 140.734 60.625 140.891C60.4792 141.047 60.2656 141.125 59.9844 141.125C59.7031 141.125 59.4896 141.047 59.3438 140.891C59.2031 140.734 59.1328 140.539 59.1328 140.305ZM70.1562 146.867C70.1562 148.154 69.862 149.19 69.2734 149.977C68.6849 150.763 67.888 151.156 66.8828 151.156C65.8568 151.156 65.0495 150.831 64.4609 150.18V154.25H63.0156V142.547H64.3359L64.4062 143.484C64.9948 142.755 65.8125 142.391 66.8594 142.391C67.875 142.391 68.6771 142.773 69.2656 143.539C69.8594 144.305 70.1562 145.37 70.1562 146.734V146.867ZM68.7109 146.703C68.7109 145.75 68.5078 144.997 68.1016 144.445C67.6953 143.893 67.138 143.617 66.4297 143.617C65.5547 143.617 64.8984 144.005 64.4609 144.781V148.82C64.8932 149.591 65.5547 149.977 66.4453 149.977C67.138 149.977 67.6875 149.703 68.0938 149.156C68.5052 148.604 68.7109 147.786 68.7109 146.703ZM73.5703 151H72.125V142.547H73.5703V151ZM72.0078 140.305C72.0078 140.07 72.0781 139.872 72.2188 139.711C72.3646 139.549 72.5781 139.469 72.8594 139.469C73.1406 139.469 73.3542 139.549 73.5 139.711C73.6458 139.872 73.7188 140.07 73.7188 140.305C73.7188 140.539 73.6458 140.734 73.5 140.891C73.3542 141.047 73.1406 141.125 72.8594 141.125C72.5781 141.125 72.3646 141.047 72.2188 140.891C72.0781 140.734 72.0078 140.539 72.0078 140.305ZM80.8125 148.758C80.8125 148.367 80.6641 148.065 80.3672 147.852C80.0755 147.633 79.5625 147.445 78.8281 147.289C78.099 147.133 77.5182 146.945 77.0859 146.727C76.6589 146.508 76.3411 146.247 76.1328 145.945C75.9297 145.643 75.8281 145.284 75.8281 144.867C75.8281 144.174 76.1198 143.589 76.7031 143.109C77.2917 142.63 78.0417 142.391 78.9531 142.391C79.9115 142.391 80.6875 142.638 81.2812 143.133C81.8802 143.628 82.1797 144.26 82.1797 145.031H80.7266C80.7266 144.635 80.5573 144.294 80.2188 144.008C79.8854 143.721 79.4635 143.578 78.9531 143.578C78.4271 143.578 78.0156 143.693 77.7188 143.922C77.4219 144.151 77.2734 144.451 77.2734 144.82C77.2734 145.169 77.4115 145.432 77.6875 145.609C77.9635 145.786 78.4609 145.956 79.1797 146.117C79.9036 146.279 80.4896 146.471 80.9375 146.695C81.3854 146.919 81.7161 147.19 81.9297 147.508C82.1484 147.82 82.2578 148.203 82.2578 148.656C82.2578 149.411 81.9557 150.018 81.3516 150.477C80.7474 150.93 79.9635 151.156 79 151.156C78.3229 151.156 77.724 151.036 77.2031 150.797C76.6823 150.557 76.2734 150.224 75.9766 149.797C75.6849 149.365 75.5391 148.898 75.5391 148.398H76.9844C77.0104 148.883 77.2031 149.268 77.5625 149.555C77.9271 149.836 78.4062 149.977 79 149.977C79.5469 149.977 79.9844 149.867 80.3125 149.648C80.6458 149.424 80.8125 149.128 80.8125 148.758ZM85.7109 151H84.2656V142.547H85.7109V151ZM84.1484 140.305C84.1484 140.07 84.2188 139.872 84.3594 139.711C84.5052 139.549 84.7188 139.469 85 139.469C85.2812 139.469 85.4948 139.549 85.6406 139.711C85.7865 139.872 85.8594 140.07 85.8594 140.305C85.8594 140.539 85.7865 140.734 85.6406 140.891C85.4948 141.047 85.2812 141.125 85 141.125C84.7188 141.125 84.5052 141.047 84.3594 140.891C84.2188 140.734 84.1484 140.539 84.1484 140.305ZM91.4219 149.977C91.9375 149.977 92.388 149.82 92.7734 149.508C93.1589 149.195 93.3724 148.805 93.4141 148.336H94.7812C94.7552 148.82 94.5885 149.281 94.2812 149.719C93.974 150.156 93.5625 150.505 93.0469 150.766C92.5365 151.026 91.9948 151.156 91.4219 151.156C90.2708 151.156 89.3542 150.773 88.6719 150.008C87.9948 149.237 87.6562 148.185 87.6562 146.852V146.609C87.6562 145.786 87.8073 145.055 88.1094 144.414C88.4115 143.773 88.8438 143.276 89.4062 142.922C89.974 142.568 90.6432 142.391 91.4141 142.391C92.362 142.391 93.1484 142.674 93.7734 143.242C94.4036 143.81 94.7396 144.547 94.7812 145.453H93.4141C93.3724 144.906 93.1641 144.458 92.7891 144.109C92.4193 143.755 91.9609 143.578 91.4141 143.578C90.6797 143.578 90.1094 143.844 89.7031 144.375C89.3021 144.901 89.1016 145.664 89.1016 146.664V146.938C89.1016 147.911 89.3021 148.661 89.7031 149.188C90.1042 149.714 90.6771 149.977 91.4219 149.977ZM97.9766 151H96.5312V142.547H97.9766V151ZM96.4141 140.305C96.4141 140.07 96.4844 139.872 96.625 139.711C96.7708 139.549 96.9844 139.469 97.2656 139.469C97.5469 139.469 97.7604 139.549 97.9062 139.711C98.0521 139.872 98.125 140.07 98.125 140.305C98.125 140.539 98.0521 140.734 97.9062 140.891C97.7604 141.047 97.5469 141.125 97.2656 141.125C96.9844 141.125 96.7708 141.047 96.625 140.891C96.4844 140.734 96.4141 140.539 96.4141 140.305ZM101.664 142.547L101.711 143.609C102.357 142.797 103.201 142.391 104.242 142.391C106.029 142.391 106.93 143.398 106.945 145.414V151H105.5V145.406C105.495 144.797 105.354 144.346 105.078 144.055C104.807 143.763 104.383 143.617 103.805 143.617C103.336 143.617 102.924 143.742 102.57 143.992C102.216 144.242 101.94 144.57 101.742 144.977V151H100.297V142.547H101.664ZM108.781 146.703C108.781 145.385 109.086 144.339 109.695 143.562C110.305 142.781 111.112 142.391 112.117 142.391C113.148 142.391 113.953 142.755 114.531 143.484L114.602 142.547H115.922V150.797C115.922 151.891 115.596 152.753 114.945 153.383C114.299 154.013 113.43 154.328 112.336 154.328C111.727 154.328 111.13 154.198 110.547 153.938C109.964 153.677 109.518 153.32 109.211 152.867L109.961 152C110.581 152.766 111.339 153.148 112.234 153.148C112.938 153.148 113.484 152.951 113.875 152.555C114.271 152.159 114.469 151.602 114.469 150.883V150.156C113.891 150.823 113.102 151.156 112.102 151.156C111.112 151.156 110.31 150.758 109.695 149.961C109.086 149.164 108.781 148.078 108.781 146.703ZM110.234 146.867C110.234 147.82 110.43 148.57 110.82 149.117C111.211 149.659 111.758 149.93 112.461 149.93C113.372 149.93 114.042 149.516 114.469 148.688V144.828C114.026 144.021 113.362 143.617 112.477 143.617C111.773 143.617 111.224 143.891 110.828 144.438C110.432 144.984 110.234 145.794 110.234 146.867ZM125.586 151.156C124.44 151.156 123.508 150.781 122.789 150.031C122.07 149.276 121.711 148.268 121.711 147.008V146.742C121.711 145.904 121.87 145.156 122.188 144.5C122.51 143.839 122.958 143.323 123.531 142.953C124.109 142.578 124.734 142.391 125.406 142.391C126.505 142.391 127.359 142.753 127.969 143.477C128.578 144.201 128.883 145.237 128.883 146.586V147.188H123.156C123.177 148.021 123.419 148.695 123.883 149.211C124.352 149.721 124.945 149.977 125.664 149.977C126.174 149.977 126.607 149.872 126.961 149.664C127.315 149.456 127.625 149.18 127.891 148.836L128.773 149.523C128.065 150.612 127.003 151.156 125.586 151.156ZM125.406 143.578C124.823 143.578 124.333 143.792 123.938 144.219C123.542 144.641 123.297 145.234 123.203 146H127.438V145.891C127.396 145.156 127.198 144.589 126.844 144.188C126.49 143.781 126.01 143.578 125.406 143.578ZM132.133 151H130.688V139H132.133V151ZM136.023 151H134.578V142.547H136.023V151ZM134.461 140.305C134.461 140.07 134.531 139.872 134.672 139.711C134.818 139.549 135.031 139.469 135.312 139.469C135.594 139.469 135.807 139.549 135.953 139.711C136.099 139.872 136.172 140.07 136.172 140.305C136.172 140.539 136.099 140.734 135.953 140.891C135.807 141.047 135.594 141.125 135.312 141.125C135.031 141.125 134.818 141.047 134.672 140.891C134.531 140.734 134.461 140.539 134.461 140.305ZM140.305 140.5V142.547H141.883V143.664H140.305V148.906C140.305 149.245 140.375 149.5 140.516 149.672C140.656 149.839 140.896 149.922 141.234 149.922C141.401 149.922 141.63 149.891 141.922 149.828V151C141.542 151.104 141.172 151.156 140.812 151.156C140.167 151.156 139.68 150.961 139.352 150.57C139.023 150.18 138.859 149.625 138.859 148.906V143.664H137.32V142.547H138.859V140.5H140.305ZM143.609 150.242C143.609 149.992 143.682 149.784 143.828 149.617C143.979 149.451 144.203 149.367 144.5 149.367C144.797 149.367 145.021 149.451 145.172 149.617C145.328 149.784 145.406 149.992 145.406 150.242C145.406 150.482 145.328 150.682 145.172 150.844C145.021 151.005 144.797 151.086 144.5 151.086C144.203 151.086 143.979 151.005 143.828 150.844C143.682 150.682 143.609 150.482 143.609 150.242Z" fill="#2E3A59"/>
<g filter="url(#filter0_d)">
<rect x="65.5" y="5" width="54" height="70" rx="3" stroke="#2E3A59" stroke-width="2"/>
<path d="M73.5 5H111.5V10C111.5 11.6569 110.157 13 108.5 13H76.5C74.8431 13 73.5 11.6569 73.5 10V5Z" stroke="#2E3A59" stroke-width="2"/>
<g filter="url(#filter1_d)">
<path d="M73.5 61C73.5 59.3431 74.8431 58 76.5 58H108.5C110.157 58 111.5 59.3431 111.5 61V63C111.5 64.6569 110.157 66 108.5 66H76.5C74.8431 66 73.5 64.6569 73.5 63V61Z" stroke="#2E3A59" stroke-width="2"/>
</g>
</g>
<defs>
<filter id="filter0_d" x="60.5" y="0" width="72" height="88" filterUnits="userSpaceOnUse" color-interpolation-filters="sRGB">
<feFlood flood-opacity="0" result="BackgroundImageFix"/>
<feColorMatrix in="SourceAlpha" type="matrix" values="0 0 0 0 0 0 0 0 0 0 0 0 0 0 0 0 0 0 127 0"/>
<feOffset dx="4" dy="4"/>
<feGaussianBlur stdDeviation="4"/>
<feColorMatrix type="matrix" values="0 0 0 0 0.65098 0 0 0 0 0.670588 0 0 0 0 0.741176 0 0 0 1 0"/>
<feBlend mode="normal" in2="BackgroundImageFix" result="effect1_dropShadow"/>
<feBlend mode="normal" in="SourceGraphic" in2="effect1_dropShadow" result="shape"/>
</filter>
<filter id="filter1_d" x="70.5" y="55" width="48" height="18" filterUnits="userSpaceOnUse" color-interpolation-filters="sRGB">
<feFlood flood-opacity="0" result="BackgroundImageFix"/>
<feColorMatrix in="SourceAlpha" type="matrix" values="0 0 0 0 0 0 0 0 0 0 0 0 0 0 0 0 0 0 127 0"/>
<feOffset dx="2" dy="2"/>
<feGaussianBlur stdDeviation="2"/>
<feColorMatrix type="matrix" values="0 0 0 0 0.65098 0 0 0 0 0.670588 0 0 0 0 0.741176 0 0 0 1 0"/>
<feBlend mode="normal" in2="BackgroundImageFix" result="effect1_dropShadow"/>
<feBlend mode="normal" in="SourceGraphic" in2="effect1_dropShadow" result="shape"/>
</filter>
</defs>
</svg>
