<svg width="179" height="158" viewBox="0 0 179 158" fill="none" xmlns="http://www.w3.org/2000/svg">
<path d="M13.0703 114.773H18.4609V116H11.5625V104.625H13.0703V114.773ZM19.5625 111.695C19.5625 110.867 19.724 110.122 20.0469 109.461C20.375 108.799 20.8281 108.289 21.4062 107.93C21.9896 107.57 22.6536 107.391 23.3984 107.391C24.5495 107.391 25.4792 107.789 26.1875 108.586C26.901 109.383 27.2578 110.443 27.2578 111.766V111.867C27.2578 112.69 27.099 113.43 26.7812 114.086C26.4688 114.737 26.0182 115.245 25.4297 115.609C24.8464 115.974 24.1745 116.156 23.4141 116.156C22.2682 116.156 21.3385 115.758 20.625 114.961C19.9167 114.164 19.5625 113.109 19.5625 111.797V111.695ZM21.0156 111.867C21.0156 112.805 21.2318 113.557 21.6641 114.125C22.1016 114.693 22.6849 114.977 23.4141 114.977C24.1484 114.977 24.7318 114.69 25.1641 114.117C25.5964 113.539 25.8125 112.732 25.8125 111.695C25.8125 110.768 25.5911 110.018 25.1484 109.445C24.7109 108.867 24.1276 108.578 23.3984 108.578C22.6849 108.578 22.1094 108.862 21.6719 109.43C21.2344 109.997 21.0156 110.81 21.0156 111.867ZM33.1562 108.844C32.9375 108.807 32.7005 108.789 32.4453 108.789C31.4974 108.789 30.8542 109.193 30.5156 110V116H29.0703V107.547H30.4766L30.5 108.523C30.974 107.768 31.6458 107.391 32.5156 107.391C32.7969 107.391 33.0104 107.427 33.1562 107.5V108.844ZM37.8438 116.156C36.6979 116.156 35.7656 115.781 35.0469 115.031C34.3281 114.276 33.9688 113.268 33.9688 112.008V111.742C33.9688 110.904 34.1276 110.156 34.4453 109.5C34.7682 108.839 35.2161 108.323 35.7891 107.953C36.3672 107.578 36.9922 107.391 37.6641 107.391C38.763 107.391 39.6172 107.753 40.2266 108.477C40.8359 109.201 41.1406 110.237 41.1406 111.586V112.188H35.4141C35.4349 113.021 35.6771 113.695 36.1406 114.211C36.6094 114.721 37.2031 114.977 37.9219 114.977C38.4323 114.977 38.8646 114.872 39.2188 114.664C39.5729 114.456 39.8828 114.18 40.1484 113.836L41.0312 114.523C40.3229 115.612 39.2604 116.156 37.8438 116.156ZM37.6641 108.578C37.0807 108.578 36.5911 108.792 36.1953 109.219C35.7995 109.641 35.5547 110.234 35.4609 111H39.6953V110.891C39.6536 110.156 39.4557 109.589 39.1016 109.188C38.7474 108.781 38.2682 108.578 37.6641 108.578ZM44.1797 107.547L44.2188 108.484C44.8385 107.755 45.6745 107.391 46.7266 107.391C47.9089 107.391 48.7135 107.844 49.1406 108.75C49.4219 108.344 49.7865 108.016 50.2344 107.766C50.6875 107.516 51.2214 107.391 51.8359 107.391C53.6901 107.391 54.6328 108.372 54.6641 110.336V116H53.2188V110.422C53.2188 109.818 53.0807 109.367 52.8047 109.07C52.5286 108.768 52.0651 108.617 51.4141 108.617C50.8776 108.617 50.4323 108.779 50.0781 109.102C49.724 109.419 49.5182 109.849 49.4609 110.391V116H48.0078V110.461C48.0078 109.232 47.4062 108.617 46.2031 108.617C45.2552 108.617 44.6068 109.021 44.2578 109.828V116H42.8125V107.547H44.1797ZM62.3906 116H60.9453V107.547H62.3906V116ZM60.8281 105.305C60.8281 105.07 60.8984 104.872 61.0391 104.711C61.1849 104.549 61.3984 104.469 61.6797 104.469C61.9609 104.469 62.1745 104.549 62.3203 104.711C62.4661 104.872 62.5391 105.07 62.5391 105.305C62.5391 105.539 62.4661 105.734 62.3203 105.891C62.1745 106.047 61.9609 106.125 61.6797 106.125C61.3984 106.125 61.1849 106.047 61.0391 105.891C60.8984 105.734 60.8281 105.539 60.8281 105.305ZM71.8516 111.867C71.8516 113.154 71.5573 114.19 70.9688 114.977C70.3802 115.763 69.5833 116.156 68.5781 116.156C67.5521 116.156 66.7448 115.831 66.1562 115.18V119.25H64.7109V107.547H66.0312L66.1016 108.484C66.6901 107.755 67.5078 107.391 68.5547 107.391C69.5703 107.391 70.3724 107.773 70.9609 108.539C71.5547 109.305 71.8516 110.37 71.8516 111.734V111.867ZM70.4062 111.703C70.4062 110.75 70.2031 109.997 69.7969 109.445C69.3906 108.893 68.8333 108.617 68.125 108.617C67.25 108.617 66.5938 109.005 66.1562 109.781V113.82C66.5885 114.591 67.25 114.977 68.1406 114.977C68.8333 114.977 69.3828 114.703 69.7891 114.156C70.2005 113.604 70.4062 112.786 70.4062 111.703ZM78.6172 113.758C78.6172 113.367 78.4688 113.065 78.1719 112.852C77.8802 112.633 77.3672 112.445 76.6328 112.289C75.9036 112.133 75.3229 111.945 74.8906 111.727C74.4635 111.508 74.1458 111.247 73.9375 110.945C73.7344 110.643 73.6328 110.284 73.6328 109.867C73.6328 109.174 73.9245 108.589 74.5078 108.109C75.0964 107.63 75.8464 107.391 76.7578 107.391C77.7161 107.391 78.4922 107.638 79.0859 108.133C79.6849 108.628 79.9844 109.26 79.9844 110.031H78.5312C78.5312 109.635 78.362 109.294 78.0234 109.008C77.6901 108.721 77.2682 108.578 76.7578 108.578C76.2318 108.578 75.8203 108.693 75.5234 108.922C75.2266 109.151 75.0781 109.451 75.0781 109.82C75.0781 110.169 75.2161 110.432 75.4922 110.609C75.7682 110.786 76.2656 110.956 76.9844 111.117C77.7083 111.279 78.2943 111.471 78.7422 111.695C79.1901 111.919 79.5208 112.19 79.7344 112.508C79.9531 112.82 80.0625 113.203 80.0625 113.656C80.0625 114.411 79.7604 115.018 79.1562 115.477C78.5521 115.93 77.7682 116.156 76.8047 116.156C76.1276 116.156 75.5286 116.036 75.0078 115.797C74.487 115.557 74.0781 115.224 73.7812 114.797C73.4896 114.365 73.3438 113.898 73.3438 113.398H74.7891C74.8151 113.883 75.0078 114.268 75.3672 114.555C75.7318 114.836 76.2109 114.977 76.8047 114.977C77.3516 114.977 77.7891 114.867 78.1172 114.648C78.4505 114.424 78.6172 114.128 78.6172 113.758ZM87.1641 115.164C86.6016 115.826 85.776 116.156 84.6875 116.156C83.7865 116.156 83.099 115.896 82.625 115.375C82.1562 114.849 81.9193 114.073 81.9141 113.047V107.547H83.3594V113.008C83.3594 114.289 83.8802 114.93 84.9219 114.93C86.026 114.93 86.7604 114.518 87.125 113.695V107.547H88.5703V116H87.1953L87.1641 115.164ZM92.1328 107.547L92.1719 108.484C92.7917 107.755 93.6276 107.391 94.6797 107.391C95.862 107.391 96.6667 107.844 97.0938 108.75C97.375 108.344 97.7396 108.016 98.1875 107.766C98.6406 107.516 99.1745 107.391 99.7891 107.391C101.643 107.391 102.586 108.372 102.617 110.336V116H101.172V110.422C101.172 109.818 101.034 109.367 100.758 109.07C100.482 108.768 100.018 108.617 99.3672 108.617C98.8307 108.617 98.3854 108.779 98.0312 109.102C97.6771 109.419 97.4714 109.849 97.4141 110.391V116H95.9609V110.461C95.9609 109.232 95.3594 108.617 94.1562 108.617C93.2083 108.617 92.5599 109.021 92.2109 109.828V116H90.7656V107.547H92.1328ZM104.758 118.266L103.938 117.703C104.427 117.021 104.682 116.318 104.703 115.594V114.289H106.117V115.422C106.117 115.948 105.987 116.474 105.727 117C105.471 117.526 105.148 117.948 104.758 118.266ZM111.562 111.703C111.562 110.406 111.87 109.365 112.484 108.578C113.099 107.786 113.904 107.391 114.898 107.391C115.888 107.391 116.672 107.729 117.25 108.406V104H118.695V116H117.367L117.297 115.094C116.719 115.802 115.914 116.156 114.883 116.156C113.904 116.156 113.104 115.755 112.484 114.953C111.87 114.151 111.562 113.104 111.562 111.812V111.703ZM113.008 111.867C113.008 112.826 113.206 113.576 113.602 114.117C113.997 114.659 114.544 114.93 115.242 114.93C116.159 114.93 116.828 114.518 117.25 113.695V109.812C116.818 109.016 116.154 108.617 115.258 108.617C114.549 108.617 113.997 108.891 113.602 109.438C113.206 109.984 113.008 110.794 113.008 111.867ZM120.562 111.695C120.562 110.867 120.724 110.122 121.047 109.461C121.375 108.799 121.828 108.289 122.406 107.93C122.99 107.57 123.654 107.391 124.398 107.391C125.549 107.391 126.479 107.789 127.188 108.586C127.901 109.383 128.258 110.443 128.258 111.766V111.867C128.258 112.69 128.099 113.43 127.781 114.086C127.469 114.737 127.018 115.245 126.43 115.609C125.846 115.974 125.174 116.156 124.414 116.156C123.268 116.156 122.339 115.758 121.625 114.961C120.917 114.164 120.562 113.109 120.562 111.797V111.695ZM122.016 111.867C122.016 112.805 122.232 113.557 122.664 114.125C123.102 114.693 123.685 114.977 124.414 114.977C125.148 114.977 125.732 114.69 126.164 114.117C126.596 113.539 126.812 112.732 126.812 111.695C126.812 110.768 126.591 110.018 126.148 109.445C125.711 108.867 125.128 108.578 124.398 108.578C123.685 108.578 123.109 108.862 122.672 109.43C122.234 109.997 122.016 110.81 122.016 111.867ZM131.641 116H130.195V104H131.641V116ZM133.578 111.695C133.578 110.867 133.74 110.122 134.062 109.461C134.391 108.799 134.844 108.289 135.422 107.93C136.005 107.57 136.669 107.391 137.414 107.391C138.565 107.391 139.495 107.789 140.203 108.586C140.917 109.383 141.273 110.443 141.273 111.766V111.867C141.273 112.69 141.115 113.43 140.797 114.086C140.484 114.737 140.034 115.245 139.445 115.609C138.862 115.974 138.19 116.156 137.43 116.156C136.284 116.156 135.354 115.758 134.641 114.961C133.932 114.164 133.578 113.109 133.578 111.797V111.695ZM135.031 111.867C135.031 112.805 135.247 113.557 135.68 114.125C136.117 114.693 136.701 114.977 137.43 114.977C138.164 114.977 138.747 114.69 139.18 114.117C139.612 113.539 139.828 112.732 139.828 111.695C139.828 110.768 139.607 110.018 139.164 109.445C138.727 108.867 138.143 108.578 137.414 108.578C136.701 108.578 136.125 108.862 135.688 109.43C135.25 109.997 135.031 110.81 135.031 111.867ZM147.172 108.844C146.953 108.807 146.716 108.789 146.461 108.789C145.513 108.789 144.87 109.193 144.531 110V116H143.086V107.547H144.492L144.516 108.523C144.99 107.768 145.661 107.391 146.531 107.391C146.812 107.391 147.026 107.427 147.172 107.5V108.844ZM157.398 113.758C157.398 113.367 157.25 113.065 156.953 112.852C156.661 112.633 156.148 112.445 155.414 112.289C154.685 112.133 154.104 111.945 153.672 111.727C153.245 111.508 152.927 111.247 152.719 110.945C152.516 110.643 152.414 110.284 152.414 109.867C152.414 109.174 152.706 108.589 153.289 108.109C153.878 107.63 154.628 107.391 155.539 107.391C156.497 107.391 157.273 107.638 157.867 108.133C158.466 108.628 158.766 109.26 158.766 110.031H157.312C157.312 109.635 157.143 109.294 156.805 109.008C156.471 108.721 156.049 108.578 155.539 108.578C155.013 108.578 154.602 108.693 154.305 108.922C154.008 109.151 153.859 109.451 153.859 109.82C153.859 110.169 153.997 110.432 154.273 110.609C154.549 110.786 155.047 110.956 155.766 111.117C156.49 111.279 157.076 111.471 157.523 111.695C157.971 111.919 158.302 112.19 158.516 112.508C158.734 112.82 158.844 113.203 158.844 113.656C158.844 114.411 158.542 115.018 157.938 115.477C157.333 115.93 156.549 116.156 155.586 116.156C154.909 116.156 154.31 116.036 153.789 115.797C153.268 115.557 152.859 115.224 152.562 114.797C152.271 114.365 152.125 113.898 152.125 113.398H153.57C153.596 113.883 153.789 114.268 154.148 114.555C154.513 114.836 154.992 114.977 155.586 114.977C156.133 114.977 156.57 114.867 156.898 114.648C157.232 114.424 157.398 114.128 157.398 113.758ZM162.297 116H160.852V107.547H162.297V116ZM160.734 105.305C160.734 105.07 160.805 104.872 160.945 104.711C161.091 104.549 161.305 104.469 161.586 104.469C161.867 104.469 162.081 104.549 162.227 104.711C162.372 104.872 162.445 105.07 162.445 105.305C162.445 105.539 162.372 105.734 162.227 105.891C162.081 106.047 161.867 106.125 161.586 106.125C161.305 106.125 161.091 106.047 160.945 105.891C160.805 105.734 160.734 105.539 160.734 105.305ZM166.578 105.5V107.547H168.156V108.664H166.578V113.906C166.578 114.245 166.648 114.5 166.789 114.672C166.93 114.839 167.169 114.922 167.508 114.922C167.674 114.922 167.904 114.891 168.195 114.828V116C167.815 116.104 167.445 116.156 167.086 116.156C166.44 116.156 165.953 115.961 165.625 115.57C165.297 115.18 165.133 114.625 165.133 113.906V108.664H163.594V107.547H165.133V105.5H166.578ZM33.2812 135C33.1979 134.833 33.1302 134.536 33.0781 134.109C32.4062 134.807 31.6042 135.156 30.6719 135.156C29.8385 135.156 29.1536 134.922 28.6172 134.453C28.0859 133.979 27.8203 133.38 27.8203 132.656C27.8203 131.776 28.1536 131.094 28.8203 130.609C29.4922 130.12 30.4349 129.875 31.6484 129.875H33.0547V129.211C33.0547 128.706 32.9036 128.305 32.6016 128.008C32.2995 127.706 31.8542 127.555 31.2656 127.555C30.75 127.555 30.3177 127.685 29.9688 127.945C29.6198 128.206 29.4453 128.521 29.4453 128.891H27.9922C27.9922 128.469 28.1406 128.062 28.4375 127.672C28.7396 127.276 29.1458 126.964 29.6562 126.734C30.1719 126.505 30.737 126.391 31.3516 126.391C32.3255 126.391 33.0885 126.635 33.6406 127.125C34.1927 127.609 34.4792 128.279 34.5 129.133V133.023C34.5 133.799 34.599 134.417 34.7969 134.875V135H33.2812ZM30.8828 133.898C31.3359 133.898 31.7656 133.781 32.1719 133.547C32.5781 133.312 32.8724 133.008 33.0547 132.633V130.898H31.9219C30.151 130.898 29.2656 131.417 29.2656 132.453C29.2656 132.906 29.4167 133.26 29.7188 133.516C30.0208 133.771 30.4089 133.898 30.8828 133.898ZM38.125 126.547L38.1641 127.484C38.7839 126.755 39.6198 126.391 40.6719 126.391C41.8542 126.391 42.6589 126.844 43.0859 127.75C43.3672 127.344 43.7318 127.016 44.1797 126.766C44.6328 126.516 45.1667 126.391 45.7812 126.391C47.6354 126.391 48.5781 127.372 48.6094 129.336V135H47.1641V129.422C47.1641 128.818 47.026 128.367 46.75 128.07C46.474 127.768 46.0104 127.617 45.3594 127.617C44.8229 127.617 44.3776 127.779 44.0234 128.102C43.6693 128.419 43.4635 128.849 43.4062 129.391V135H41.9531V129.461C41.9531 128.232 41.3516 127.617 40.1484 127.617C39.2005 127.617 38.5521 128.021 38.2031 128.828V135H36.7578V126.547H38.125ZM54.3047 135.156C53.1589 135.156 52.2266 134.781 51.5078 134.031C50.7891 133.276 50.4297 132.268 50.4297 131.008V130.742C50.4297 129.904 50.5885 129.156 50.9062 128.5C51.2292 127.839 51.6771 127.323 52.25 126.953C52.8281 126.578 53.4531 126.391 54.125 126.391C55.224 126.391 56.0781 126.753 56.6875 127.477C57.2969 128.201 57.6016 129.237 57.6016 130.586V131.188H51.875C51.8958 132.021 52.138 132.695 52.6016 133.211C53.0703 133.721 53.6641 133.977 54.3828 133.977C54.8932 133.977 55.3255 133.872 55.6797 133.664C56.0339 133.456 56.3438 133.18 56.6094 132.836L57.4922 133.523C56.7839 134.612 55.7214 135.156 54.3047 135.156ZM54.125 127.578C53.5417 127.578 53.0521 127.792 52.6562 128.219C52.2604 128.641 52.0156 129.234 51.9219 130H56.1562V129.891C56.1146 129.156 55.9167 128.589 55.5625 128.188C55.2083 127.781 54.7292 127.578 54.125 127.578ZM61.2422 124.5V126.547H62.8203V127.664H61.2422V132.906C61.2422 133.245 61.3125 133.5 61.4531 133.672C61.5938 133.839 61.8333 133.922 62.1719 133.922C62.3385 133.922 62.5677 133.891 62.8594 133.828V135C62.4792 135.104 62.1094 135.156 61.75 135.156C61.1042 135.156 60.6172 134.961 60.2891 134.57C59.9609 134.18 59.7969 133.625 59.7969 132.906V127.664H58.2578V126.547H59.7969V124.5H61.2422ZM71.875 133.977C72.3906 133.977 72.8411 133.82 73.2266 133.508C73.612 133.195 73.8255 132.805 73.8672 132.336H75.2344C75.2083 132.82 75.0417 133.281 74.7344 133.719C74.4271 134.156 74.0156 134.505 73.5 134.766C72.9896 135.026 72.4479 135.156 71.875 135.156C70.724 135.156 69.8073 134.773 69.125 134.008C68.4479 133.237 68.1094 132.185 68.1094 130.852V130.609C68.1094 129.786 68.2604 129.055 68.5625 128.414C68.8646 127.773 69.2969 127.276 69.8594 126.922C70.4271 126.568 71.0964 126.391 71.8672 126.391C72.8151 126.391 73.6016 126.674 74.2266 127.242C74.8568 127.81 75.1927 128.547 75.2344 129.453H73.8672C73.8255 128.906 73.6172 128.458 73.2422 128.109C72.8724 127.755 72.4141 127.578 71.8672 127.578C71.1328 127.578 70.5625 127.844 70.1562 128.375C69.7552 128.901 69.5547 129.664 69.5547 130.664V130.938C69.5547 131.911 69.7552 132.661 70.1562 133.188C70.5573 133.714 71.1302 133.977 71.875 133.977ZM76.4766 130.695C76.4766 129.867 76.638 129.122 76.9609 128.461C77.2891 127.799 77.7422 127.289 78.3203 126.93C78.9036 126.57 79.5677 126.391 80.3125 126.391C81.4635 126.391 82.3932 126.789 83.1016 127.586C83.8151 128.383 84.1719 129.443 84.1719 130.766V130.867C84.1719 131.69 84.013 132.43 83.6953 133.086C83.3828 133.737 82.9323 134.245 82.3438 134.609C81.7604 134.974 81.0885 135.156 80.3281 135.156C79.1823 135.156 78.2526 134.758 77.5391 133.961C76.8307 133.164 76.4766 132.109 76.4766 130.797V130.695ZM77.9297 130.867C77.9297 131.805 78.1458 132.557 78.5781 133.125C79.0156 133.693 79.599 133.977 80.3281 133.977C81.0625 133.977 81.6458 133.69 82.0781 133.117C82.5104 132.539 82.7266 131.732 82.7266 130.695C82.7266 129.768 82.5052 129.018 82.0625 128.445C81.625 127.867 81.0417 127.578 80.3125 127.578C79.599 127.578 79.0234 127.862 78.5859 128.43C78.1484 128.997 77.9297 129.81 77.9297 130.867ZM87.3516 126.547L87.3984 127.609C88.0443 126.797 88.888 126.391 89.9297 126.391C91.7161 126.391 92.6172 127.398 92.6328 129.414V135H91.1875V129.406C91.1823 128.797 91.0417 128.346 90.7656 128.055C90.4948 127.763 90.0703 127.617 89.4922 127.617C89.0234 127.617 88.612 127.742 88.2578 127.992C87.9036 128.242 87.6276 128.57 87.4297 128.977V135H85.9844V126.547H87.3516ZM99.7344 132.758C99.7344 132.367 99.5859 132.065 99.2891 131.852C98.9974 131.633 98.4844 131.445 97.75 131.289C97.0208 131.133 96.4401 130.945 96.0078 130.727C95.5807 130.508 95.263 130.247 95.0547 129.945C94.8516 129.643 94.75 129.284 94.75 128.867C94.75 128.174 95.0417 127.589 95.625 127.109C96.2135 126.63 96.9635 126.391 97.875 126.391C98.8333 126.391 99.6094 126.638 100.203 127.133C100.802 127.628 101.102 128.26 101.102 129.031H99.6484C99.6484 128.635 99.4792 128.294 99.1406 128.008C98.8073 127.721 98.3854 127.578 97.875 127.578C97.349 127.578 96.9375 127.693 96.6406 127.922C96.3438 128.151 96.1953 128.451 96.1953 128.82C96.1953 129.169 96.3333 129.432 96.6094 129.609C96.8854 129.786 97.3828 129.956 98.1016 130.117C98.8255 130.279 99.4115 130.471 99.8594 130.695C100.307 130.919 100.638 131.19 100.852 131.508C101.07 131.82 101.18 132.203 101.18 132.656C101.18 133.411 100.878 134.018 100.273 134.477C99.6693 134.93 98.8854 135.156 97.9219 135.156C97.2448 135.156 96.6458 135.036 96.125 134.797C95.6042 134.557 95.1953 134.224 94.8984 133.797C94.6068 133.365 94.4609 132.898 94.4609 132.398H95.9062C95.9323 132.883 96.125 133.268 96.4844 133.555C96.849 133.836 97.3281 133.977 97.9219 133.977C98.4688 133.977 98.9062 133.867 99.2344 133.648C99.5677 133.424 99.7344 133.128 99.7344 132.758ZM106.57 135.156C105.424 135.156 104.492 134.781 103.773 134.031C103.055 133.276 102.695 132.268 102.695 131.008V130.742C102.695 129.904 102.854 129.156 103.172 128.5C103.495 127.839 103.943 127.323 104.516 126.953C105.094 126.578 105.719 126.391 106.391 126.391C107.49 126.391 108.344 126.753 108.953 127.477C109.562 128.201 109.867 129.237 109.867 130.586V131.188H104.141C104.161 132.021 104.404 132.695 104.867 133.211C105.336 133.721 105.93 133.977 106.648 133.977C107.159 133.977 107.591 133.872 107.945 133.664C108.299 133.456 108.609 133.18 108.875 132.836L109.758 133.523C109.049 134.612 107.987 135.156 106.57 135.156ZM106.391 127.578C105.807 127.578 105.318 127.792 104.922 128.219C104.526 128.641 104.281 129.234 104.188 130H108.422V129.891C108.38 129.156 108.182 128.589 107.828 128.188C107.474 127.781 106.995 127.578 106.391 127.578ZM114.938 133.977C115.453 133.977 115.904 133.82 116.289 133.508C116.674 133.195 116.888 132.805 116.93 132.336H118.297C118.271 132.82 118.104 133.281 117.797 133.719C117.49 134.156 117.078 134.505 116.562 134.766C116.052 135.026 115.51 135.156 114.938 135.156C113.786 135.156 112.87 134.773 112.188 134.008C111.51 133.237 111.172 132.185 111.172 130.852V130.609C111.172 129.786 111.323 129.055 111.625 128.414C111.927 127.773 112.359 127.276 112.922 126.922C113.49 126.568 114.159 126.391 114.93 126.391C115.878 126.391 116.664 126.674 117.289 127.242C117.919 127.81 118.255 128.547 118.297 129.453H116.93C116.888 128.906 116.68 128.458 116.305 128.109C115.935 127.755 115.477 127.578 114.93 127.578C114.195 127.578 113.625 127.844 113.219 128.375C112.818 128.901 112.617 129.664 112.617 130.664V130.938C112.617 131.911 112.818 132.661 113.219 133.188C113.62 133.714 114.193 133.977 114.938 133.977ZM121.883 124.5V126.547H123.461V127.664H121.883V132.906C121.883 133.245 121.953 133.5 122.094 133.672C122.234 133.839 122.474 133.922 122.812 133.922C122.979 133.922 123.208 133.891 123.5 133.828V135C123.12 135.104 122.75 135.156 122.391 135.156C121.745 135.156 121.258 134.961 120.93 134.57C120.602 134.18 120.438 133.625 120.438 132.906V127.664H118.898V126.547H120.438V124.5H121.883ZM128.664 135.156C127.518 135.156 126.586 134.781 125.867 134.031C125.148 133.276 124.789 132.268 124.789 131.008V130.742C124.789 129.904 124.948 129.156 125.266 128.5C125.589 127.839 126.036 127.323 126.609 126.953C127.188 126.578 127.812 126.391 128.484 126.391C129.583 126.391 130.438 126.753 131.047 127.477C131.656 128.201 131.961 129.237 131.961 130.586V131.188H126.234C126.255 132.021 126.497 132.695 126.961 133.211C127.43 133.721 128.023 133.977 128.742 133.977C129.253 133.977 129.685 133.872 130.039 133.664C130.393 133.456 130.703 133.18 130.969 132.836L131.852 133.523C131.143 134.612 130.081 135.156 128.664 135.156ZM128.484 127.578C127.901 127.578 127.411 127.792 127.016 128.219C126.62 128.641 126.375 129.234 126.281 130H130.516V129.891C130.474 129.156 130.276 128.589 129.922 128.188C129.568 127.781 129.089 127.578 128.484 127.578ZM135.602 124.5V126.547H137.18V127.664H135.602V132.906C135.602 133.245 135.672 133.5 135.812 133.672C135.953 133.839 136.193 133.922 136.531 133.922C136.698 133.922 136.927 133.891 137.219 133.828V135C136.839 135.104 136.469 135.156 136.109 135.156C135.464 135.156 134.977 134.961 134.648 134.57C134.32 134.18 134.156 133.625 134.156 132.906V127.664H132.617V126.547H134.156V124.5H135.602ZM144.094 134.164C143.531 134.826 142.706 135.156 141.617 135.156C140.716 135.156 140.029 134.896 139.555 134.375C139.086 133.849 138.849 133.073 138.844 132.047V126.547H140.289V132.008C140.289 133.289 140.81 133.93 141.852 133.93C142.956 133.93 143.69 133.518 144.055 132.695V126.547H145.5V135H144.125L144.094 134.164ZM151.789 127.844C151.57 127.807 151.333 127.789 151.078 127.789C150.13 127.789 149.487 128.193 149.148 129V135H147.703V126.547H149.109L149.133 127.523C149.607 126.768 150.279 126.391 151.148 126.391C151.43 126.391 151.643 126.427 151.789 126.5V127.844ZM42.6094 154C42.526 153.833 42.4583 153.536 42.4062 153.109C41.7344 153.807 40.9323 154.156 40 154.156C39.1667 154.156 38.4818 153.922 37.9453 153.453C37.4141 152.979 37.1484 152.38 37.1484 151.656C37.1484 150.776 37.4818 150.094 38.1484 149.609C38.8203 149.12 39.763 148.875 40.9766 148.875H42.3828V148.211C42.3828 147.706 42.2318 147.305 41.9297 147.008C41.6276 146.706 41.1823 146.555 40.5938 146.555C40.0781 146.555 39.6458 146.685 39.2969 146.945C38.9479 147.206 38.7734 147.521 38.7734 147.891H37.3203C37.3203 147.469 37.4688 147.062 37.7656 146.672C38.0677 146.276 38.474 145.964 38.9844 145.734C39.5 145.505 40.0651 145.391 40.6797 145.391C41.6536 145.391 42.4167 145.635 42.9688 146.125C43.5208 146.609 43.8073 147.279 43.8281 148.133V152.023C43.8281 152.799 43.9271 153.417 44.125 153.875V154H42.6094ZM40.2109 152.898C40.6641 152.898 41.0938 152.781 41.5 152.547C41.9062 152.312 42.2005 152.008 42.3828 151.633V149.898H41.25C39.4792 149.898 38.5938 150.417 38.5938 151.453C38.5938 151.906 38.7448 152.26 39.0469 152.516C39.349 152.771 39.737 152.898 40.2109 152.898ZM45.7422 149.703C45.7422 148.406 46.0495 147.365 46.6641 146.578C47.2786 145.786 48.0833 145.391 49.0781 145.391C50.0677 145.391 50.8516 145.729 51.4297 146.406V142H52.875V154H51.5469L51.4766 153.094C50.8984 153.802 50.0938 154.156 49.0625 154.156C48.0833 154.156 47.2839 153.755 46.6641 152.953C46.0495 152.151 45.7422 151.104 45.7422 149.812V149.703ZM47.1875 149.867C47.1875 150.826 47.3854 151.576 47.7812 152.117C48.1771 152.659 48.724 152.93 49.4219 152.93C50.3385 152.93 51.0078 152.518 51.4297 151.695V147.812C50.9974 147.016 50.3333 146.617 49.4375 146.617C48.7292 146.617 48.1771 146.891 47.7812 147.438C47.3854 147.984 47.1875 148.794 47.1875 149.867ZM56.6953 154H55.25V145.547H56.6953V154ZM55.1328 143.305C55.1328 143.07 55.2031 142.872 55.3438 142.711C55.4896 142.549 55.7031 142.469 55.9844 142.469C56.2656 142.469 56.4792 142.549 56.625 142.711C56.7708 142.872 56.8438 143.07 56.8438 143.305C56.8438 143.539 56.7708 143.734 56.625 143.891C56.4792 144.047 56.2656 144.125 55.9844 144.125C55.7031 144.125 55.4896 144.047 55.3438 143.891C55.2031 143.734 55.1328 143.539 55.1328 143.305ZM66.1562 149.867C66.1562 151.154 65.862 152.19 65.2734 152.977C64.6849 153.763 63.888 154.156 62.8828 154.156C61.8568 154.156 61.0495 153.831 60.4609 153.18V157.25H59.0156V145.547H60.3359L60.4062 146.484C60.9948 145.755 61.8125 145.391 62.8594 145.391C63.875 145.391 64.6771 145.773 65.2656 146.539C65.8594 147.305 66.1562 148.37 66.1562 149.734V149.867ZM64.7109 149.703C64.7109 148.75 64.5078 147.997 64.1016 147.445C63.6953 146.893 63.138 146.617 62.4297 146.617C61.5547 146.617 60.8984 147.005 60.4609 147.781V151.82C60.8932 152.591 61.5547 152.977 62.4453 152.977C63.138 152.977 63.6875 152.703 64.0938 152.156C64.5052 151.604 64.7109 150.786 64.7109 149.703ZM69.5703 154H68.125V145.547H69.5703V154ZM68.0078 143.305C68.0078 143.07 68.0781 142.872 68.2188 142.711C68.3646 142.549 68.5781 142.469 68.8594 142.469C69.1406 142.469 69.3542 142.549 69.5 142.711C69.6458 142.872 69.7188 143.07 69.7188 143.305C69.7188 143.539 69.6458 143.734 69.5 143.891C69.3542 144.047 69.1406 144.125 68.8594 144.125C68.5781 144.125 68.3646 144.047 68.2188 143.891C68.0781 143.734 68.0078 143.539 68.0078 143.305ZM76.8125 151.758C76.8125 151.367 76.6641 151.065 76.3672 150.852C76.0755 150.633 75.5625 150.445 74.8281 150.289C74.099 150.133 73.5182 149.945 73.0859 149.727C72.6589 149.508 72.3411 149.247 72.1328 148.945C71.9297 148.643 71.8281 148.284 71.8281 147.867C71.8281 147.174 72.1198 146.589 72.7031 146.109C73.2917 145.63 74.0417 145.391 74.9531 145.391C75.9115 145.391 76.6875 145.638 77.2812 146.133C77.8802 146.628 78.1797 147.26 78.1797 148.031H76.7266C76.7266 147.635 76.5573 147.294 76.2188 147.008C75.8854 146.721 75.4635 146.578 74.9531 146.578C74.4271 146.578 74.0156 146.693 73.7188 146.922C73.4219 147.151 73.2734 147.451 73.2734 147.82C73.2734 148.169 73.4115 148.432 73.6875 148.609C73.9635 148.786 74.4609 148.956 75.1797 149.117C75.9036 149.279 76.4896 149.471 76.9375 149.695C77.3854 149.919 77.7161 150.19 77.9297 150.508C78.1484 150.82 78.2578 151.203 78.2578 151.656C78.2578 152.411 77.9557 153.018 77.3516 153.477C76.7474 153.93 75.9635 154.156 75 154.156C74.3229 154.156 73.724 154.036 73.2031 153.797C72.6823 153.557 72.2734 153.224 71.9766 152.797C71.6849 152.365 71.5391 151.898 71.5391 151.398H72.9844C73.0104 151.883 73.2031 152.268 73.5625 152.555C73.9271 152.836 74.4062 152.977 75 152.977C75.5469 152.977 75.9844 152.867 76.3125 152.648C76.6458 152.424 76.8125 152.128 76.8125 151.758ZM81.7109 154H80.2656V145.547H81.7109V154ZM80.1484 143.305C80.1484 143.07 80.2188 142.872 80.3594 142.711C80.5052 142.549 80.7188 142.469 81 142.469C81.2812 142.469 81.4948 142.549 81.6406 142.711C81.7865 142.872 81.8594 143.07 81.8594 143.305C81.8594 143.539 81.7865 143.734 81.6406 143.891C81.4948 144.047 81.2812 144.125 81 144.125C80.7188 144.125 80.5052 144.047 80.3594 143.891C80.2188 143.734 80.1484 143.539 80.1484 143.305ZM87.4219 152.977C87.9375 152.977 88.388 152.82 88.7734 152.508C89.1589 152.195 89.3724 151.805 89.4141 151.336H90.7812C90.7552 151.82 90.5885 152.281 90.2812 152.719C89.974 153.156 89.5625 153.505 89.0469 153.766C88.5365 154.026 87.9948 154.156 87.4219 154.156C86.2708 154.156 85.3542 153.773 84.6719 153.008C83.9948 152.237 83.6562 151.185 83.6562 149.852V149.609C83.6562 148.786 83.8073 148.055 84.1094 147.414C84.4115 146.773 84.8438 146.276 85.4062 145.922C85.974 145.568 86.6432 145.391 87.4141 145.391C88.362 145.391 89.1484 145.674 89.7734 146.242C90.4036 146.81 90.7396 147.547 90.7812 148.453H89.4141C89.3724 147.906 89.1641 147.458 88.7891 147.109C88.4193 146.755 87.9609 146.578 87.4141 146.578C86.6797 146.578 86.1094 146.844 85.7031 147.375C85.3021 147.901 85.1016 148.664 85.1016 149.664V149.938C85.1016 150.911 85.3021 151.661 85.7031 152.188C86.1042 152.714 86.6771 152.977 87.4219 152.977ZM93.9766 154H92.5312V145.547H93.9766V154ZM92.4141 143.305C92.4141 143.07 92.4844 142.872 92.625 142.711C92.7708 142.549 92.9844 142.469 93.2656 142.469C93.5469 142.469 93.7604 142.549 93.9062 142.711C94.0521 142.872 94.125 143.07 94.125 143.305C94.125 143.539 94.0521 143.734 93.9062 143.891C93.7604 144.047 93.5469 144.125 93.2656 144.125C92.9844 144.125 92.7708 144.047 92.625 143.891C92.4844 143.734 92.4141 143.539 92.4141 143.305ZM97.6641 145.547L97.7109 146.609C98.3568 145.797 99.2005 145.391 100.242 145.391C102.029 145.391 102.93 146.398 102.945 148.414V154H101.5V148.406C101.495 147.797 101.354 147.346 101.078 147.055C100.807 146.763 100.383 146.617 99.8047 146.617C99.3359 146.617 98.9245 146.742 98.5703 146.992C98.2161 147.242 97.9401 147.57 97.7422 147.977V154H96.2969V145.547H97.6641ZM104.781 149.703C104.781 148.385 105.086 147.339 105.695 146.562C106.305 145.781 107.112 145.391 108.117 145.391C109.148 145.391 109.953 145.755 110.531 146.484L110.602 145.547H111.922V153.797C111.922 154.891 111.596 155.753 110.945 156.383C110.299 157.013 109.43 157.328 108.336 157.328C107.727 157.328 107.13 157.198 106.547 156.938C105.964 156.677 105.518 156.32 105.211 155.867L105.961 155C106.581 155.766 107.339 156.148 108.234 156.148C108.938 156.148 109.484 155.951 109.875 155.555C110.271 155.159 110.469 154.602 110.469 153.883V153.156C109.891 153.823 109.102 154.156 108.102 154.156C107.112 154.156 106.31 153.758 105.695 152.961C105.086 152.164 104.781 151.078 104.781 149.703ZM106.234 149.867C106.234 150.82 106.43 151.57 106.82 152.117C107.211 152.659 107.758 152.93 108.461 152.93C109.372 152.93 110.042 152.516 110.469 151.688V147.828C110.026 147.021 109.362 146.617 108.477 146.617C107.773 146.617 107.224 146.891 106.828 147.438C106.432 147.984 106.234 148.794 106.234 149.867ZM121.586 154.156C120.44 154.156 119.508 153.781 118.789 153.031C118.07 152.276 117.711 151.268 117.711 150.008V149.742C117.711 148.904 117.87 148.156 118.188 147.5C118.51 146.839 118.958 146.323 119.531 145.953C120.109 145.578 120.734 145.391 121.406 145.391C122.505 145.391 123.359 145.753 123.969 146.477C124.578 147.201 124.883 148.237 124.883 149.586V150.188H119.156C119.177 151.021 119.419 151.695 119.883 152.211C120.352 152.721 120.945 152.977 121.664 152.977C122.174 152.977 122.607 152.872 122.961 152.664C123.315 152.456 123.625 152.18 123.891 151.836L124.773 152.523C124.065 153.612 123.003 154.156 121.586 154.156ZM121.406 146.578C120.823 146.578 120.333 146.792 119.938 147.219C119.542 147.641 119.297 148.234 119.203 149H123.438V148.891C123.396 148.156 123.198 147.589 122.844 147.188C122.49 146.781 122.01 146.578 121.406 146.578ZM128.133 154H126.688V142H128.133V154ZM132.023 154H130.578V145.547H132.023V154ZM130.461 143.305C130.461 143.07 130.531 142.872 130.672 142.711C130.818 142.549 131.031 142.469 131.312 142.469C131.594 142.469 131.807 142.549 131.953 142.711C132.099 142.872 132.172 143.07 132.172 143.305C132.172 143.539 132.099 143.734 131.953 143.891C131.807 144.047 131.594 144.125 131.312 144.125C131.031 144.125 130.818 144.047 130.672 143.891C130.531 143.734 130.461 143.539 130.461 143.305ZM136.305 143.5V145.547H137.883V146.664H136.305V151.906C136.305 152.245 136.375 152.5 136.516 152.672C136.656 152.839 136.896 152.922 137.234 152.922C137.401 152.922 137.63 152.891 137.922 152.828V154C137.542 154.104 137.172 154.156 136.812 154.156C136.167 154.156 135.68 153.961 135.352 153.57C135.023 153.18 134.859 152.625 134.859 151.906V146.664H133.32V145.547H134.859V143.5H136.305ZM139.609 153.242C139.609 152.992 139.682 152.784 139.828 152.617C139.979 152.451 140.203 152.367 140.5 152.367C140.797 152.367 141.021 152.451 141.172 152.617C141.328 152.784 141.406 152.992 141.406 153.242C141.406 153.482 141.328 153.682 141.172 153.844C141.021 154.005 140.797 154.086 140.5 154.086C140.203 154.086 139.979 154.005 139.828 153.844C139.682 153.682 139.609 153.482 139.609 153.242Z" fill="#2E3A59"/>
<g filter="url(#filter0_d)">
<circle cx="78.69" cy="73.4106" r="7" transform="rotate(-15 78.69 73.4106)" stroke="#2E3A59" stroke-width="2"/>
<rect x="77.9965" y="32.1853" width="30" height="30" transform="rotate(-15 77.9965 32.1853)" stroke="#2E3A59" stroke-width="2"/>
<g filter="url(#filter1_d)">
<rect x="90.1052" y="31.0114" width="6" height="8" transform="rotate(-15 90.1052 31.0114)" stroke="#2E3A59" stroke-width="2"/>
</g>
</g>
<defs>
<filter id="filter0_d" x="66.6881" y="19.196" width="61.2755" height="74.2165" filterUnits="userSpaceOnUse" color-interpolation-filters="sRGB">
<feFlood flood-opacity="0" result="BackgroundImageFix"/>
<feColorMatrix in="SourceAlpha" type="matrix" values="0 0 0 0 0 0 0 0 0 0 0 0 0 0 0 0 0 0 127 0"/>
<feOffset dx="4" dy="4"/>
<feGaussianBlur stdDeviation="4"/>
<feColorMatrix type="matrix" values="0 0 0 0 0.65098 0 0 0 0 0.670588 0 0 0 0 0.741176 0 0 0 1 0"/>
<feBlend mode="normal" in2="BackgroundImageFix" result="effect1_dropShadow"/>
<feBlend mode="normal" in="SourceGraphic" in2="effect1_dropShadow" result="shape"/>
</filter>
<filter id="filter1_d" x="86.8805" y="26.2337" width="18.3156" height="19.7298" filterUnits="userSpaceOnUse" color-interpolation-filters="sRGB">
<feFlood flood-opacity="0" result="BackgroundImageFix"/>
<feColorMatrix in="SourceAlpha" type="matrix" values="0 0 0 0 0 0 0 0 0 0 0 0 0 0 0 0 0 0 127 0"/>
<feOffset dx="2" dy="2"/>
<feGaussianBlur stdDeviation="2"/>
<feColorMatrix type="matrix" values="0 0 0 0 0.65098 0 0 0 0 0.670588 0 0 0 0 0.741176 0 0 0 1 0"/>
<feBlend mode="normal" in2="BackgroundImageFix" result="effect1_dropShadow"/>
<feBlend mode="normal" in="SourceGraphic" in2="effect1_dropShadow" result="shape"/>
</filter>
</defs>
</svg>
