<svg width="179" height="165" viewBox="0 0 179 165" fill="none" xmlns="http://www.w3.org/2000/svg">
<path d="M13.0703 121.773H18.4609V123H11.5625V111.625H13.0703V121.773ZM19.5625 118.695C19.5625 117.867 19.724 117.122 20.0469 116.461C20.375 115.799 20.8281 115.289 21.4062 114.93C21.9896 114.57 22.6536 114.391 23.3984 114.391C24.5495 114.391 25.4792 114.789 26.1875 115.586C26.901 116.383 27.2578 117.443 27.2578 118.766V118.867C27.2578 119.69 27.099 120.43 26.7812 121.086C26.4688 121.737 26.0182 122.245 25.4297 122.609C24.8464 122.974 24.1745 123.156 23.4141 123.156C22.2682 123.156 21.3385 122.758 20.625 121.961C19.9167 121.164 19.5625 120.109 19.5625 118.797V118.695ZM21.0156 118.867C21.0156 119.805 21.2318 120.557 21.6641 121.125C22.1016 121.693 22.6849 121.977 23.4141 121.977C24.1484 121.977 24.7318 121.69 25.1641 121.117C25.5964 120.539 25.8125 119.732 25.8125 118.695C25.8125 117.768 25.5911 117.018 25.1484 116.445C24.7109 115.867 24.1276 115.578 23.3984 115.578C22.6849 115.578 22.1094 115.862 21.6719 116.43C21.2344 116.997 21.0156 117.81 21.0156 118.867ZM33.1562 115.844C32.9375 115.807 32.7005 115.789 32.4453 115.789C31.4974 115.789 30.8542 116.193 30.5156 117V123H29.0703V114.547H30.4766L30.5 115.523C30.974 114.768 31.6458 114.391 32.5156 114.391C32.7969 114.391 33.0104 114.427 33.1562 114.5V115.844ZM37.8438 123.156C36.6979 123.156 35.7656 122.781 35.0469 122.031C34.3281 121.276 33.9688 120.268 33.9688 119.008V118.742C33.9688 117.904 34.1276 117.156 34.4453 116.5C34.7682 115.839 35.2161 115.323 35.7891 114.953C36.3672 114.578 36.9922 114.391 37.6641 114.391C38.763 114.391 39.6172 114.753 40.2266 115.477C40.8359 116.201 41.1406 117.237 41.1406 118.586V119.188H35.4141C35.4349 120.021 35.6771 120.695 36.1406 121.211C36.6094 121.721 37.2031 121.977 37.9219 121.977C38.4323 121.977 38.8646 121.872 39.2188 121.664C39.5729 121.456 39.8828 121.18 40.1484 120.836L41.0312 121.523C40.3229 122.612 39.2604 123.156 37.8438 123.156ZM37.6641 115.578C37.0807 115.578 36.5911 115.792 36.1953 116.219C35.7995 116.641 35.5547 117.234 35.4609 118H39.6953V117.891C39.6536 117.156 39.4557 116.589 39.1016 116.188C38.7474 115.781 38.2682 115.578 37.6641 115.578ZM44.1797 114.547L44.2188 115.484C44.8385 114.755 45.6745 114.391 46.7266 114.391C47.9089 114.391 48.7135 114.844 49.1406 115.75C49.4219 115.344 49.7865 115.016 50.2344 114.766C50.6875 114.516 51.2214 114.391 51.8359 114.391C53.6901 114.391 54.6328 115.372 54.6641 117.336V123H53.2188V117.422C53.2188 116.818 53.0807 116.367 52.8047 116.07C52.5286 115.768 52.0651 115.617 51.4141 115.617C50.8776 115.617 50.4323 115.779 50.0781 116.102C49.724 116.419 49.5182 116.849 49.4609 117.391V123H48.0078V117.461C48.0078 116.232 47.4062 115.617 46.2031 115.617C45.2552 115.617 44.6068 116.021 44.2578 116.828V123H42.8125V114.547H44.1797ZM62.3906 123H60.9453V114.547H62.3906V123ZM60.8281 112.305C60.8281 112.07 60.8984 111.872 61.0391 111.711C61.1849 111.549 61.3984 111.469 61.6797 111.469C61.9609 111.469 62.1745 111.549 62.3203 111.711C62.4661 111.872 62.5391 112.07 62.5391 112.305C62.5391 112.539 62.4661 112.734 62.3203 112.891C62.1745 113.047 61.9609 113.125 61.6797 113.125C61.3984 113.125 61.1849 113.047 61.0391 112.891C60.8984 112.734 60.8281 112.539 60.8281 112.305ZM71.8516 118.867C71.8516 120.154 71.5573 121.19 70.9688 121.977C70.3802 122.763 69.5833 123.156 68.5781 123.156C67.5521 123.156 66.7448 122.831 66.1562 122.18V126.25H64.7109V114.547H66.0312L66.1016 115.484C66.6901 114.755 67.5078 114.391 68.5547 114.391C69.5703 114.391 70.3724 114.773 70.9609 115.539C71.5547 116.305 71.8516 117.37 71.8516 118.734V118.867ZM70.4062 118.703C70.4062 117.75 70.2031 116.997 69.7969 116.445C69.3906 115.893 68.8333 115.617 68.125 115.617C67.25 115.617 66.5938 116.005 66.1562 116.781V120.82C66.5885 121.591 67.25 121.977 68.1406 121.977C68.8333 121.977 69.3828 121.703 69.7891 121.156C70.2005 120.604 70.4062 119.786 70.4062 118.703ZM78.6172 120.758C78.6172 120.367 78.4688 120.065 78.1719 119.852C77.8802 119.633 77.3672 119.445 76.6328 119.289C75.9036 119.133 75.3229 118.945 74.8906 118.727C74.4635 118.508 74.1458 118.247 73.9375 117.945C73.7344 117.643 73.6328 117.284 73.6328 116.867C73.6328 116.174 73.9245 115.589 74.5078 115.109C75.0964 114.63 75.8464 114.391 76.7578 114.391C77.7161 114.391 78.4922 114.638 79.0859 115.133C79.6849 115.628 79.9844 116.26 79.9844 117.031H78.5312C78.5312 116.635 78.362 116.294 78.0234 116.008C77.6901 115.721 77.2682 115.578 76.7578 115.578C76.2318 115.578 75.8203 115.693 75.5234 115.922C75.2266 116.151 75.0781 116.451 75.0781 116.82C75.0781 117.169 75.2161 117.432 75.4922 117.609C75.7682 117.786 76.2656 117.956 76.9844 118.117C77.7083 118.279 78.2943 118.471 78.7422 118.695C79.1901 118.919 79.5208 119.19 79.7344 119.508C79.9531 119.82 80.0625 120.203 80.0625 120.656C80.0625 121.411 79.7604 122.018 79.1562 122.477C78.5521 122.93 77.7682 123.156 76.8047 123.156C76.1276 123.156 75.5286 123.036 75.0078 122.797C74.487 122.557 74.0781 122.224 73.7812 121.797C73.4896 121.365 73.3438 120.898 73.3438 120.398H74.7891C74.8151 120.883 75.0078 121.268 75.3672 121.555C75.7318 121.836 76.2109 121.977 76.8047 121.977C77.3516 121.977 77.7891 121.867 78.1172 121.648C78.4505 121.424 78.6172 121.128 78.6172 120.758ZM87.1641 122.164C86.6016 122.826 85.776 123.156 84.6875 123.156C83.7865 123.156 83.099 122.896 82.625 122.375C82.1562 121.849 81.9193 121.073 81.9141 120.047V114.547H83.3594V120.008C83.3594 121.289 83.8802 121.93 84.9219 121.93C86.026 121.93 86.7604 121.518 87.125 120.695V114.547H88.5703V123H87.1953L87.1641 122.164ZM92.1328 114.547L92.1719 115.484C92.7917 114.755 93.6276 114.391 94.6797 114.391C95.862 114.391 96.6667 114.844 97.0938 115.75C97.375 115.344 97.7396 115.016 98.1875 114.766C98.6406 114.516 99.1745 114.391 99.7891 114.391C101.643 114.391 102.586 115.372 102.617 117.336V123H101.172V117.422C101.172 116.818 101.034 116.367 100.758 116.07C100.482 115.768 100.018 115.617 99.3672 115.617C98.8307 115.617 98.3854 115.779 98.0312 116.102C97.6771 116.419 97.4714 116.849 97.4141 117.391V123H95.9609V117.461C95.9609 116.232 95.3594 115.617 94.1562 115.617C93.2083 115.617 92.5599 116.021 92.2109 116.828V123H90.7656V114.547H92.1328ZM104.758 125.266L103.938 124.703C104.427 124.021 104.682 123.318 104.703 122.594V121.289H106.117V122.422C106.117 122.948 105.987 123.474 105.727 124C105.471 124.526 105.148 124.948 104.758 125.266ZM111.562 118.703C111.562 117.406 111.87 116.365 112.484 115.578C113.099 114.786 113.904 114.391 114.898 114.391C115.888 114.391 116.672 114.729 117.25 115.406V111H118.695V123H117.367L117.297 122.094C116.719 122.802 115.914 123.156 114.883 123.156C113.904 123.156 113.104 122.755 112.484 121.953C111.87 121.151 111.562 120.104 111.562 118.812V118.703ZM113.008 118.867C113.008 119.826 113.206 120.576 113.602 121.117C113.997 121.659 114.544 121.93 115.242 121.93C116.159 121.93 116.828 121.518 117.25 120.695V116.812C116.818 116.016 116.154 115.617 115.258 115.617C114.549 115.617 113.997 115.891 113.602 116.438C113.206 116.984 113.008 117.794 113.008 118.867ZM120.562 118.695C120.562 117.867 120.724 117.122 121.047 116.461C121.375 115.799 121.828 115.289 122.406 114.93C122.99 114.57 123.654 114.391 124.398 114.391C125.549 114.391 126.479 114.789 127.188 115.586C127.901 116.383 128.258 117.443 128.258 118.766V118.867C128.258 119.69 128.099 120.43 127.781 121.086C127.469 121.737 127.018 122.245 126.43 122.609C125.846 122.974 125.174 123.156 124.414 123.156C123.268 123.156 122.339 122.758 121.625 121.961C120.917 121.164 120.562 120.109 120.562 118.797V118.695ZM122.016 118.867C122.016 119.805 122.232 120.557 122.664 121.125C123.102 121.693 123.685 121.977 124.414 121.977C125.148 121.977 125.732 121.69 126.164 121.117C126.596 120.539 126.812 119.732 126.812 118.695C126.812 117.768 126.591 117.018 126.148 116.445C125.711 115.867 125.128 115.578 124.398 115.578C123.685 115.578 123.109 115.862 122.672 116.43C122.234 116.997 122.016 117.81 122.016 118.867ZM131.641 123H130.195V111H131.641V123ZM133.578 118.695C133.578 117.867 133.74 117.122 134.062 116.461C134.391 115.799 134.844 115.289 135.422 114.93C136.005 114.57 136.669 114.391 137.414 114.391C138.565 114.391 139.495 114.789 140.203 115.586C140.917 116.383 141.273 117.443 141.273 118.766V118.867C141.273 119.69 141.115 120.43 140.797 121.086C140.484 121.737 140.034 122.245 139.445 122.609C138.862 122.974 138.19 123.156 137.43 123.156C136.284 123.156 135.354 122.758 134.641 121.961C133.932 121.164 133.578 120.109 133.578 118.797V118.695ZM135.031 118.867C135.031 119.805 135.247 120.557 135.68 121.125C136.117 121.693 136.701 121.977 137.43 121.977C138.164 121.977 138.747 121.69 139.18 121.117C139.612 120.539 139.828 119.732 139.828 118.695C139.828 117.768 139.607 117.018 139.164 116.445C138.727 115.867 138.143 115.578 137.414 115.578C136.701 115.578 136.125 115.862 135.688 116.43C135.25 116.997 135.031 117.81 135.031 118.867ZM147.172 115.844C146.953 115.807 146.716 115.789 146.461 115.789C145.513 115.789 144.87 116.193 144.531 117V123H143.086V114.547H144.492L144.516 115.523C144.99 114.768 145.661 114.391 146.531 114.391C146.812 114.391 147.026 114.427 147.172 114.5V115.844ZM157.398 120.758C157.398 120.367 157.25 120.065 156.953 119.852C156.661 119.633 156.148 119.445 155.414 119.289C154.685 119.133 154.104 118.945 153.672 118.727C153.245 118.508 152.927 118.247 152.719 117.945C152.516 117.643 152.414 117.284 152.414 116.867C152.414 116.174 152.706 115.589 153.289 115.109C153.878 114.63 154.628 114.391 155.539 114.391C156.497 114.391 157.273 114.638 157.867 115.133C158.466 115.628 158.766 116.26 158.766 117.031H157.312C157.312 116.635 157.143 116.294 156.805 116.008C156.471 115.721 156.049 115.578 155.539 115.578C155.013 115.578 154.602 115.693 154.305 115.922C154.008 116.151 153.859 116.451 153.859 116.82C153.859 117.169 153.997 117.432 154.273 117.609C154.549 117.786 155.047 117.956 155.766 118.117C156.49 118.279 157.076 118.471 157.523 118.695C157.971 118.919 158.302 119.19 158.516 119.508C158.734 119.82 158.844 120.203 158.844 120.656C158.844 121.411 158.542 122.018 157.938 122.477C157.333 122.93 156.549 123.156 155.586 123.156C154.909 123.156 154.31 123.036 153.789 122.797C153.268 122.557 152.859 122.224 152.562 121.797C152.271 121.365 152.125 120.898 152.125 120.398H153.57C153.596 120.883 153.789 121.268 154.148 121.555C154.513 121.836 154.992 121.977 155.586 121.977C156.133 121.977 156.57 121.867 156.898 121.648C157.232 121.424 157.398 121.128 157.398 120.758ZM162.297 123H160.852V114.547H162.297V123ZM160.734 112.305C160.734 112.07 160.805 111.872 160.945 111.711C161.091 111.549 161.305 111.469 161.586 111.469C161.867 111.469 162.081 111.549 162.227 111.711C162.372 111.872 162.445 112.07 162.445 112.305C162.445 112.539 162.372 112.734 162.227 112.891C162.081 113.047 161.867 113.125 161.586 113.125C161.305 113.125 161.091 113.047 160.945 112.891C160.805 112.734 160.734 112.539 160.734 112.305ZM166.578 112.5V114.547H168.156V115.664H166.578V120.906C166.578 121.245 166.648 121.5 166.789 121.672C166.93 121.839 167.169 121.922 167.508 121.922C167.674 121.922 167.904 121.891 168.195 121.828V123C167.815 123.104 167.445 123.156 167.086 123.156C166.44 123.156 165.953 122.961 165.625 122.57C165.297 122.18 165.133 121.625 165.133 120.906V115.664H163.594V114.547H165.133V112.5H166.578ZM33.2812 142C33.1979 141.833 33.1302 141.536 33.0781 141.109C32.4062 141.807 31.6042 142.156 30.6719 142.156C29.8385 142.156 29.1536 141.922 28.6172 141.453C28.0859 140.979 27.8203 140.38 27.8203 139.656C27.8203 138.776 28.1536 138.094 28.8203 137.609C29.4922 137.12 30.4349 136.875 31.6484 136.875H33.0547V136.211C33.0547 135.706 32.9036 135.305 32.6016 135.008C32.2995 134.706 31.8542 134.555 31.2656 134.555C30.75 134.555 30.3177 134.685 29.9688 134.945C29.6198 135.206 29.4453 135.521 29.4453 135.891H27.9922C27.9922 135.469 28.1406 135.062 28.4375 134.672C28.7396 134.276 29.1458 133.964 29.6562 133.734C30.1719 133.505 30.737 133.391 31.3516 133.391C32.3255 133.391 33.0885 133.635 33.6406 134.125C34.1927 134.609 34.4792 135.279 34.5 136.133V140.023C34.5 140.799 34.599 141.417 34.7969 141.875V142H33.2812ZM30.8828 140.898C31.3359 140.898 31.7656 140.781 32.1719 140.547C32.5781 140.312 32.8724 140.008 33.0547 139.633V137.898H31.9219C30.151 137.898 29.2656 138.417 29.2656 139.453C29.2656 139.906 29.4167 140.26 29.7188 140.516C30.0208 140.771 30.4089 140.898 30.8828 140.898ZM38.125 133.547L38.1641 134.484C38.7839 133.755 39.6198 133.391 40.6719 133.391C41.8542 133.391 42.6589 133.844 43.0859 134.75C43.3672 134.344 43.7318 134.016 44.1797 133.766C44.6328 133.516 45.1667 133.391 45.7812 133.391C47.6354 133.391 48.5781 134.372 48.6094 136.336V142H47.1641V136.422C47.1641 135.818 47.026 135.367 46.75 135.07C46.474 134.768 46.0104 134.617 45.3594 134.617C44.8229 134.617 44.3776 134.779 44.0234 135.102C43.6693 135.419 43.4635 135.849 43.4062 136.391V142H41.9531V136.461C41.9531 135.232 41.3516 134.617 40.1484 134.617C39.2005 134.617 38.5521 135.021 38.2031 135.828V142H36.7578V133.547H38.125ZM54.3047 142.156C53.1589 142.156 52.2266 141.781 51.5078 141.031C50.7891 140.276 50.4297 139.268 50.4297 138.008V137.742C50.4297 136.904 50.5885 136.156 50.9062 135.5C51.2292 134.839 51.6771 134.323 52.25 133.953C52.8281 133.578 53.4531 133.391 54.125 133.391C55.224 133.391 56.0781 133.753 56.6875 134.477C57.2969 135.201 57.6016 136.237 57.6016 137.586V138.188H51.875C51.8958 139.021 52.138 139.695 52.6016 140.211C53.0703 140.721 53.6641 140.977 54.3828 140.977C54.8932 140.977 55.3255 140.872 55.6797 140.664C56.0339 140.456 56.3438 140.18 56.6094 139.836L57.4922 140.523C56.7839 141.612 55.7214 142.156 54.3047 142.156ZM54.125 134.578C53.5417 134.578 53.0521 134.792 52.6562 135.219C52.2604 135.641 52.0156 136.234 51.9219 137H56.1562V136.891C56.1146 136.156 55.9167 135.589 55.5625 135.188C55.2083 134.781 54.7292 134.578 54.125 134.578ZM61.2422 131.5V133.547H62.8203V134.664H61.2422V139.906C61.2422 140.245 61.3125 140.5 61.4531 140.672C61.5938 140.839 61.8333 140.922 62.1719 140.922C62.3385 140.922 62.5677 140.891 62.8594 140.828V142C62.4792 142.104 62.1094 142.156 61.75 142.156C61.1042 142.156 60.6172 141.961 60.2891 141.57C59.9609 141.18 59.7969 140.625 59.7969 139.906V134.664H58.2578V133.547H59.7969V131.5H61.2422ZM71.875 140.977C72.3906 140.977 72.8411 140.82 73.2266 140.508C73.612 140.195 73.8255 139.805 73.8672 139.336H75.2344C75.2083 139.82 75.0417 140.281 74.7344 140.719C74.4271 141.156 74.0156 141.505 73.5 141.766C72.9896 142.026 72.4479 142.156 71.875 142.156C70.724 142.156 69.8073 141.773 69.125 141.008C68.4479 140.237 68.1094 139.185 68.1094 137.852V137.609C68.1094 136.786 68.2604 136.055 68.5625 135.414C68.8646 134.773 69.2969 134.276 69.8594 133.922C70.4271 133.568 71.0964 133.391 71.8672 133.391C72.8151 133.391 73.6016 133.674 74.2266 134.242C74.8568 134.81 75.1927 135.547 75.2344 136.453H73.8672C73.8255 135.906 73.6172 135.458 73.2422 135.109C72.8724 134.755 72.4141 134.578 71.8672 134.578C71.1328 134.578 70.5625 134.844 70.1562 135.375C69.7552 135.901 69.5547 136.664 69.5547 137.664V137.938C69.5547 138.911 69.7552 139.661 70.1562 140.188C70.5573 140.714 71.1302 140.977 71.875 140.977ZM76.4766 137.695C76.4766 136.867 76.638 136.122 76.9609 135.461C77.2891 134.799 77.7422 134.289 78.3203 133.93C78.9036 133.57 79.5677 133.391 80.3125 133.391C81.4635 133.391 82.3932 133.789 83.1016 134.586C83.8151 135.383 84.1719 136.443 84.1719 137.766V137.867C84.1719 138.69 84.013 139.43 83.6953 140.086C83.3828 140.737 82.9323 141.245 82.3438 141.609C81.7604 141.974 81.0885 142.156 80.3281 142.156C79.1823 142.156 78.2526 141.758 77.5391 140.961C76.8307 140.164 76.4766 139.109 76.4766 137.797V137.695ZM77.9297 137.867C77.9297 138.805 78.1458 139.557 78.5781 140.125C79.0156 140.693 79.599 140.977 80.3281 140.977C81.0625 140.977 81.6458 140.69 82.0781 140.117C82.5104 139.539 82.7266 138.732 82.7266 137.695C82.7266 136.768 82.5052 136.018 82.0625 135.445C81.625 134.867 81.0417 134.578 80.3125 134.578C79.599 134.578 79.0234 134.862 78.5859 135.43C78.1484 135.997 77.9297 136.81 77.9297 137.867ZM87.3516 133.547L87.3984 134.609C88.0443 133.797 88.888 133.391 89.9297 133.391C91.7161 133.391 92.6172 134.398 92.6328 136.414V142H91.1875V136.406C91.1823 135.797 91.0417 135.346 90.7656 135.055C90.4948 134.763 90.0703 134.617 89.4922 134.617C89.0234 134.617 88.612 134.742 88.2578 134.992C87.9036 135.242 87.6276 135.57 87.4297 135.977V142H85.9844V133.547H87.3516ZM99.7344 139.758C99.7344 139.367 99.5859 139.065 99.2891 138.852C98.9974 138.633 98.4844 138.445 97.75 138.289C97.0208 138.133 96.4401 137.945 96.0078 137.727C95.5807 137.508 95.263 137.247 95.0547 136.945C94.8516 136.643 94.75 136.284 94.75 135.867C94.75 135.174 95.0417 134.589 95.625 134.109C96.2135 133.63 96.9635 133.391 97.875 133.391C98.8333 133.391 99.6094 133.638 100.203 134.133C100.802 134.628 101.102 135.26 101.102 136.031H99.6484C99.6484 135.635 99.4792 135.294 99.1406 135.008C98.8073 134.721 98.3854 134.578 97.875 134.578C97.349 134.578 96.9375 134.693 96.6406 134.922C96.3438 135.151 96.1953 135.451 96.1953 135.82C96.1953 136.169 96.3333 136.432 96.6094 136.609C96.8854 136.786 97.3828 136.956 98.1016 137.117C98.8255 137.279 99.4115 137.471 99.8594 137.695C100.307 137.919 100.638 138.19 100.852 138.508C101.07 138.82 101.18 139.203 101.18 139.656C101.18 140.411 100.878 141.018 100.273 141.477C99.6693 141.93 98.8854 142.156 97.9219 142.156C97.2448 142.156 96.6458 142.036 96.125 141.797C95.6042 141.557 95.1953 141.224 94.8984 140.797C94.6068 140.365 94.4609 139.898 94.4609 139.398H95.9062C95.9323 139.883 96.125 140.268 96.4844 140.555C96.849 140.836 97.3281 140.977 97.9219 140.977C98.4688 140.977 98.9062 140.867 99.2344 140.648C99.5677 140.424 99.7344 140.128 99.7344 139.758ZM106.57 142.156C105.424 142.156 104.492 141.781 103.773 141.031C103.055 140.276 102.695 139.268 102.695 138.008V137.742C102.695 136.904 102.854 136.156 103.172 135.5C103.495 134.839 103.943 134.323 104.516 133.953C105.094 133.578 105.719 133.391 106.391 133.391C107.49 133.391 108.344 133.753 108.953 134.477C109.562 135.201 109.867 136.237 109.867 137.586V138.188H104.141C104.161 139.021 104.404 139.695 104.867 140.211C105.336 140.721 105.93 140.977 106.648 140.977C107.159 140.977 107.591 140.872 107.945 140.664C108.299 140.456 108.609 140.18 108.875 139.836L109.758 140.523C109.049 141.612 107.987 142.156 106.57 142.156ZM106.391 134.578C105.807 134.578 105.318 134.792 104.922 135.219C104.526 135.641 104.281 136.234 104.188 137H108.422V136.891C108.38 136.156 108.182 135.589 107.828 135.188C107.474 134.781 106.995 134.578 106.391 134.578ZM114.938 140.977C115.453 140.977 115.904 140.82 116.289 140.508C116.674 140.195 116.888 139.805 116.93 139.336H118.297C118.271 139.82 118.104 140.281 117.797 140.719C117.49 141.156 117.078 141.505 116.562 141.766C116.052 142.026 115.51 142.156 114.938 142.156C113.786 142.156 112.87 141.773 112.188 141.008C111.51 140.237 111.172 139.185 111.172 137.852V137.609C111.172 136.786 111.323 136.055 111.625 135.414C111.927 134.773 112.359 134.276 112.922 133.922C113.49 133.568 114.159 133.391 114.93 133.391C115.878 133.391 116.664 133.674 117.289 134.242C117.919 134.81 118.255 135.547 118.297 136.453H116.93C116.888 135.906 116.68 135.458 116.305 135.109C115.935 134.755 115.477 134.578 114.93 134.578C114.195 134.578 113.625 134.844 113.219 135.375C112.818 135.901 112.617 136.664 112.617 137.664V137.938C112.617 138.911 112.818 139.661 113.219 140.188C113.62 140.714 114.193 140.977 114.938 140.977ZM121.883 131.5V133.547H123.461V134.664H121.883V139.906C121.883 140.245 121.953 140.5 122.094 140.672C122.234 140.839 122.474 140.922 122.812 140.922C122.979 140.922 123.208 140.891 123.5 140.828V142C123.12 142.104 122.75 142.156 122.391 142.156C121.745 142.156 121.258 141.961 120.93 141.57C120.602 141.18 120.438 140.625 120.438 139.906V134.664H118.898V133.547H120.438V131.5H121.883ZM128.664 142.156C127.518 142.156 126.586 141.781 125.867 141.031C125.148 140.276 124.789 139.268 124.789 138.008V137.742C124.789 136.904 124.948 136.156 125.266 135.5C125.589 134.839 126.036 134.323 126.609 133.953C127.188 133.578 127.812 133.391 128.484 133.391C129.583 133.391 130.438 133.753 131.047 134.477C131.656 135.201 131.961 136.237 131.961 137.586V138.188H126.234C126.255 139.021 126.497 139.695 126.961 140.211C127.43 140.721 128.023 140.977 128.742 140.977C129.253 140.977 129.685 140.872 130.039 140.664C130.393 140.456 130.703 140.18 130.969 139.836L131.852 140.523C131.143 141.612 130.081 142.156 128.664 142.156ZM128.484 134.578C127.901 134.578 127.411 134.792 127.016 135.219C126.62 135.641 126.375 136.234 126.281 137H130.516V136.891C130.474 136.156 130.276 135.589 129.922 135.188C129.568 134.781 129.089 134.578 128.484 134.578ZM135.602 131.5V133.547H137.18V134.664H135.602V139.906C135.602 140.245 135.672 140.5 135.812 140.672C135.953 140.839 136.193 140.922 136.531 140.922C136.698 140.922 136.927 140.891 137.219 140.828V142C136.839 142.104 136.469 142.156 136.109 142.156C135.464 142.156 134.977 141.961 134.648 141.57C134.32 141.18 134.156 140.625 134.156 139.906V134.664H132.617V133.547H134.156V131.5H135.602ZM144.094 141.164C143.531 141.826 142.706 142.156 141.617 142.156C140.716 142.156 140.029 141.896 139.555 141.375C139.086 140.849 138.849 140.073 138.844 139.047V133.547H140.289V139.008C140.289 140.289 140.81 140.93 141.852 140.93C142.956 140.93 143.69 140.518 144.055 139.695V133.547H145.5V142H144.125L144.094 141.164ZM151.789 134.844C151.57 134.807 151.333 134.789 151.078 134.789C150.13 134.789 149.487 135.193 149.148 136V142H147.703V133.547H149.109L149.133 134.523C149.607 133.768 150.279 133.391 151.148 133.391C151.43 133.391 151.643 133.427 151.789 133.5V134.844ZM42.6094 161C42.526 160.833 42.4583 160.536 42.4062 160.109C41.7344 160.807 40.9323 161.156 40 161.156C39.1667 161.156 38.4818 160.922 37.9453 160.453C37.4141 159.979 37.1484 159.38 37.1484 158.656C37.1484 157.776 37.4818 157.094 38.1484 156.609C38.8203 156.12 39.763 155.875 40.9766 155.875H42.3828V155.211C42.3828 154.706 42.2318 154.305 41.9297 154.008C41.6276 153.706 41.1823 153.555 40.5938 153.555C40.0781 153.555 39.6458 153.685 39.2969 153.945C38.9479 154.206 38.7734 154.521 38.7734 154.891H37.3203C37.3203 154.469 37.4688 154.062 37.7656 153.672C38.0677 153.276 38.474 152.964 38.9844 152.734C39.5 152.505 40.0651 152.391 40.6797 152.391C41.6536 152.391 42.4167 152.635 42.9688 153.125C43.5208 153.609 43.8073 154.279 43.8281 155.133V159.023C43.8281 159.799 43.9271 160.417 44.125 160.875V161H42.6094ZM40.2109 159.898C40.6641 159.898 41.0938 159.781 41.5 159.547C41.9062 159.312 42.2005 159.008 42.3828 158.633V156.898H41.25C39.4792 156.898 38.5938 157.417 38.5938 158.453C38.5938 158.906 38.7448 159.26 39.0469 159.516C39.349 159.771 39.737 159.898 40.2109 159.898ZM45.7422 156.703C45.7422 155.406 46.0495 154.365 46.6641 153.578C47.2786 152.786 48.0833 152.391 49.0781 152.391C50.0677 152.391 50.8516 152.729 51.4297 153.406V149H52.875V161H51.5469L51.4766 160.094C50.8984 160.802 50.0938 161.156 49.0625 161.156C48.0833 161.156 47.2839 160.755 46.6641 159.953C46.0495 159.151 45.7422 158.104 45.7422 156.812V156.703ZM47.1875 156.867C47.1875 157.826 47.3854 158.576 47.7812 159.117C48.1771 159.659 48.724 159.93 49.4219 159.93C50.3385 159.93 51.0078 159.518 51.4297 158.695V154.812C50.9974 154.016 50.3333 153.617 49.4375 153.617C48.7292 153.617 48.1771 153.891 47.7812 154.438C47.3854 154.984 47.1875 155.794 47.1875 156.867ZM56.6953 161H55.25V152.547H56.6953V161ZM55.1328 150.305C55.1328 150.07 55.2031 149.872 55.3438 149.711C55.4896 149.549 55.7031 149.469 55.9844 149.469C56.2656 149.469 56.4792 149.549 56.625 149.711C56.7708 149.872 56.8438 150.07 56.8438 150.305C56.8438 150.539 56.7708 150.734 56.625 150.891C56.4792 151.047 56.2656 151.125 55.9844 151.125C55.7031 151.125 55.4896 151.047 55.3438 150.891C55.2031 150.734 55.1328 150.539 55.1328 150.305ZM66.1562 156.867C66.1562 158.154 65.862 159.19 65.2734 159.977C64.6849 160.763 63.888 161.156 62.8828 161.156C61.8568 161.156 61.0495 160.831 60.4609 160.18V164.25H59.0156V152.547H60.3359L60.4062 153.484C60.9948 152.755 61.8125 152.391 62.8594 152.391C63.875 152.391 64.6771 152.773 65.2656 153.539C65.8594 154.305 66.1562 155.37 66.1562 156.734V156.867ZM64.7109 156.703C64.7109 155.75 64.5078 154.997 64.1016 154.445C63.6953 153.893 63.138 153.617 62.4297 153.617C61.5547 153.617 60.8984 154.005 60.4609 154.781V158.82C60.8932 159.591 61.5547 159.977 62.4453 159.977C63.138 159.977 63.6875 159.703 64.0938 159.156C64.5052 158.604 64.7109 157.786 64.7109 156.703ZM69.5703 161H68.125V152.547H69.5703V161ZM68.0078 150.305C68.0078 150.07 68.0781 149.872 68.2188 149.711C68.3646 149.549 68.5781 149.469 68.8594 149.469C69.1406 149.469 69.3542 149.549 69.5 149.711C69.6458 149.872 69.7188 150.07 69.7188 150.305C69.7188 150.539 69.6458 150.734 69.5 150.891C69.3542 151.047 69.1406 151.125 68.8594 151.125C68.5781 151.125 68.3646 151.047 68.2188 150.891C68.0781 150.734 68.0078 150.539 68.0078 150.305ZM76.8125 158.758C76.8125 158.367 76.6641 158.065 76.3672 157.852C76.0755 157.633 75.5625 157.445 74.8281 157.289C74.099 157.133 73.5182 156.945 73.0859 156.727C72.6589 156.508 72.3411 156.247 72.1328 155.945C71.9297 155.643 71.8281 155.284 71.8281 154.867C71.8281 154.174 72.1198 153.589 72.7031 153.109C73.2917 152.63 74.0417 152.391 74.9531 152.391C75.9115 152.391 76.6875 152.638 77.2812 153.133C77.8802 153.628 78.1797 154.26 78.1797 155.031H76.7266C76.7266 154.635 76.5573 154.294 76.2188 154.008C75.8854 153.721 75.4635 153.578 74.9531 153.578C74.4271 153.578 74.0156 153.693 73.7188 153.922C73.4219 154.151 73.2734 154.451 73.2734 154.82C73.2734 155.169 73.4115 155.432 73.6875 155.609C73.9635 155.786 74.4609 155.956 75.1797 156.117C75.9036 156.279 76.4896 156.471 76.9375 156.695C77.3854 156.919 77.7161 157.19 77.9297 157.508C78.1484 157.82 78.2578 158.203 78.2578 158.656C78.2578 159.411 77.9557 160.018 77.3516 160.477C76.7474 160.93 75.9635 161.156 75 161.156C74.3229 161.156 73.724 161.036 73.2031 160.797C72.6823 160.557 72.2734 160.224 71.9766 159.797C71.6849 159.365 71.5391 158.898 71.5391 158.398H72.9844C73.0104 158.883 73.2031 159.268 73.5625 159.555C73.9271 159.836 74.4062 159.977 75 159.977C75.5469 159.977 75.9844 159.867 76.3125 159.648C76.6458 159.424 76.8125 159.128 76.8125 158.758ZM81.7109 161H80.2656V152.547H81.7109V161ZM80.1484 150.305C80.1484 150.07 80.2188 149.872 80.3594 149.711C80.5052 149.549 80.7188 149.469 81 149.469C81.2812 149.469 81.4948 149.549 81.6406 149.711C81.7865 149.872 81.8594 150.07 81.8594 150.305C81.8594 150.539 81.7865 150.734 81.6406 150.891C81.4948 151.047 81.2812 151.125 81 151.125C80.7188 151.125 80.5052 151.047 80.3594 150.891C80.2188 150.734 80.1484 150.539 80.1484 150.305ZM87.4219 159.977C87.9375 159.977 88.388 159.82 88.7734 159.508C89.1589 159.195 89.3724 158.805 89.4141 158.336H90.7812C90.7552 158.82 90.5885 159.281 90.2812 159.719C89.974 160.156 89.5625 160.505 89.0469 160.766C88.5365 161.026 87.9948 161.156 87.4219 161.156C86.2708 161.156 85.3542 160.773 84.6719 160.008C83.9948 159.237 83.6562 158.185 83.6562 156.852V156.609C83.6562 155.786 83.8073 155.055 84.1094 154.414C84.4115 153.773 84.8438 153.276 85.4062 152.922C85.974 152.568 86.6432 152.391 87.4141 152.391C88.362 152.391 89.1484 152.674 89.7734 153.242C90.4036 153.81 90.7396 154.547 90.7812 155.453H89.4141C89.3724 154.906 89.1641 154.458 88.7891 154.109C88.4193 153.755 87.9609 153.578 87.4141 153.578C86.6797 153.578 86.1094 153.844 85.7031 154.375C85.3021 154.901 85.1016 155.664 85.1016 156.664V156.938C85.1016 157.911 85.3021 158.661 85.7031 159.188C86.1042 159.714 86.6771 159.977 87.4219 159.977ZM93.9766 161H92.5312V152.547H93.9766V161ZM92.4141 150.305C92.4141 150.07 92.4844 149.872 92.625 149.711C92.7708 149.549 92.9844 149.469 93.2656 149.469C93.5469 149.469 93.7604 149.549 93.9062 149.711C94.0521 149.872 94.125 150.07 94.125 150.305C94.125 150.539 94.0521 150.734 93.9062 150.891C93.7604 151.047 93.5469 151.125 93.2656 151.125C92.9844 151.125 92.7708 151.047 92.625 150.891C92.4844 150.734 92.4141 150.539 92.4141 150.305ZM97.6641 152.547L97.7109 153.609C98.3568 152.797 99.2005 152.391 100.242 152.391C102.029 152.391 102.93 153.398 102.945 155.414V161H101.5V155.406C101.495 154.797 101.354 154.346 101.078 154.055C100.807 153.763 100.383 153.617 99.8047 153.617C99.3359 153.617 98.9245 153.742 98.5703 153.992C98.2161 154.242 97.9401 154.57 97.7422 154.977V161H96.2969V152.547H97.6641ZM104.781 156.703C104.781 155.385 105.086 154.339 105.695 153.562C106.305 152.781 107.112 152.391 108.117 152.391C109.148 152.391 109.953 152.755 110.531 153.484L110.602 152.547H111.922V160.797C111.922 161.891 111.596 162.753 110.945 163.383C110.299 164.013 109.43 164.328 108.336 164.328C107.727 164.328 107.13 164.198 106.547 163.938C105.964 163.677 105.518 163.32 105.211 162.867L105.961 162C106.581 162.766 107.339 163.148 108.234 163.148C108.938 163.148 109.484 162.951 109.875 162.555C110.271 162.159 110.469 161.602 110.469 160.883V160.156C109.891 160.823 109.102 161.156 108.102 161.156C107.112 161.156 106.31 160.758 105.695 159.961C105.086 159.164 104.781 158.078 104.781 156.703ZM106.234 156.867C106.234 157.82 106.43 158.57 106.82 159.117C107.211 159.659 107.758 159.93 108.461 159.93C109.372 159.93 110.042 159.516 110.469 158.688V154.828C110.026 154.021 109.362 153.617 108.477 153.617C107.773 153.617 107.224 153.891 106.828 154.438C106.432 154.984 106.234 155.794 106.234 156.867ZM121.586 161.156C120.44 161.156 119.508 160.781 118.789 160.031C118.07 159.276 117.711 158.268 117.711 157.008V156.742C117.711 155.904 117.87 155.156 118.188 154.5C118.51 153.839 118.958 153.323 119.531 152.953C120.109 152.578 120.734 152.391 121.406 152.391C122.505 152.391 123.359 152.753 123.969 153.477C124.578 154.201 124.883 155.237 124.883 156.586V157.188H119.156C119.177 158.021 119.419 158.695 119.883 159.211C120.352 159.721 120.945 159.977 121.664 159.977C122.174 159.977 122.607 159.872 122.961 159.664C123.315 159.456 123.625 159.18 123.891 158.836L124.773 159.523C124.065 160.612 123.003 161.156 121.586 161.156ZM121.406 153.578C120.823 153.578 120.333 153.792 119.938 154.219C119.542 154.641 119.297 155.234 119.203 156H123.438V155.891C123.396 155.156 123.198 154.589 122.844 154.188C122.49 153.781 122.01 153.578 121.406 153.578ZM128.133 161H126.688V149H128.133V161ZM132.023 161H130.578V152.547H132.023V161ZM130.461 150.305C130.461 150.07 130.531 149.872 130.672 149.711C130.818 149.549 131.031 149.469 131.312 149.469C131.594 149.469 131.807 149.549 131.953 149.711C132.099 149.872 132.172 150.07 132.172 150.305C132.172 150.539 132.099 150.734 131.953 150.891C131.807 151.047 131.594 151.125 131.312 151.125C131.031 151.125 130.818 151.047 130.672 150.891C130.531 150.734 130.461 150.539 130.461 150.305ZM136.305 150.5V152.547H137.883V153.664H136.305V158.906C136.305 159.245 136.375 159.5 136.516 159.672C136.656 159.839 136.896 159.922 137.234 159.922C137.401 159.922 137.63 159.891 137.922 159.828V161C137.542 161.104 137.172 161.156 136.812 161.156C136.167 161.156 135.68 160.961 135.352 160.57C135.023 160.18 134.859 159.625 134.859 158.906V153.664H133.32V152.547H134.859V150.5H136.305ZM139.609 160.242C139.609 159.992 139.682 159.784 139.828 159.617C139.979 159.451 140.203 159.367 140.5 159.367C140.797 159.367 141.021 159.451 141.172 159.617C141.328 159.784 141.406 159.992 141.406 160.242C141.406 160.482 141.328 160.682 141.172 160.844C141.021 161.005 140.797 161.086 140.5 161.086C140.203 161.086 139.979 161.005 139.828 160.844C139.682 160.682 139.609 160.482 139.609 160.242Z" fill="#2E3A59"/>
<g filter="url(#filter0_d)">
<path d="M61.1607 61.5423C55.3029 55.6844 55.3028 46.1869 61.1607 40.3291L86.7138 14.7759C92.5717 8.91807 102.069 8.91807 107.927 14.7759L112.375 19.224C118.739 25.588 118.115 36.1228 111.23 42.0046C107.38 45.2937 103.381 48.849 100.186 52.0092C96.446 55.7086 92.2117 60.4448 88.3971 64.8965C82.5133 71.7631 71.9905 72.372 65.6345 66.016L61.1607 61.5423Z" stroke="#2E3A59" stroke-width="2"/>
<path d="M59.1362 59.2873C53.7662 53.9174 53.2645 45.4046 58.1269 39.6212C62.5091 34.409 67.7879 28.3754 72.3021 23.9102C76.2798 19.9757 81.5538 15.3897 86.2348 11.4712C92.0198 6.62849 100.52 7.13894 105.882 12.5008L106.283 12.9011C112.647 19.2652 112.023 29.7999 105.137 35.6817C101.287 38.9708 97.2886 42.5262 94.0937 45.6863C90.3536 49.3858 86.1192 54.1219 82.3046 58.5737C76.4209 65.4402 65.898 66.0492 59.542 59.6932L59.1362 59.2873Z" stroke="#2E3A59" stroke-width="2"/>
<rect x="80.1523" y="26.7675" width="15.6653" height="15.6653" rx="7.83265" transform="rotate(-45 80.1523 26.7675)" stroke="#2E3A59" stroke-width="2"/>
<rect x="115.5" y="63.9999" width="26" height="22" rx="1" stroke="#2E3A59" stroke-width="2"/>
<path d="M117.5 40.9994C124.5 42.9994 128.5 45.9999 128.5 56.999" stroke="#2E3A59" stroke-width="2"/>
</g>
<defs>
<filter id="filter0_d" x="49.7733" y="3.13739" width="104.727" height="95.8625" filterUnits="userSpaceOnUse" color-interpolation-filters="sRGB">
<feFlood flood-opacity="0" result="BackgroundImageFix"/>
<feColorMatrix in="SourceAlpha" type="matrix" values="0 0 0 0 0 0 0 0 0 0 0 0 0 0 0 0 0 0 127 0"/>
<feOffset dx="4" dy="4"/>
<feGaussianBlur stdDeviation="4"/>
<feColorMatrix type="matrix" values="0 0 0 0 0.65098 0 0 0 0 0.670588 0 0 0 0 0.741176 0 0 0 1 0"/>
<feBlend mode="normal" in2="BackgroundImageFix" result="effect1_dropShadow"/>
<feBlend mode="normal" in="SourceGraphic" in2="effect1_dropShadow" result="shape"/>
</filter>
</defs>
</svg>
